<svg width="280" height="310" viewBox="0 0 280 310" fill="none" xmlns="http://www.w3.org/2000/svg">
<circle cx="140" cy="154.832" r="140" fill="#2F80ED"/>
<g clip-path="url(#clip0)">
<path d="M248.537 0H31.4627C25.132 0 20 5.13202 20 11.4627V298.03C20 304.361 25.132 309.493 31.4627 309.493H248.537C254.868 309.493 260 304.361 260 298.03V11.4627C260 5.13202 254.868 0 248.537 0Z" fill="#1A1A1A"/>
<path d="M248.537 0H31.4627C25.132 0 20 5.13202 20 11.4627V298.03C20 304.361 25.132 309.493 31.4627 309.493H248.537C254.868 309.493 260 304.361 260 298.03V11.4627C260 5.13202 254.868 0 248.537 0Z" fill="url(#paint0_linear)"/>
<g filter="url(#filter0_d)">
<path d="M34.3284 260.776C34.3284 257.611 36.8944 255.045 40.0597 255.045H237.075C240.24 255.045 242.806 257.611 242.806 260.776V286.567C242.806 289.732 240.24 292.299 237.075 292.299H40.0597C36.8944 292.299 34.3284 289.732 34.3284 286.567V260.776Z" fill="url(#paint1_linear)"/>
<path d="M110.436 277.97V269.771H112.048C112.34 270.226 112.931 271.144 113.823 272.524C114.715 273.905 115.258 274.744 115.451 275.043C115.507 275.129 115.602 275.274 115.737 275.479C115.875 275.681 115.972 275.825 116.028 275.911C116.002 274.631 115.989 273.966 115.989 273.918V269.771H117.371V277.97H115.737L112.037 272.205L111.769 271.763C111.798 272.748 111.813 273.44 111.813 273.839V277.97H110.436ZM121.837 278.088C120.849 278.088 120.079 277.804 119.526 277.237C118.977 276.666 118.703 275.879 118.703 274.875C118.703 273.897 118.962 273.119 119.481 272.541C120 271.963 120.707 271.672 121.602 271.668C122.45 271.668 123.106 271.933 123.573 272.463C124.043 272.993 124.278 273.696 124.278 274.573C124.278 274.636 124.276 274.739 124.272 274.881C124.272 275.022 124.272 275.127 124.272 275.194H120.181C120.196 275.769 120.353 276.214 120.651 276.532C120.953 276.846 121.367 277.002 121.894 277.002C122.565 277.002 123.211 276.827 123.83 276.476L124.037 277.517C123.421 277.897 122.688 278.088 121.837 278.088ZM120.209 274.271H122.896C122.896 273.771 122.782 273.387 122.554 273.118C122.327 272.849 122.011 272.715 121.608 272.715C121.231 272.715 120.912 272.845 120.651 273.107C120.394 273.368 120.246 273.756 120.209 274.271ZM126.668 277.97L124.804 271.819H126.298L127.479 276.33C127.506 276.244 127.718 275.512 128.117 274.131C128.517 272.751 128.742 271.98 128.794 271.819H130.3C130.349 271.976 130.563 272.739 130.944 274.108C131.325 275.478 131.53 276.213 131.56 276.314L132.774 271.819H134.246L132.321 277.97H130.86C130.811 277.81 130.584 276.998 130.177 275.536C129.775 274.073 129.556 273.284 129.522 273.168C129.448 273.44 129.209 274.261 128.806 275.631C128.407 277 128.176 277.78 128.112 277.97H126.668ZM140.543 278.082C139.554 278.082 138.668 277.855 137.884 277.399L138.253 276.196C138.604 276.39 138.985 276.547 139.395 276.666C139.809 276.785 140.213 276.846 140.605 276.846C141.086 276.846 141.449 276.742 141.696 276.537C141.942 276.328 142.065 276.03 142.065 275.642C142.065 275.127 141.722 274.771 141.035 274.573C140.987 274.558 140.851 274.519 140.627 274.456C140.403 274.388 140.192 274.324 139.994 274.265C139.8 274.202 139.66 274.153 139.574 274.12C138.474 273.731 137.924 273.008 137.924 271.948C137.924 271.205 138.187 270.633 138.713 270.229C139.243 269.827 139.944 269.625 140.817 269.625C141.806 269.625 142.659 269.828 143.375 270.235L142.916 271.343C142.184 271.015 141.506 270.851 140.879 270.851C140.427 270.851 140.086 270.931 139.855 271.091C139.627 271.248 139.506 271.511 139.491 271.881C139.491 272.336 139.716 272.632 140.168 272.771C140.257 272.804 140.478 272.877 140.828 272.989C141.179 273.101 141.407 273.174 141.511 273.208C142.261 273.453 142.797 273.759 143.118 274.125C143.442 274.491 143.604 275 143.604 275.653C143.604 276.433 143.328 277.034 142.776 277.455C142.224 277.874 141.479 278.082 140.543 278.082ZM145.955 277.97L144.091 271.819H145.586L146.767 276.33C146.793 276.244 147.006 275.512 147.405 274.131C147.804 272.751 148.03 271.98 148.082 271.819H149.588C149.637 271.976 149.851 272.739 150.231 274.108C150.612 275.478 150.817 276.213 150.847 276.314L152.062 271.819H153.534L151.608 277.97H150.147C150.099 277.81 149.871 276.998 149.465 275.536C149.061 274.073 148.843 273.284 148.81 273.168C148.735 273.44 148.496 274.261 148.093 275.631C147.694 277 147.463 277.78 147.399 277.97H145.955ZM155.946 278.088C155.375 278.088 154.912 277.931 154.558 277.618C154.207 277.3 154.032 276.846 154.032 276.252C154.032 275.614 154.241 275.142 154.659 274.836C155.076 274.527 155.707 274.33 156.551 274.249C156.666 274.233 156.791 274.218 156.925 274.203C157.059 274.188 157.21 274.174 157.379 274.159C157.546 274.144 157.679 274.131 157.776 274.12V273.795C157.776 273.422 157.69 273.151 157.519 272.983C157.347 272.811 157.086 272.726 156.735 272.726C156.235 272.726 155.617 272.866 154.882 273.146C154.879 273.135 154.817 272.965 154.698 272.637C154.578 272.308 154.517 272.14 154.513 272.133C155.237 271.823 156.021 271.668 156.864 271.668C157.692 271.668 158.294 271.849 158.671 272.211C159.049 272.569 159.237 273.151 159.237 273.957V277.97H158.151C158.148 277.955 158.106 277.831 158.028 277.596C157.95 277.36 157.91 277.235 157.91 277.22C157.605 277.519 157.304 277.739 157.009 277.881C156.718 278.019 156.364 278.088 155.946 278.088ZM156.343 277.047C156.682 277.047 156.978 276.967 157.228 276.806C157.481 276.642 157.663 276.444 157.771 276.213V275.027C157.759 275.027 157.66 275.034 157.474 275.049C157.291 275.064 157.192 275.071 157.178 275.071C156.584 275.123 156.149 275.235 155.873 275.407C155.597 275.578 155.459 275.855 155.459 276.235C155.459 276.497 155.535 276.698 155.688 276.84C155.841 276.978 156.06 277.047 156.343 277.047ZM160.714 280.528V271.819H161.974L162.131 272.681C162.332 272.356 162.599 272.106 162.931 271.931C163.267 271.752 163.64 271.662 164.05 271.662C164.554 271.662 164.997 271.803 165.377 272.082C165.761 272.362 166.053 272.745 166.25 273.23C166.448 273.711 166.547 274.256 166.547 274.864C166.547 275.815 166.315 276.592 165.853 277.192C165.393 277.789 164.771 278.088 163.984 278.088C163.595 278.088 163.243 278.011 162.925 277.859C162.612 277.702 162.349 277.491 162.136 277.226C162.166 277.763 162.181 278.066 162.181 278.133V280.456L160.714 280.528ZM163.67 276.969C164.106 276.969 164.45 276.785 164.7 276.42C164.954 276.055 165.08 275.532 165.08 274.852C165.08 274.163 164.954 273.644 164.7 273.297C164.446 272.95 164.093 272.776 163.642 272.776C162.672 272.776 162.181 273.437 162.17 274.758C162.17 275.519 162.295 276.078 162.545 276.436C162.799 276.791 163.173 276.969 163.67 276.969Z" fill="#E6E6E6"/>
</g>
<path d="M79.3228 34.3879V30.3231L75.7756 24.1384H77.8325L80.2742 28.574L82.7299 24.1384H84.7589L81.2257 30.2881V34.3879H79.3228ZM88.306 33.1425C88.9263 33.1425 89.3927 32.9164 89.7052 32.464C90.0177 32.0115 90.174 31.3632 90.174 30.519C90.174 29.6654 90.0177 29.0148 89.7052 28.567C89.3927 28.1192 88.9216 27.8954 88.292 27.8954C87.6716 27.8954 87.2029 28.1216 86.8857 28.574C86.5732 29.0218 86.4169 29.6724 86.4169 30.526C86.4169 31.3655 86.5756 32.0115 86.8927 32.464C87.2099 32.9164 87.681 33.1425 88.306 33.1425ZM88.257 34.5348C87.1189 34.5348 86.2234 34.1664 85.5704 33.4294C84.9174 32.6925 84.5909 31.7223 84.5909 30.519C84.5909 29.2783 84.9174 28.3011 85.5704 27.5875C86.2234 26.8692 87.1446 26.5101 88.3339 26.5101C89.4814 26.5101 90.3792 26.8763 91.0275 27.6085C91.6805 28.3361 92.0072 29.3063 92.0072 30.519C92.0072 31.7456 91.6783 32.7228 91.0205 33.4504C90.3628 34.1733 89.4417 34.5348 88.257 34.5348ZM99.0524 33.7862C98.4413 34.2853 97.6368 34.5348 96.6388 34.5348C95.6401 34.5348 94.8356 34.2853 94.2245 33.7862C93.6184 33.2871 93.3153 32.5549 93.3153 31.5894V26.699H95.1551V31.5194C95.1551 32.0931 95.274 32.5082 95.5119 32.7648C95.7547 33.0213 96.1373 33.1496 96.6596 33.1496C97.1725 33.1496 97.5458 33.0236 97.7786 32.7717C98.0165 32.5153 98.1354 32.0978 98.1354 31.5194V26.699H99.9687V31.5894C99.9687 32.5502 99.6635 33.2825 99.0524 33.7862ZM101.655 34.3879V26.699H103.194L103.432 27.8744C103.936 27.0675 104.666 26.6641 105.622 26.6641C105.823 26.6641 105.985 26.6734 106.111 26.692L106.083 28.2242C105.897 28.1962 105.704 28.1822 105.503 28.1822C104.827 28.1822 104.32 28.3617 103.985 28.7209C103.653 29.08 103.488 29.5792 103.488 30.2181V34.3879H101.655ZM113.052 34.5348C112.338 34.5348 111.76 34.3389 111.317 33.9472C110.878 33.5507 110.659 32.9816 110.659 32.2401C110.659 31.4425 110.921 30.8524 111.443 30.4699C111.965 30.0829 112.753 29.838 113.807 29.7354C113.952 29.7167 114.108 29.6981 114.276 29.6794C114.444 29.6608 114.633 29.6421 114.843 29.6234C115.053 29.6048 115.218 29.5885 115.339 29.5744V29.1686C115.339 28.7023 115.232 28.3641 115.018 28.1542C114.803 27.9396 114.477 27.8324 114.038 27.8324C113.413 27.8324 112.641 28.0073 111.722 28.3571C111.718 28.3431 111.641 28.1309 111.492 27.7205C111.343 27.31 111.265 27.1001 111.261 27.0908C112.166 26.7037 113.145 26.5101 114.199 26.5101C115.235 26.5101 115.988 26.7363 116.459 27.1888C116.93 27.6365 117.166 28.3641 117.166 29.3715V34.3879H115.808C115.804 34.3693 115.752 34.213 115.655 33.9191C115.557 33.6253 115.507 33.469 115.507 33.4504C115.125 33.8235 114.75 34.0987 114.381 34.276C114.017 34.4485 113.574 34.5348 113.052 34.5348ZM113.548 33.2335C113.973 33.2335 114.341 33.1332 114.654 32.9327C114.971 32.7275 115.198 32.4802 115.332 32.1911V30.7079C115.319 30.7079 115.195 30.7172 114.962 30.7358C114.733 30.7545 114.609 30.7638 114.591 30.7638C113.849 30.8292 113.306 30.9691 112.961 31.1836C112.616 31.3981 112.443 31.7433 112.443 32.2191C112.443 32.5456 112.539 32.7974 112.73 32.9746C112.921 33.1472 113.194 33.2335 113.548 33.2335ZM122.378 34.5348C121.203 34.5348 120.286 34.185 119.628 33.4854C118.975 32.7858 118.649 31.7853 118.649 30.484C118.649 29.2247 118.992 28.2475 119.677 27.5526C120.367 26.8576 121.275 26.5101 122.399 26.5101C123.299 26.5101 124.059 26.7037 124.679 27.0908L124.246 28.3991C123.611 28.0679 123.022 27.9024 122.476 27.9024C121.855 27.9024 121.366 28.1239 121.006 28.567C120.652 29.0101 120.475 29.6561 120.475 30.505C120.475 31.3632 120.65 32.0162 121 32.464C121.354 32.9117 121.853 33.1356 122.496 33.1356C123.168 33.1356 123.815 32.9374 124.434 32.5409L124.61 33.9331C124.288 34.1477 123.954 34.3016 123.609 34.3949C123.264 34.4882 122.853 34.5348 122.378 34.5348ZM129.136 34.4929C128.614 34.4929 128.178 34.4322 127.828 34.311C127.483 34.185 127.212 33.9891 127.016 33.7233C126.821 33.4574 126.68 33.1449 126.597 32.7858C126.517 32.422 126.478 31.9742 126.478 31.4425V27.8114H125.218L125.288 26.8179L126.604 26.699L127.191 24.6141L128.311 24.6071V26.699H130.221V27.8114H128.311V31.4774C128.311 32.0605 128.395 32.4756 128.562 32.7228C128.731 32.97 129.04 33.0936 129.493 33.0936C129.759 33.0936 130.043 33.0703 130.346 33.0236L130.396 34.3389C130.386 34.3389 130.328 34.3506 130.221 34.3739C130.118 34.3926 130.017 34.4089 129.92 34.4229C129.826 34.4416 129.705 34.4579 129.556 34.4719C129.407 34.4858 129.267 34.4929 129.136 34.4929ZM131.732 34.3879V26.699H133.565V34.3879H131.732ZM131.732 25.5796V24.0124H133.572V25.5796H131.732ZM137.637 34.3879L134.572 26.699H136.517C136.592 26.9089 136.828 27.5619 137.224 28.658C137.625 29.7494 137.891 30.4933 138.021 30.8898C138.287 31.664 138.478 32.2494 138.595 32.6459C138.595 32.6411 138.635 32.4896 138.714 32.1911C138.794 31.8925 138.868 31.6127 138.938 31.3515C139.013 31.0856 139.059 30.9247 139.078 30.8688C139.082 30.8595 139.295 30.2158 139.715 28.9378C140.139 27.6598 140.391 26.9136 140.47 26.699H142.401L139.491 34.3879H137.637ZM146.858 34.5348C145.622 34.5348 144.659 34.1803 143.968 33.4714C143.283 32.7578 142.94 31.7736 142.94 30.519C142.94 29.297 143.264 28.3245 143.912 27.6015C144.561 26.8785 145.445 26.5147 146.564 26.5101C147.623 26.5101 148.444 26.8412 149.027 27.5035C149.614 28.1659 149.908 29.0451 149.908 30.1412C149.908 30.2204 149.906 30.3487 149.901 30.526C149.901 30.7032 149.901 30.8338 149.901 30.9177H144.787C144.806 31.6361 145.001 32.1934 145.375 32.5898C145.752 32.9816 146.27 33.1775 146.928 33.1775C147.767 33.1775 148.574 32.9584 149.349 32.5199L149.607 33.8212C148.838 34.2969 147.921 34.5348 146.858 34.5348ZM144.821 29.7633H148.18C148.18 29.1383 148.037 28.658 147.753 28.3221C147.469 27.9863 147.075 27.8184 146.571 27.8184C146.1 27.8184 145.701 27.9816 145.375 28.3082C145.053 28.6346 144.869 29.1197 144.821 29.7633ZM155.197 34.3879V23.8655L157.03 23.7466V25.9644C157.03 26.0716 157.024 26.3702 157.009 26.8599C156.996 27.345 156.988 27.5922 156.988 27.6015C157.6 26.8739 158.421 26.5101 159.451 26.5101C160.309 26.5101 160.974 26.7573 161.445 27.2517C161.921 27.7415 162.159 28.497 162.159 29.5185V34.3879H160.325V29.7214C160.325 29.0917 160.225 28.63 160.025 28.3361C159.824 28.0423 159.484 27.8954 159.003 27.8954C158.592 27.8954 158.229 28.0003 157.912 28.2102C157.594 28.4154 157.357 28.6813 157.198 29.0077C157.087 29.4369 157.03 29.9965 157.03 30.6869V34.3879H155.197ZM167.525 34.5348C166.289 34.5348 165.325 34.1803 164.635 33.4714C163.95 32.7578 163.607 31.7736 163.607 30.519C163.607 29.297 163.931 28.3245 164.58 27.6015C165.228 26.8785 166.111 26.5147 167.231 26.5101C168.29 26.5101 169.11 26.8412 169.693 27.5035C170.282 28.1659 170.575 29.0451 170.575 30.1412C170.575 30.2204 170.572 30.3487 170.568 30.526C170.568 30.7032 170.568 30.8338 170.568 30.9177H165.454C165.472 31.6361 165.669 32.1934 166.042 32.5898C166.419 32.9816 166.937 33.1775 167.595 33.1775C168.434 33.1775 169.241 32.9584 170.015 32.5199L170.274 33.8212C169.505 34.2969 168.588 34.5348 167.525 34.5348ZM165.489 29.7633H168.847C168.847 29.1383 168.705 28.658 168.42 28.3221C168.136 27.9863 167.742 27.8184 167.238 27.8184C166.767 27.8184 166.368 27.9816 166.042 28.3082C165.719 28.6346 165.535 29.1197 165.489 29.7633ZM174.934 34.5348C173.931 34.5348 173.143 34.1664 172.569 33.4294C171.995 32.6925 171.709 31.7083 171.709 30.477C171.709 29.2829 171.993 28.3245 172.562 27.6015C173.136 26.8739 173.924 26.5101 174.927 26.5101C176.018 26.5101 176.79 26.8972 177.242 27.6715C177.196 27.2144 177.173 26.7736 177.173 26.3492V23.8655L179.005 23.7466V34.3879H177.418L177.214 33.3385C177.136 33.4644 177.06 33.574 176.991 33.6672C176.926 33.7559 176.827 33.8608 176.697 33.9821C176.566 34.0988 176.424 34.1943 176.27 34.269C176.121 34.3389 175.93 34.3996 175.696 34.4509C175.468 34.5068 175.213 34.5348 174.934 34.5348ZM175.367 33.1425C176.599 33.1425 177.224 32.3053 177.242 30.6309C177.242 29.684 177.084 28.9938 176.767 28.56C176.45 28.1263 175.976 27.9093 175.347 27.9093C174.796 27.9093 174.355 28.1309 174.024 28.574C173.697 29.0124 173.535 29.6608 173.535 30.519C173.535 31.3725 173.697 32.0231 174.024 32.4709C174.355 32.9187 174.803 33.1425 175.367 33.1425ZM182.427 37.8301L182.322 36.3469H183.252C184.33 36.3469 185.083 36.2023 185.512 35.9131C185.941 35.6286 186.156 35.1038 186.156 34.3389C186.156 34.0264 186.142 33.6882 186.114 33.3244C185.993 33.4924 185.876 33.6323 185.764 33.7443C185.657 33.8515 185.519 33.9588 185.351 34.0661C185.188 34.1733 184.99 34.255 184.757 34.311C184.528 34.3622 184.267 34.3879 183.973 34.3879C182.956 34.3879 182.119 34.0217 181.461 33.2895C180.809 32.5572 180.482 31.6127 180.482 30.456C180.482 29.8403 180.573 29.2806 180.755 28.7769C180.937 28.2685 181.184 27.8511 181.496 27.5245C181.809 27.1981 182.168 26.9485 182.574 26.776C182.984 26.5987 183.42 26.5101 183.882 26.5101C184.913 26.5101 185.68 26.8856 186.184 27.6365L186.31 26.699H187.947V33.8422C187.947 34.2246 187.928 34.5675 187.891 34.8706C187.854 35.1785 187.788 35.4723 187.695 35.7522C187.602 36.0367 187.478 36.2839 187.324 36.4938C187.175 36.7036 186.986 36.8949 186.758 37.0674C186.529 37.24 186.258 37.3799 185.946 37.4873C185.638 37.5992 185.279 37.6831 184.869 37.7391C184.458 37.7998 183.996 37.8301 183.483 37.8301H182.427ZM184.267 33.1076C185.531 33.1076 186.17 32.261 186.184 30.568V30.3021C186.175 29.5418 186.016 28.9542 185.708 28.539C185.4 28.1239 184.95 27.914 184.358 27.9093C183.686 27.9093 183.178 28.1402 182.832 28.602C182.487 29.059 182.314 29.6771 182.314 30.456C182.314 31.2069 182.487 31.8366 182.832 32.345C183.182 32.8534 183.661 33.1076 184.267 33.1076ZM193.313 34.5348C192.077 34.5348 191.114 34.1803 190.424 33.4714C189.738 32.7578 189.395 31.7736 189.395 30.519C189.395 29.297 189.719 28.3245 190.368 27.6015C191.016 26.8785 191.899 26.5147 193.019 26.5101C194.078 26.5101 194.899 26.8412 195.482 27.5035C196.07 28.1659 196.363 29.0451 196.363 30.1412C196.363 30.2204 196.361 30.3487 196.356 30.526C196.356 30.7032 196.356 30.8338 196.356 30.9177H191.242C191.26 31.6361 191.457 32.1934 191.83 32.5898C192.208 32.9816 192.725 33.1775 193.383 33.1775C194.223 33.1775 195.029 32.9584 195.804 32.5199L196.063 33.8212C195.293 34.2969 194.376 34.5348 193.313 34.5348ZM191.277 29.7633H194.635C194.635 29.1383 194.493 28.658 194.208 28.3221C193.924 27.9863 193.53 27.8184 193.026 27.8184C192.555 27.8184 192.156 27.9816 191.83 28.3082C191.508 28.6346 191.323 29.1197 191.277 29.7633ZM200.316 34.5278C199.183 34.5278 198.276 34.3342 197.595 33.9472L197.783 32.5688C198.091 32.7368 198.483 32.8884 198.959 33.0236C199.435 33.1542 199.868 33.2195 200.26 33.2195C200.666 33.2195 200.981 33.1449 201.205 32.9956C201.434 32.8417 201.55 32.6178 201.555 32.324C201.555 32.0581 201.447 31.8483 201.233 31.6943C201.023 31.5404 200.62 31.3492 200.022 31.1207C199.817 31.046 199.684 30.997 199.624 30.9737C198.915 30.6986 198.404 30.393 198.091 30.0572C197.779 29.7167 197.623 29.2573 197.623 28.6789C197.623 27.9793 197.874 27.4429 198.378 27.0698C198.887 26.6966 199.593 26.5101 200.498 26.5101C201.477 26.5101 202.338 26.6944 203.08 27.0628L202.625 28.3291C201.893 27.9886 201.196 27.8184 200.533 27.8184C200.165 27.8184 199.875 27.8814 199.665 28.0073C199.461 28.1286 199.358 28.3151 199.358 28.567C199.358 28.8049 199.458 28.9914 199.658 29.1267C199.859 29.2573 200.251 29.4299 200.834 29.6444C200.853 29.6491 200.913 29.6701 201.016 29.7074C201.118 29.7447 201.198 29.775 201.254 29.7984C201.958 30.0549 202.476 30.3627 202.807 30.7218C203.138 31.0763 203.303 31.5404 203.303 32.1141C203.299 32.8837 203.038 33.4784 202.52 33.8982C202.002 34.3179 201.268 34.5278 200.316 34.5278Z" fill="#E6E6E6"/>
<g filter="url(#filter1_i)">
<path d="M237.075 54.4478H42.2089C39.0436 54.4478 36.4776 57.0138 36.4776 60.1791V234.985C36.4776 238.15 39.0436 240.716 42.2089 240.716H237.075C240.24 240.716 242.806 238.15 242.806 234.985V60.1791C242.806 57.0138 240.24 54.4478 237.075 54.4478Z" fill="#1F1F1F"/>
</g>
<g filter="url(#filter2_d)">
<path d="M228.478 63.0449H50.806C47.6407 63.0449 45.0746 65.6109 45.0746 68.7763V226.388C45.0746 229.554 47.6407 232.12 50.806 232.12H228.478C231.643 232.12 234.209 229.554 234.209 226.388V68.7763C234.209 65.6109 231.643 63.0449 228.478 63.0449Z" fill="#333333"/>
<g filter="url(#filter3_d)">
<path d="M56.5374 192C56.5374 188.835 59.1033 186.269 62.2687 186.269H217.015C220.18 186.269 222.746 188.835 222.746 192V214.926C222.746 218.091 220.18 220.657 217.015 220.657H62.2687C59.1033 220.657 56.5374 218.091 56.5374 214.926V192Z" fill="url(#paint2_linear)"/>
<path d="M120.714 207.762V200.587H125.063L125.009 201.64H122.042V203.491H124.862V204.544H122.042V206.703H125.117L125.073 207.762H120.714ZM125.685 207.762L127.6 205.004L125.778 202.379H127.233L128.428 204.211L129.656 202.379H131.087L129.25 205L131.15 207.762H129.682L128.428 205.807L127.135 207.762H125.685ZM134.343 207.865C133.479 207.865 132.804 207.616 132.321 207.12C131.841 206.62 131.601 205.932 131.601 205.054C131.601 204.198 131.828 203.518 132.282 203.011C132.736 202.505 133.355 202.25 134.138 202.247C134.879 202.247 135.454 202.479 135.862 202.942C136.273 203.406 136.479 204.022 136.479 204.789C136.479 204.844 136.477 204.934 136.474 205.059C136.474 205.182 136.474 205.273 136.474 205.332H132.894C132.907 205.835 133.044 206.226 133.305 206.503C133.57 206.777 133.932 206.914 134.393 206.914C134.98 206.914 135.545 206.761 136.087 206.454L136.268 207.365C135.73 207.698 135.088 207.865 134.343 207.865ZM132.918 204.524H135.269C135.269 204.087 135.169 203.75 134.97 203.515C134.771 203.28 134.495 203.163 134.143 203.163C133.813 203.163 133.534 203.278 133.305 203.506C133.08 203.735 132.951 204.074 132.918 204.524ZM137.532 207.762V202.379H138.61L138.776 203.202C139.128 202.637 139.639 202.355 140.309 202.355C140.449 202.355 140.563 202.361 140.651 202.374L140.632 203.447C140.502 203.427 140.365 203.418 140.225 203.418C139.752 203.418 139.398 203.543 139.163 203.795C138.93 204.046 138.815 204.395 138.815 204.843V207.762H137.532ZM143.742 207.865C142.919 207.865 142.278 207.62 141.817 207.13C141.36 206.64 141.131 205.94 141.131 205.029C141.131 204.147 141.371 203.463 141.851 202.977C142.334 202.49 142.97 202.247 143.756 202.247C144.387 202.247 144.919 202.383 145.353 202.654L145.049 203.569C144.605 203.338 144.193 203.222 143.81 203.222C143.376 203.222 143.033 203.377 142.782 203.687C142.533 203.997 142.409 204.45 142.409 205.043C142.409 205.645 142.532 206.102 142.777 206.415C143.025 206.728 143.374 206.885 143.825 206.885C144.295 206.885 144.747 206.746 145.181 206.468L145.304 207.443C145.079 207.593 144.845 207.701 144.604 207.767C144.362 207.832 144.075 207.865 143.742 207.865ZM146.352 207.762V202.379H147.635V207.762H146.352ZM146.352 201.596V200.499H147.64V201.596H146.352ZM150.696 207.86C149.902 207.86 149.268 207.724 148.791 207.453L148.923 206.488C149.139 206.606 149.413 206.712 149.746 206.807C150.079 206.898 150.382 206.943 150.657 206.943C150.94 206.943 151.161 206.891 151.318 206.787C151.478 206.679 151.559 206.523 151.563 206.317C151.563 206.131 151.488 205.984 151.337 205.876C151.191 205.769 150.908 205.635 150.491 205.475C150.347 205.422 150.253 205.388 150.211 205.372C149.715 205.179 149.357 204.965 149.139 204.73C148.92 204.492 148.811 204.17 148.811 203.765C148.811 203.275 148.987 202.9 149.339 202.639C149.695 202.378 150.19 202.247 150.823 202.247C151.509 202.247 152.111 202.376 152.631 202.634L152.312 203.52C151.799 203.282 151.312 203.163 150.848 203.163C150.59 203.163 150.387 203.207 150.241 203.295C150.097 203.38 150.025 203.51 150.025 203.687C150.025 203.854 150.095 203.984 150.236 204.078C150.376 204.17 150.65 204.291 151.059 204.441C151.072 204.445 151.114 204.459 151.186 204.485C151.258 204.511 151.313 204.533 151.352 204.549C151.845 204.728 152.208 204.944 152.439 205.195C152.671 205.443 152.787 205.769 152.787 206.17C152.784 206.708 152.601 207.125 152.239 207.418C151.876 207.713 151.362 207.86 150.696 207.86ZM156.294 207.865C155.428 207.865 154.754 207.616 154.271 207.12C153.791 206.62 153.551 205.932 153.551 205.054C153.551 204.198 153.778 203.518 154.232 203.011C154.686 202.505 155.304 202.25 156.088 202.247C156.829 202.247 157.404 202.479 157.812 202.942C158.224 203.406 158.429 204.022 158.429 204.789C158.429 204.844 158.427 204.934 158.424 205.059C158.424 205.182 158.424 205.273 158.424 205.332H154.844C154.857 205.835 154.994 206.226 155.255 206.503C155.52 206.777 155.882 206.914 156.343 206.914C156.93 206.914 157.495 206.761 158.037 206.454L158.219 207.365C157.68 207.698 157.038 207.865 156.294 207.865ZM154.869 204.524H157.219C157.219 204.087 157.12 203.75 156.92 203.515C156.721 203.28 156.445 203.163 156.093 203.163C155.763 203.163 155.484 203.278 155.255 203.506C155.03 203.735 154.901 204.074 154.869 204.524Z" fill="#E6E6E6"/>
</g>
<path d="M87.3433 74.8657H59.403C58.0182 74.8657 56.8956 75.9884 56.8956 77.3732V88.8359C56.8956 90.2207 58.0182 91.3433 59.403 91.3433H87.3433C88.7282 91.3433 89.8508 90.2207 89.8508 88.8359V77.3732C89.8508 75.9884 88.7282 74.8657 87.3433 74.8657Z" stroke="#5998F8"/>
<g filter="url(#filter4_d)">
<path d="M63.3992 87.403V79.1807H66.1306C66.7761 79.1807 67.3284 79.2652 67.7873 79.4328C68.2463 79.5969 68.6082 79.8656 68.8732 80.2388C69.1418 80.6121 69.2761 81.0799 69.2761 81.6437C69.2761 82.0356 69.2257 82.3845 69.125 82.6904C69.0243 82.9927 68.8582 83.2685 68.6269 83.5186C68.3955 83.765 68.0691 83.9556 67.6474 84.0896C67.2295 84.2235 66.7239 84.2909 66.1306 84.2909C65.6231 84.2909 65.2108 84.2758 64.8937 84.2465V87.403H63.3992ZM65.9683 83.194C66.278 83.194 66.5467 83.1639 66.7743 83.1045C67.0056 83.045 67.1847 82.9684 67.3116 82.8752C67.4422 82.7814 67.5448 82.666 67.6194 82.5278C67.6977 82.3902 67.7481 82.2577 67.7705 82.1309C67.7966 81.9998 67.8097 81.8543 67.8097 81.6939C67.8097 81.2425 67.6641 80.8994 67.3731 80.6644C67.0821 80.4294 66.6716 80.3119 66.1417 80.3119H64.8937V83.1826C64.9385 83.1905 65.2967 83.194 65.9683 83.194ZM73.6138 87.5205C72.5391 87.5205 71.7239 87.254 71.1679 86.7202C70.6119 86.1829 70.3339 85.4271 70.3339 84.4535V79.2036H71.8563V84.3246C71.8563 85.0073 71.9944 85.5059 72.2705 85.819C72.5504 86.1328 73.0075 86.289 73.6418 86.289C74.2649 86.289 74.7164 86.1328 74.9962 85.819C75.2761 85.5016 75.4161 85.0016 75.4161 84.3188V79.2036H76.9329V84.4643C76.9329 85.4307 76.6492 86.1829 76.082 86.7202C75.5149 87.254 74.6921 87.5205 73.6138 87.5205ZM80.2127 87.403V80.4179H77.8227V79.2036H84.1138V80.4179H81.7351V87.403H80.2127Z" fill="#5998F8"/>
</g>
<path d="M104.078 88.829V80.3008C104.013 80.3431 103.71 80.4778 103.169 80.7063C102.632 80.9305 102.329 81.0516 102.259 81.0702V79.6711C102.372 79.6195 102.725 79.4447 103.323 79.1467C103.92 78.8429 104.249 78.671 104.309 78.6287H105.848V88.829H104.078ZM111.656 88.8362V78.5864H117.868L117.791 80.0909H113.551V82.7352H117.581V84.2397H113.551V87.3253H117.945L117.882 88.8362H111.656ZM121.695 88.8362V80.1045H118.707V78.5864H126.571V80.1045H123.598V88.8362H121.695ZM127.677 88.8362V78.5864H129.573V82.7775H134.204V78.5864H136.101V88.8362H134.204V84.2748H129.573V88.8362H127.677Z" fill="#E4E4E4"/>
<path d="M58.9441 116.144C58.2024 116.144 57.5378 115.973 56.9501 115.632L57.2272 114.73C57.4902 114.875 57.7757 114.993 58.0835 115.082C58.3941 115.172 58.6964 115.216 58.9902 115.216C59.3512 115.216 59.6241 115.139 59.8088 114.985C59.9935 114.828 60.0858 114.605 60.0858 114.313C60.0858 113.927 59.8284 113.66 59.3135 113.512C59.2771 113.501 59.1749 113.472 59.007 113.424C58.8391 113.373 58.681 113.326 58.5327 113.281C58.3871 113.234 58.2822 113.197 58.2178 113.172C57.3923 112.881 56.9795 112.338 56.9795 111.543C56.9795 110.986 57.1768 110.556 57.5714 110.254C57.9687 109.953 58.4949 109.801 59.1498 109.801C59.8913 109.801 60.5308 109.954 61.0681 110.258L60.7239 111.089C60.1754 110.844 59.6661 110.721 59.1959 110.721C58.8573 110.721 58.6013 110.781 58.4277 110.901C58.257 111.019 58.166 111.216 58.1549 111.493C58.1549 111.835 58.3242 112.057 58.6628 112.161C58.7299 112.186 58.8951 112.24 59.1581 112.324C59.4212 112.408 59.5919 112.463 59.6702 112.488C60.2328 112.672 60.6344 112.902 60.875 113.176C61.1185 113.45 61.2403 113.833 61.2403 114.322C61.2403 114.907 61.0331 115.358 60.619 115.674C60.2047 115.987 59.6464 116.144 58.9441 116.144ZM63.952 116.123C63.6385 116.123 63.3769 116.087 63.167 116.014C62.9599 115.938 62.7976 115.821 62.68 115.661C62.5626 115.502 62.4786 115.314 62.4282 115.099C62.3806 114.881 62.3568 114.612 62.3568 114.293V112.114H61.6013L61.6432 111.518L62.4324 111.447L62.785 110.195L63.4566 110.192V111.447H64.6026V112.114H63.4566V114.313C63.4566 114.664 63.507 114.912 63.6077 115.061C63.7085 115.209 63.8946 115.283 64.166 115.283C64.3256 115.283 64.4963 115.269 64.6782 115.241L64.7076 116.031C64.702 116.031 64.667 116.038 64.6026 116.051C64.5411 116.063 64.4809 116.073 64.4222 116.081C64.3661 116.092 64.2934 116.102 64.2039 116.11C64.1143 116.119 64.0304 116.123 63.952 116.123ZM65.4883 116.06V111.447H66.4119L66.5546 112.152C66.8568 111.668 67.2948 111.426 67.8685 111.426C67.9888 111.426 68.0868 111.431 68.1624 111.443L68.1455 112.362C68.0336 112.345 67.9175 112.337 67.7971 112.337C67.3913 112.337 67.0877 112.444 66.8862 112.66C66.6875 112.876 66.5882 113.175 66.5882 113.558V116.06H65.4883ZM68.8592 116.06V111.447H69.959V116.06H68.8592ZM68.8592 110.775V109.835H69.9631V110.775H68.8592ZM71.1091 116.06V109.747L72.209 109.675V112.509L72.1838 113.441C72.1866 113.438 72.2146 113.41 72.2677 113.357C72.3237 113.303 72.3545 113.274 72.3601 113.269C72.514 113.087 72.6805 112.899 72.8596 112.706C73.0415 112.513 73.2696 112.277 73.5439 111.996C73.8209 111.717 74.0015 111.534 74.0853 111.447H75.3951L73.4977 113.411L75.5168 116.06H74.1861L72.6666 113.965L72.209 114.326V116.06H71.1091ZM78.0103 116.148C77.2687 116.148 76.6908 115.935 76.2766 115.51C75.8652 115.082 75.6595 114.492 75.6595 113.739C75.6595 113.005 75.854 112.422 76.2431 111.988C76.632 111.554 77.1624 111.336 77.834 111.333C78.4692 111.333 78.9618 111.532 79.3116 111.929C79.6642 112.327 79.8405 112.854 79.8405 113.512C79.8405 113.56 79.8391 113.636 79.8363 113.743C79.8363 113.849 79.8363 113.927 79.8363 113.978H76.7678C76.7789 114.409 76.8965 114.743 77.1204 114.981C77.3471 115.216 77.6577 115.334 78.0522 115.334C78.556 115.334 79.0402 115.202 79.5047 114.94L79.66 115.72C79.1983 116.006 78.6484 116.148 78.0103 116.148ZM76.7887 113.285H78.8037C78.8037 112.911 78.7183 112.622 78.5476 112.421C78.3769 112.219 78.1404 112.118 77.8382 112.118C77.5555 112.118 77.3162 112.216 77.1204 112.412C76.9272 112.608 76.8167 112.899 76.7887 113.285ZM83.0896 116.06V109.894H85.1381C85.6223 109.894 86.0364 109.956 86.3806 110.082C86.7248 110.205 86.9963 110.407 87.195 110.687C87.3965 110.967 87.4972 111.318 87.4972 111.741C87.4972 112.034 87.4594 112.296 87.3839 112.525C87.3083 112.752 87.1838 112.959 87.0103 113.147C86.8368 113.331 86.5919 113.474 86.2757 113.575C85.9623 113.676 85.5831 113.726 85.1381 113.726C84.7575 113.726 84.4483 113.715 84.2104 113.692V116.06H83.0896ZM85.0164 112.903C85.2486 112.903 85.4501 112.881 85.6208 112.836C85.7943 112.792 85.9287 112.734 86.0238 112.664C86.1217 112.594 86.1987 112.507 86.2547 112.403C86.3135 112.3 86.3512 112.201 86.368 112.105C86.3876 112.008 86.3974 111.898 86.3974 111.778C86.3974 111.44 86.2882 111.182 86.07 111.006C85.8517 110.829 85.5439 110.741 85.1465 110.741H84.2104V112.895C84.2439 112.901 84.5126 112.903 85.0164 112.903ZM88.2486 116.06V111.447H89.1721L89.3149 112.152C89.6171 111.668 90.0551 111.426 90.6287 111.426C90.7491 111.426 90.847 111.431 90.9226 111.443L90.9058 112.362C90.7939 112.345 90.6777 112.337 90.5574 112.337C90.1516 112.337 89.848 112.444 89.6464 112.66C89.4478 112.876 89.3484 113.175 89.3484 113.558V116.06H88.2486ZM91.6195 116.06V111.447H92.7193V116.06H91.6195ZM91.6195 110.775V109.835H92.7236V110.775H91.6195ZM95.8887 116.148C95.1831 116.148 94.6336 115.938 94.2388 115.518C93.8469 115.099 93.6514 114.498 93.6514 113.717C93.6514 112.962 93.857 112.375 94.2682 111.959C94.6823 111.542 95.2268 111.333 95.9009 111.333C96.4411 111.333 96.8975 111.449 97.2693 111.682L97.0092 112.466C96.6288 112.268 96.2749 112.168 95.9475 112.168C95.5749 112.168 95.2812 112.302 95.0656 112.567C94.8528 112.833 94.7468 113.221 94.7468 113.73C94.7468 114.245 94.8514 114.637 95.0613 114.906C95.2741 115.175 95.5735 115.308 95.9597 115.308C96.363 115.308 96.7506 115.19 97.1224 114.952L97.2277 115.787C97.0343 115.916 96.8344 116.008 96.6274 116.064C96.4203 116.12 96.1739 116.148 95.8887 116.148ZM100.199 116.148C99.4579 116.148 98.8805 115.935 98.4657 115.51C98.0545 115.082 97.8489 114.492 97.8489 113.739C97.8489 113.005 98.0437 112.422 98.4327 111.988C98.821 111.554 99.3519 111.336 100.023 111.333C100.659 111.333 101.151 111.532 101.501 111.929C101.854 112.327 102.03 112.854 102.03 113.512C102.03 113.56 102.028 113.636 102.026 113.743C102.026 113.849 102.026 113.927 102.026 113.978H98.9572C98.9686 114.409 99.0861 114.743 99.3096 114.981C99.5367 115.216 99.8469 115.334 100.242 115.334C100.745 115.334 101.23 115.202 101.694 114.94L101.849 115.72C101.388 116.006 100.838 116.148 100.199 116.148ZM98.9779 113.285H100.993C100.993 112.911 100.908 112.622 100.737 112.421C100.566 112.219 100.33 112.118 100.027 112.118C99.7452 112.118 99.5059 112.216 99.3096 112.412C99.1169 112.608 99.0059 112.899 98.9779 113.285Z" fill="white"/>
<path d="M59.2533 124.714H59.6521V125.419C60.3657 125.442 60.9449 125.592 61.3899 125.869L61.1801 126.461C61.0094 126.366 60.784 126.28 60.5042 126.205C60.2272 126.126 59.9431 126.08 59.6521 126.066V128.198L60.0886 128.304C60.5924 128.424 60.9744 128.617 61.2346 128.882C61.4949 129.146 61.625 129.521 61.625 130.008C61.625 130.61 61.4487 131.07 61.0961 131.389C60.7463 131.708 60.2649 131.883 59.6521 131.914V132.64H59.2533V131.914C58.8055 131.899 58.4053 131.843 58.0527 131.746C57.7029 131.645 57.423 131.53 57.2132 131.401L57.4314 130.797C57.9967 131.074 58.604 131.231 59.2533 131.267V128.832L58.6362 128.677C57.6931 128.439 57.2216 127.935 57.2216 127.166C57.2216 126.614 57.4007 126.196 57.7589 125.911C58.1171 125.623 58.6152 125.462 59.2533 125.428V124.714ZM59.2533 128.102V126.071C58.4025 126.121 57.9772 126.469 57.9772 127.116C57.9772 127.354 58.0541 127.545 58.208 127.69C58.3648 127.834 58.5985 127.943 58.909 128.018L59.2533 128.102ZM59.6521 128.933V131.271C60.4664 131.229 60.8736 130.817 60.8736 130.033C60.8736 129.764 60.8009 129.547 60.6553 129.383C60.5126 129.214 60.251 129.083 59.8703 128.988L59.6521 128.933ZM66.2467 125.541L66.188 126.23H63.6231C63.5952 127.044 63.5742 127.703 63.5602 128.207C63.8764 128.006 64.2193 127.905 64.5886 127.905C64.8993 127.905 65.1763 127.955 65.4198 128.056C65.6661 128.154 65.8662 128.289 66.02 128.463C66.1768 128.637 66.2957 128.839 66.3769 129.072C66.4581 129.301 66.4986 129.55 66.4986 129.819C66.4986 130.454 66.2943 130.964 65.8857 131.347C65.4799 131.727 64.9272 131.918 64.2276 131.918C63.5252 131.918 62.9627 131.726 62.5401 131.343L62.813 130.751C63.2272 131.075 63.7071 131.238 64.2528 131.238C64.7118 131.238 65.0742 131.108 65.34 130.848C65.6059 130.587 65.7389 130.247 65.7389 129.827C65.7389 129.452 65.6269 129.149 65.403 128.916C65.1791 128.681 64.8601 128.564 64.4459 128.564C64.0317 128.564 63.6987 128.702 63.4468 128.979L62.8634 128.9L63.0271 125.541H66.2467ZM67.4515 131.821L67.355 131.133L69.5252 128.723C69.6707 128.561 69.8106 128.351 69.9449 128.094C70.0821 127.837 70.1814 127.618 70.243 127.439L70.3396 127.175C70.3396 126.827 70.243 126.558 70.0499 126.369C69.8568 126.175 69.5826 126.078 69.2272 126.078C68.6339 126.078 68.1665 126.251 67.8251 126.595L67.5816 125.965C67.9678 125.601 68.5331 125.419 69.2775 125.419C69.8484 125.419 70.3032 125.575 70.6418 125.886C70.9805 126.194 71.1497 126.606 71.1497 127.124C71.1386 127.163 71.1217 127.216 71.0994 127.283C71.077 127.348 71.028 127.475 70.9524 127.665C70.8797 127.856 70.8027 128.036 70.7215 128.207C70.6404 128.377 70.5368 128.565 70.4109 128.769C70.2878 128.973 70.1619 129.145 70.0331 129.282L68.2616 131.175H71.1707L71.1245 131.821H67.4515ZM72.1362 131.821L72.0397 131.133L74.2099 128.723C74.3554 128.561 74.4953 128.351 74.6297 128.094C74.7668 127.837 74.8662 127.618 74.9277 127.439L75.0243 127.175C75.0243 126.827 74.9277 126.558 74.7346 126.369C74.5416 126.175 74.2672 126.078 73.9119 126.078C73.3186 126.078 72.8512 126.251 72.5098 126.595L72.2664 125.965C72.6525 125.601 73.2178 125.419 73.9623 125.419C74.5331 125.419 74.9879 125.575 75.3265 125.886C75.6651 126.194 75.8344 126.606 75.8344 127.124C75.8232 127.163 75.8065 127.216 75.784 127.283C75.7617 127.348 75.7127 127.475 75.6372 127.665C75.5644 127.856 75.4874 128.036 75.4063 128.207C75.3251 128.377 75.2216 128.565 75.0956 128.769C74.9725 128.973 74.8465 129.145 74.7179 129.282L72.9464 131.175H75.8554L75.8093 131.821H72.1362ZM77.4422 131.871C77.2687 131.871 77.1315 131.817 77.0308 131.708C76.9329 131.596 76.8839 131.466 76.8839 131.318C76.8839 131.166 76.9329 131.036 77.0308 130.927C77.1288 130.818 77.2659 130.763 77.4422 130.763C77.6185 130.763 77.7556 130.818 77.8536 130.927C77.9515 131.036 78.0005 131.166 78.0005 131.318C78.0005 131.469 77.9515 131.598 77.8536 131.708C77.7556 131.817 77.6185 131.871 77.4422 131.871ZM81.0942 127.955C81.4468 127.955 81.7729 128.039 82.0723 128.207C82.3717 128.372 82.6124 128.609 82.7943 128.916C82.9762 129.221 83.0671 129.562 83.0671 129.936C83.0671 130.507 82.8741 130.98 82.4879 131.356C82.1045 131.73 81.598 131.918 80.9683 131.918C80.6409 131.918 80.3415 131.864 80.07 131.754C79.8014 131.642 79.5788 131.492 79.4025 131.305C79.229 131.115 79.0933 130.895 78.9954 130.646C78.9002 130.394 78.8526 130.125 78.8526 129.84C78.8526 129.384 78.9352 128.976 79.1003 128.618C79.2682 128.257 79.5705 127.801 80.007 127.25C80.1134 127.116 80.2813 126.909 80.5107 126.629C80.7402 126.349 80.9445 126.103 81.1236 125.89L81.3881 125.57H82.3577L80.1497 128.207C80.466 128.039 80.7808 127.955 81.0942 127.955ZM79.646 129.92C79.646 130.168 79.6922 130.394 79.7845 130.595C79.8797 130.797 80.0266 130.962 80.2253 131.09C80.4268 131.217 80.6661 131.28 80.9431 131.28C81.3573 131.28 81.6819 131.152 81.917 130.898C82.1549 130.643 82.2738 130.327 82.2738 129.949C82.2738 129.552 82.1549 129.226 81.917 128.971C81.6819 128.713 81.3573 128.584 80.9431 128.584C80.5037 128.584 80.1777 128.709 79.9651 128.958C79.7524 129.208 79.646 129.528 79.646 129.92ZM86.1316 127.955C86.4842 127.955 86.8102 128.039 87.1096 128.207C87.4091 128.372 87.6497 128.609 87.8316 128.916C88.0135 129.221 88.1045 129.562 88.1045 129.936C88.1045 130.507 87.9114 130.98 87.5252 131.356C87.1418 131.73 86.6353 131.918 86.0056 131.918C85.6782 131.918 85.3787 131.864 85.1073 131.754C84.8386 131.642 84.6162 131.492 84.4399 131.305C84.2664 131.115 84.1306 130.895 84.0327 130.646C83.9375 130.394 83.89 130.125 83.89 129.84C83.89 129.384 83.9725 128.976 84.1376 128.618C84.3055 128.257 84.6077 127.801 85.0443 127.25C85.1507 127.116 85.3186 126.909 85.548 126.629C85.7776 126.349 85.9818 126.103 86.1609 125.89L86.4254 125.57H87.3951L85.187 128.207C85.5033 128.039 85.8181 127.955 86.1316 127.955ZM84.6833 129.92C84.6833 130.168 84.7295 130.394 84.8219 130.595C84.917 130.797 85.0639 130.962 85.2626 131.09C85.4641 131.217 85.7034 131.28 85.9805 131.28C86.3946 131.28 86.7192 131.152 86.9543 130.898C87.1922 130.643 87.3111 130.327 87.3111 129.949C87.3111 129.552 87.1922 129.226 86.9543 128.971C86.7192 128.713 86.3946 128.584 85.9805 128.584C85.5411 128.584 85.215 128.709 85.0023 128.958C84.7896 129.208 84.6833 129.528 84.6833 129.92Z" fill="white"/>
<path d="M57.1725 153.314V147.147H59.2211C59.7052 147.147 60.1194 147.21 60.4636 147.336C60.8078 147.459 61.0792 147.66 61.278 147.941C61.4794 148.221 61.5802 148.572 61.5802 148.994C61.5802 149.288 61.5424 149.55 61.4669 149.779C61.3913 150.006 61.2668 150.213 61.0933 150.401C60.9198 150.585 60.6749 150.728 60.3587 150.828C60.0452 150.929 59.666 150.98 59.2211 150.98C58.8404 150.98 58.5312 150.969 58.2934 150.946V153.314H57.1725ZM59.0994 150.157C59.3316 150.157 59.5331 150.134 59.7038 150.09C59.8773 150.045 60.0116 149.987 60.1068 149.918C60.2047 149.848 60.2817 149.761 60.3377 149.657C60.3964 149.554 60.4343 149.454 60.451 149.359C60.4706 149.262 60.4804 149.152 60.4804 149.032C60.4804 148.693 60.3713 148.436 60.153 148.259C59.9347 148.083 59.6269 147.995 59.2295 147.995H58.2934V150.149C58.3269 150.154 58.5956 150.157 59.0994 150.157ZM64.2038 153.41C63.9072 153.41 63.6301 153.375 63.3726 153.305C63.118 153.236 62.8871 153.132 62.68 152.995C62.473 152.854 62.3092 152.667 62.1889 152.432C62.0713 152.197 62.0126 151.925 62.0126 151.618C62.0126 151.439 62.0392 151.27 62.0923 151.114C62.1455 150.957 62.2127 150.821 62.2939 150.707C62.3778 150.589 62.4841 150.474 62.6129 150.363C62.7444 150.251 62.8717 150.156 62.9949 150.077C63.118 149.999 63.2621 149.915 63.4272 149.825C63.3125 149.696 63.2243 149.595 63.1627 149.519C63.1012 149.441 63.0313 149.341 62.9529 149.221C62.8773 149.1 62.8214 148.981 62.785 148.864C62.7514 148.744 62.7346 148.618 62.7346 148.486C62.7346 148.178 62.8102 147.917 62.9613 147.701C63.1124 147.483 63.3055 147.325 63.5406 147.227C63.7784 147.129 64.0443 147.08 64.3382 147.08C64.5452 147.08 64.7439 147.107 64.9342 147.16C65.1273 147.21 65.305 147.287 65.4673 147.39C65.6296 147.494 65.7598 147.634 65.8578 147.81C65.9557 147.984 66.0046 148.184 66.0046 148.41C66.0046 148.601 65.9669 148.78 65.8913 148.948C65.8158 149.113 65.708 149.262 65.5681 149.393C65.431 149.524 65.2896 149.638 65.1441 149.733C65.0014 149.828 64.8376 149.922 64.653 150.015L66.1222 151.618C66.3489 151.371 66.5644 151.05 66.7686 150.652L67.4822 151.126C67.264 151.549 67.0121 151.92 66.7267 152.239L67.5956 153.158C67.576 153.164 67.4277 153.202 67.1507 153.271C66.8764 153.339 66.7309 153.375 66.7141 153.381L66.118 152.756C65.5443 153.192 64.9062 153.41 64.2038 153.41ZM64.2332 152.609C64.4738 152.609 64.7089 152.569 64.9384 152.491C65.1679 152.41 65.3694 152.298 65.5429 152.155C65.4897 152.099 65.2155 151.803 64.7202 151.265C64.2248 150.725 63.9519 150.427 63.9016 150.371C63.784 150.438 63.6875 150.495 63.6119 150.543C63.5391 150.588 63.458 150.648 63.3685 150.724C63.2789 150.796 63.2089 150.869 63.1586 150.942C63.111 151.012 63.069 151.097 63.0326 151.198C62.999 151.299 62.9823 151.408 62.9823 151.525C62.9823 151.881 63.0984 152.151 63.3307 152.336C63.5629 152.518 63.8638 152.609 64.2332 152.609ZM64.166 149.435C64.2975 149.365 64.4053 149.302 64.4893 149.246C64.576 149.19 64.667 149.12 64.7621 149.036C64.8573 148.952 64.9286 148.858 64.9762 148.755C65.0238 148.651 65.0476 148.539 65.0476 148.419C65.0476 148.215 64.9846 148.059 64.8586 147.953C64.7328 147.847 64.569 147.794 64.3675 147.794C64.152 147.794 63.98 147.848 63.8512 147.957C63.7253 148.067 63.6623 148.229 63.6623 148.444C63.6623 148.758 63.8302 149.088 64.166 149.435ZM68.4604 153.314V147.164H69.598V152.407H72.1712L72.1376 153.314H68.4604Z" fill="white"/>
<path d="M59.4002 166.061H61.0373V166.632H59.396V168.433H58.8209V166.632H57.1544V166.061H58.8251V164.281H59.4002V166.061ZM63.8876 161.968H64.2864V162.673C65 162.696 65.5793 162.845 66.0243 163.122L65.8143 163.714C65.6436 163.619 65.4184 163.534 65.1385 163.458C64.8614 163.38 64.5774 163.333 64.2864 163.32V165.452L64.723 165.557C65.2267 165.677 65.6087 165.87 65.8689 166.136C66.1292 166.4 66.2593 166.774 66.2593 167.261C66.2593 167.863 66.083 168.323 65.7304 168.642C65.3806 168.961 64.8993 169.136 64.2864 169.167V169.893H63.8876V169.167C63.4398 169.153 63.0397 169.097 62.687 168.999C62.3372 168.898 62.0574 168.784 61.8475 168.655L62.0658 168.05C62.6311 168.327 63.2383 168.484 63.8876 168.521V166.086L63.2705 165.93C62.3274 165.692 61.8559 165.189 61.8559 164.419C61.8559 163.868 62.035 163.449 62.3932 163.164C62.7514 162.876 63.2495 162.715 63.8876 162.681V161.968ZM63.8876 165.356V163.324C63.0369 163.374 62.6115 163.722 62.6115 164.369C62.6115 164.607 62.6884 164.798 62.8424 164.944C62.999 165.087 63.2327 165.196 63.5434 165.271L63.8876 165.356ZM64.2864 166.187V168.524C65.1007 168.483 65.5079 168.07 65.5079 167.286C65.5079 167.018 65.4351 166.801 65.2896 166.636C65.1469 166.468 64.8852 166.336 64.5047 166.241L64.2864 166.187ZM71.3764 167.517H70.6628V169.075H69.9575V167.517H67.1199V166.875L69.8778 162.795H70.6628V166.909H71.4351L71.3764 167.517ZM69.9575 163.747L67.8586 166.909H69.9575V163.747ZM72.2285 169.075L72.132 168.386L74.3022 165.977C74.4478 165.814 74.5877 165.604 74.722 165.347C74.8591 165.09 74.9585 164.871 75.02 164.692L75.1166 164.428C75.1166 164.08 75.02 163.812 74.827 163.622C74.6339 163.429 74.3596 163.332 74.0042 163.332C73.4109 163.332 72.9436 163.504 72.6021 163.848L72.3587 163.219C72.7448 162.855 73.3102 162.673 74.0546 162.673C74.6254 162.673 75.0802 162.828 75.4189 163.139C75.7574 163.447 75.9268 163.86 75.9268 164.377C75.9156 164.416 75.8988 164.469 75.8764 164.537C75.854 164.601 75.805 164.729 75.7295 164.919C75.6567 165.109 75.5798 165.29 75.4986 165.46C75.4174 165.631 75.3139 165.819 75.188 166.023C75.0648 166.227 74.9389 166.398 74.8102 166.535L73.0387 168.428H75.9478L75.9016 169.075H72.2285ZM77.5345 169.125C77.361 169.125 77.2239 169.07 77.1231 168.961C77.0252 168.85 76.9762 168.719 76.9762 168.571C76.9762 168.42 77.0252 168.289 77.1231 168.181C77.2211 168.072 77.3582 168.016 77.5345 168.016C77.7108 168.016 77.8479 168.072 77.9459 168.181C78.0438 168.289 78.0928 168.42 78.0928 168.571C78.0928 168.722 78.0438 168.852 77.9459 168.961C77.8479 169.07 77.7108 169.125 77.5345 169.125ZM81.1865 165.209C81.5391 165.209 81.8652 165.293 82.1646 165.46C82.4641 165.626 82.7048 165.862 82.8867 166.17C83.0686 166.475 83.1595 166.815 83.1595 167.19C83.1595 167.761 82.9664 168.234 82.5802 168.609C82.1968 168.984 81.6903 169.171 81.0606 169.171C80.7332 169.171 80.4338 169.117 80.1623 169.007C79.8937 168.896 79.6712 168.746 79.4948 168.558C79.3213 168.368 79.1856 168.148 79.0877 167.899C78.9926 167.648 78.9449 167.379 78.9449 167.093C78.9449 166.637 79.0275 166.23 79.1926 165.872C79.3605 165.51 79.6628 165.055 80.0994 164.503C80.2057 164.369 80.3736 164.162 80.6031 163.882C80.8325 163.602 81.0369 163.356 81.216 163.143L81.4804 162.824H82.4501L80.2421 165.46C80.5583 165.293 80.8732 165.209 81.1865 165.209ZM79.7384 167.173C79.7384 167.422 79.7845 167.648 79.8768 167.849C79.972 168.05 80.1189 168.216 80.3176 168.344C80.5191 168.47 80.7584 168.533 81.0354 168.533C81.4496 168.533 81.7743 168.405 82.0093 168.151C82.2472 167.896 82.3661 167.58 82.3661 167.203C82.3661 166.805 82.2472 166.479 82.0093 166.224C81.7743 165.967 81.4496 165.838 81.0354 165.838C80.5961 165.838 80.2701 165.963 80.0574 166.212C79.8447 166.461 79.7384 166.781 79.7384 167.173ZM86.2239 165.209C86.5765 165.209 86.9025 165.293 87.2019 165.46C87.5014 165.626 87.742 165.862 87.9239 166.17C88.1059 166.475 88.1968 166.815 88.1968 167.19C88.1968 167.761 88.0037 168.234 87.6175 168.609C87.2342 168.984 86.7276 169.171 86.0979 169.171C85.7705 169.171 85.4711 169.117 85.1996 169.007C84.931 168.896 84.7085 168.746 84.5322 168.558C84.3587 168.368 84.2229 168.148 84.125 167.899C84.0298 167.648 83.9823 167.379 83.9823 167.093C83.9823 166.637 84.0648 166.23 84.2299 165.872C84.3979 165.51 84.7001 165.055 85.1366 164.503C85.243 164.369 85.4109 164.162 85.6404 163.882C85.8699 163.602 86.0741 163.356 86.2532 163.143L86.5177 162.824H87.4874L85.2794 165.46C85.5956 165.293 85.9104 165.209 86.2239 165.209ZM84.7756 167.173C84.7756 167.422 84.8218 167.648 84.9142 167.849C85.0093 168.05 85.1563 168.216 85.3549 168.344C85.5565 168.47 85.7957 168.533 86.0728 168.533C86.4869 168.533 86.8116 168.405 87.0466 168.151C87.2845 167.896 87.4035 167.58 87.4035 167.203C87.4035 166.805 87.2845 166.479 87.0466 166.224C86.8116 165.967 86.4869 165.838 86.0728 165.838C85.6334 165.838 85.3074 165.963 85.0947 166.212C84.882 166.461 84.7756 166.781 84.7756 167.173Z" fill="#5AEDB8"/>
<path d="M147.722 116.06V109.894H149.771C150.255 109.894 150.67 109.956 151.014 110.082C151.358 110.205 151.629 110.407 151.828 110.687C152.029 110.967 152.13 111.318 152.13 111.741C152.13 112.034 152.092 112.296 152.016 112.525C151.941 112.752 151.817 112.959 151.643 113.147C151.47 113.331 151.225 113.474 150.909 113.575C150.595 113.676 150.216 113.726 149.771 113.726C149.39 113.726 149.081 113.715 148.843 113.692V116.06H147.722ZM149.649 112.903C149.882 112.903 150.083 112.88 150.253 112.836C150.427 112.792 150.561 112.734 150.657 112.664C150.755 112.594 150.832 112.507 150.887 112.403C150.946 112.3 150.984 112.201 151.001 112.105C151.021 112.008 151.03 111.898 151.03 111.778C151.03 111.44 150.921 111.182 150.703 111.006C150.485 110.829 150.177 110.741 149.779 110.741H148.843V112.895C148.877 112.901 149.146 112.903 149.649 112.903ZM152.881 116.06V111.447H153.805L153.948 112.152C154.25 111.668 154.688 111.425 155.262 111.425C155.382 111.425 155.48 111.431 155.556 111.443L155.538 112.362C155.427 112.345 155.311 112.337 155.19 112.337C154.785 112.337 154.481 112.444 154.28 112.66C154.08 112.875 153.982 113.175 153.982 113.558V116.06H152.881ZM156.253 116.06V111.447H157.352V116.06H156.253ZM156.253 110.775V109.835H157.357V110.775H156.253ZM160.522 116.148C159.816 116.148 159.267 115.938 158.872 115.518C158.48 115.098 158.284 114.498 158.284 113.717C158.284 112.962 158.49 112.375 158.901 111.958C159.315 111.541 159.86 111.333 160.534 111.333C161.074 111.333 161.531 111.449 161.902 111.682L161.642 112.466C161.262 112.268 160.908 112.168 160.581 112.168C160.208 112.168 159.914 112.302 159.699 112.567C159.486 112.833 159.38 113.221 159.38 113.73C159.38 114.245 159.484 114.637 159.694 114.906C159.907 115.174 160.207 115.308 160.593 115.308C160.996 115.308 161.384 115.189 161.755 114.952L161.861 115.787C161.667 115.916 161.467 116.008 161.26 116.064C161.053 116.12 160.807 116.148 160.522 116.148ZM164.832 116.148C164.091 116.148 163.513 115.935 163.099 115.51C162.688 115.082 162.482 114.492 162.482 113.739C162.482 113.005 162.676 112.422 163.065 111.988C163.454 111.554 163.985 111.336 164.656 111.333C165.292 111.333 165.784 111.532 166.134 111.929C166.487 112.327 166.663 112.854 166.663 113.512C166.663 113.56 166.662 113.636 166.659 113.743C166.659 113.849 166.659 113.927 166.659 113.978H163.59C163.601 114.409 163.718 114.743 163.943 114.981C164.169 115.216 164.48 115.333 164.875 115.333C165.378 115.333 165.863 115.202 166.327 114.939L166.482 115.72C166.02 116.005 165.471 116.148 164.832 116.148ZM163.611 113.285H165.626C165.626 112.911 165.54 112.622 165.37 112.421C165.199 112.219 164.963 112.118 164.661 112.118C164.378 112.118 164.138 112.216 163.943 112.412C163.749 112.608 163.639 112.899 163.611 113.285ZM169.941 116.06V109.91H171.15C171.368 110.252 171.812 110.94 172.481 111.976C173.149 113.011 173.557 113.641 173.702 113.865C173.745 113.929 173.816 114.038 173.917 114.192C174.02 114.343 174.093 114.451 174.134 114.515C174.115 113.555 174.105 113.057 174.105 113.021V109.91H175.142V116.06H173.917L171.142 111.736L170.941 111.405C170.963 112.143 170.974 112.663 170.974 112.962V116.06H169.941ZM178.371 115.313C178.742 115.313 179.023 115.177 179.21 114.906C179.397 114.634 179.491 114.245 179.491 113.739C179.491 113.226 179.397 112.836 179.21 112.567C179.023 112.299 178.74 112.164 178.362 112.164C177.99 112.164 177.709 112.3 177.518 112.572C177.33 112.84 177.237 113.231 177.237 113.743C177.237 114.247 177.332 114.634 177.522 114.906C177.713 115.177 177.995 115.313 178.371 115.313ZM178.341 116.148C177.658 116.148 177.121 115.927 176.729 115.485C176.337 115.043 176.141 114.461 176.141 113.739C176.141 112.994 176.337 112.408 176.729 111.98C177.121 111.549 177.674 111.333 178.387 111.333C179.076 111.333 179.614 111.553 180.003 111.992C180.395 112.429 180.591 113.011 180.591 113.739C180.591 114.474 180.394 115.061 179.999 115.498C179.604 115.931 179.052 116.148 178.341 116.148ZM182.333 116.06L180.935 111.447H182.056L182.941 114.83C182.961 114.765 183.12 114.216 183.42 113.18C183.719 112.145 183.889 111.567 183.928 111.447H185.058C185.094 111.564 185.255 112.136 185.54 113.163C185.826 114.191 185.98 114.742 186.002 114.818L186.912 111.447H188.016L186.573 116.06H185.478C185.441 115.94 185.27 115.331 184.965 114.234C184.663 113.137 184.499 112.545 184.474 112.458C184.418 112.663 184.239 113.278 183.937 114.305C183.637 115.332 183.464 115.917 183.416 116.06H182.333Z" fill="white"/>
<path d="M149.39 124.714H149.789V125.419C150.503 125.442 151.082 125.592 151.527 125.869L151.317 126.461C151.147 126.366 150.921 126.28 150.642 126.205C150.364 126.126 150.08 126.08 149.789 126.066V128.198L150.225 128.304C150.73 128.424 151.112 128.617 151.372 128.882C151.632 129.146 151.762 129.521 151.762 130.008C151.762 130.61 151.586 131.07 151.233 131.389C150.883 131.708 150.402 131.883 149.789 131.914V132.64H149.39V131.914C148.942 131.899 148.543 131.843 148.19 131.746C147.84 131.645 147.56 131.53 147.35 131.401L147.568 130.797C148.134 131.074 148.741 131.231 149.39 131.267V128.832L148.773 128.677C147.83 128.439 147.358 127.935 147.358 127.166C147.358 126.614 147.537 126.196 147.896 125.911C148.254 125.623 148.752 125.462 149.39 125.428V124.714ZM149.39 128.102V126.071C148.54 126.121 148.114 126.469 148.114 127.116C148.114 127.354 148.192 127.545 148.345 127.69C148.502 127.834 148.735 127.943 149.046 128.018L149.39 128.102ZM149.789 128.933V131.271C150.604 131.229 151.011 130.817 151.011 130.033C151.011 129.764 150.938 129.547 150.792 129.383C150.65 129.214 150.388 129.083 150.008 128.988L149.789 128.933ZM156.88 130.264H156.165V131.821H155.46V130.264H152.623V129.622L155.381 125.541H156.165V129.655H156.938L156.88 130.264ZM155.46 126.494L153.361 129.655H155.46V126.494ZM159.75 131.918C159.37 131.918 159.026 131.855 158.718 131.729C158.413 131.6 158.165 131.404 157.975 131.141C157.784 130.878 157.689 130.566 157.689 130.205C157.689 129.805 157.804 129.456 158.034 129.16C158.263 128.863 158.583 128.647 158.995 128.514C158.211 128.236 157.819 127.733 157.819 127.002C157.819 126.507 157.999 126.119 158.357 125.839C158.715 125.56 159.179 125.419 159.75 125.419C160.318 125.419 160.779 125.56 161.131 125.839C161.484 126.119 161.66 126.507 161.66 127.002C161.66 127.372 161.566 127.682 161.375 127.934C161.184 128.186 160.919 128.379 160.578 128.514C160.955 128.647 161.252 128.863 161.467 129.16C161.683 129.456 161.791 129.805 161.791 130.205C161.791 130.742 161.596 131.162 161.207 131.464C160.821 131.767 160.336 131.918 159.75 131.918ZM159.75 128.87C159.35 128.963 159.03 129.118 158.79 129.336C158.549 129.552 158.428 129.825 158.428 130.155C158.428 130.499 158.552 130.773 158.802 130.977C159.051 131.179 159.367 131.28 159.75 131.28C160.134 131.28 160.446 131.179 160.687 130.977C160.93 130.773 161.052 130.499 161.052 130.155C161.052 129.822 160.934 129.547 160.699 129.332C160.464 129.114 160.148 128.96 159.75 128.87ZM159.75 126.058C159.42 126.058 159.139 126.14 158.907 126.306C158.677 126.47 158.562 126.697 158.562 126.985C158.562 127.646 158.959 128.064 159.75 128.241C160.531 128.064 160.922 127.646 160.922 126.985C160.922 126.697 160.808 126.47 160.582 126.306C160.355 126.14 160.078 126.058 159.75 126.058ZM165.804 131.674C165.527 131.836 165.202 131.918 164.83 131.918C164.458 131.918 164.132 131.836 163.852 131.674C163.572 131.509 163.347 131.278 163.176 130.982C163.008 130.685 162.882 130.344 162.798 129.957C162.717 129.571 162.676 129.142 162.676 128.669C162.676 128.28 162.703 127.92 162.756 127.59C162.812 127.26 162.897 126.96 163.012 126.692C163.127 126.423 163.269 126.194 163.436 126.007C163.607 125.82 163.809 125.676 164.044 125.575C164.28 125.472 164.542 125.419 164.83 125.419C165.188 125.419 165.504 125.498 165.778 125.655C166.055 125.811 166.28 126.035 166.45 126.326C166.624 126.614 166.754 126.956 166.841 127.351C166.927 127.743 166.97 128.182 166.97 128.669C166.97 129.142 166.93 129.571 166.849 129.957C166.768 130.344 166.643 130.685 166.475 130.982C166.308 131.278 166.083 131.509 165.804 131.674ZM165.565 126.398C165.36 126.171 165.115 126.058 164.83 126.058C164.545 126.058 164.299 126.171 164.095 126.398C163.891 126.621 163.737 126.927 163.633 127.313C163.533 127.696 163.482 128.14 163.482 128.643C163.482 129.155 163.533 129.609 163.633 130.004C163.737 130.396 163.891 130.706 164.095 130.936C164.299 131.165 164.545 131.28 164.83 131.28C165.115 131.28 165.36 131.165 165.565 130.936C165.769 130.706 165.921 130.396 166.022 130.004C166.126 129.609 166.177 129.155 166.177 128.643C166.177 128.14 166.126 127.696 166.022 127.313C165.921 126.927 165.769 126.621 165.565 126.398Z" fill="white"/>
<path d="M147.719 153.313V147.164H151.448L151.401 148.066H148.857V149.653H151.275V150.555H148.857V152.406H151.493L151.455 153.313H147.719ZM151.981 153.313L153.622 150.95L152.06 148.7H153.307L154.331 150.27L155.385 148.7H156.611L155.036 150.946L156.665 153.313H155.406L154.331 151.638L153.223 153.313H151.981ZM157.311 155.232V148.7H158.256L158.373 149.347C158.524 149.103 158.725 148.915 158.974 148.784C159.226 148.649 159.506 148.582 159.813 148.582C160.191 148.582 160.522 148.687 160.808 148.897C161.096 149.107 161.315 149.394 161.463 149.758C161.611 150.119 161.686 150.527 161.686 150.984C161.686 151.697 161.512 152.28 161.165 152.73C160.821 153.178 160.353 153.401 159.763 153.401C159.472 153.401 159.208 153.344 158.97 153.23C158.734 153.112 158.537 152.954 158.378 152.755C158.4 153.158 158.411 153.385 158.411 153.435V155.177L157.311 155.232ZM159.528 152.562C159.855 152.562 160.113 152.425 160.3 152.151C160.491 151.876 160.586 151.484 160.586 150.975C160.586 150.458 160.491 150.069 160.3 149.808C160.11 149.548 159.845 149.417 159.507 149.417C158.779 149.417 158.411 149.913 158.403 150.904C158.403 151.475 158.496 151.895 158.684 152.163C158.875 152.429 159.156 152.562 159.528 152.562ZM162.609 153.313V148.7H163.709V153.313H162.609ZM162.609 148.028V147.088H163.713V148.028H162.609ZM164.863 153.313V148.7H165.787L165.929 149.405C166.232 148.921 166.67 148.679 167.243 148.679C167.364 148.679 167.462 148.685 167.538 148.696L167.52 149.615C167.409 149.598 167.293 149.59 167.172 149.59C166.766 149.59 166.463 149.698 166.261 149.913C166.063 150.129 165.963 150.428 165.963 150.812V153.313H164.863ZM170.299 153.401C169.558 153.401 168.98 153.189 168.566 152.763C168.154 152.335 167.949 151.745 167.949 150.992C167.949 150.259 168.143 149.675 168.532 149.241C168.921 148.808 169.451 148.589 170.123 148.586C170.759 148.586 171.251 148.786 171.6 149.182C171.954 149.58 172.13 150.107 172.13 150.765C172.13 150.813 172.128 150.89 172.126 150.996C172.126 151.102 172.126 151.181 172.126 151.231H169.057C169.068 151.662 169.185 151.997 169.41 152.234C169.636 152.469 169.947 152.587 170.342 152.587C170.845 152.587 171.329 152.456 171.794 152.193L171.949 152.973C171.487 153.259 170.938 153.401 170.299 153.401ZM169.078 150.539H171.093C171.093 150.164 171.007 149.875 170.837 149.674C170.666 149.473 170.43 149.372 170.127 149.372C169.845 149.372 169.605 149.47 169.41 149.665C169.216 149.862 169.106 150.152 169.078 150.539ZM174.501 153.397C173.821 153.397 173.277 153.281 172.869 153.049L172.982 152.222C173.167 152.323 173.402 152.414 173.687 152.494C173.973 152.573 174.233 152.612 174.468 152.612C174.711 152.612 174.9 152.568 175.034 152.478C175.172 152.386 175.241 152.252 175.244 152.075C175.244 151.916 175.18 151.79 175.051 151.697C174.925 151.605 174.683 151.49 174.325 151.353C174.202 151.308 174.122 151.279 174.086 151.265C173.66 151.1 173.354 150.916 173.167 150.715C172.979 150.511 172.885 150.235 172.885 149.888C172.885 149.468 173.036 149.147 173.338 148.922C173.644 148.699 174.068 148.586 174.611 148.586C175.198 148.586 175.715 148.697 176.16 148.918L175.887 149.678C175.448 149.474 175.029 149.372 174.632 149.372C174.41 149.372 174.237 149.41 174.111 149.485C173.988 149.558 173.926 149.67 173.926 149.821C173.926 149.963 173.986 150.075 174.106 150.157C174.227 150.235 174.463 150.339 174.812 150.467C174.823 150.47 174.859 150.483 174.921 150.505C174.983 150.527 175.03 150.546 175.064 150.559C175.486 150.713 175.797 150.898 175.996 151.114C176.194 151.327 176.294 151.605 176.294 151.949C176.291 152.411 176.135 152.767 175.824 153.02C175.513 153.271 175.072 153.397 174.501 153.397ZM179.576 153.313V147.164H180.714V153.313H179.576ZM181.969 153.313V148.7H182.855L182.976 149.283C183.447 148.819 183.969 148.586 184.543 148.586C185.08 148.586 185.481 148.742 185.747 149.053C186.015 149.36 186.15 149.808 186.15 150.396V153.313H185.046V150.53C185.043 150.158 184.983 149.88 184.866 149.695C184.748 149.51 184.537 149.417 184.232 149.417C183.994 149.417 183.776 149.479 183.577 149.602C183.381 149.723 183.239 149.875 183.149 150.06C183.095 150.279 183.069 150.614 183.069 151.067V153.313H181.969Z" fill="white"/>
<path d="M148.898 169.171C148.523 169.171 148.189 169.122 147.895 169.024C147.603 168.926 147.391 168.813 147.257 168.684L147.492 168.067C147.886 168.377 148.356 168.533 148.902 168.533C149.322 168.533 149.655 168.43 149.901 168.223C150.15 168.013 150.275 167.72 150.275 167.345C150.275 167.141 150.243 166.963 150.178 166.812C150.117 166.658 150.033 166.535 149.926 166.442C149.823 166.347 149.688 166.272 149.523 166.216C149.361 166.157 149.193 166.116 149.02 166.094C148.849 166.069 148.65 166.053 148.424 166.048C148.396 166.048 148.353 166.048 148.298 166.048C148.242 166.045 148.199 166.044 148.171 166.044V165.418H148.381C148.578 165.416 148.75 165.406 148.898 165.389C149.049 165.369 149.199 165.336 149.347 165.288C149.498 165.24 149.623 165.178 149.72 165.099C149.818 165.021 149.898 164.916 149.96 164.785C150.021 164.653 150.052 164.497 150.052 164.318C150.052 163.647 149.667 163.311 148.898 163.311C148.621 163.311 148.361 163.352 148.117 163.433C147.873 163.514 147.665 163.623 147.492 163.76L147.257 163.148C147.674 162.831 148.274 162.673 149.058 162.673C149.374 162.673 149.666 162.731 149.935 162.85C150.203 162.964 150.425 163.142 150.598 163.383C150.771 163.62 150.858 163.9 150.858 164.222C150.858 164.613 150.761 164.936 150.569 165.187C150.375 165.439 150.104 165.62 149.754 165.729C150.146 165.813 150.453 165.996 150.673 166.279C150.897 166.561 151.009 166.92 151.009 167.354C151.009 167.905 150.812 168.345 150.417 168.675C150.023 169.006 149.516 169.171 148.898 169.171ZM155.152 169.075V166.291C155.152 165.83 155.078 165.494 154.93 165.284C154.785 165.074 154.528 164.969 154.162 164.969C153.809 164.969 153.511 165.058 153.268 165.234C153.027 165.41 152.87 165.638 152.797 165.918C152.772 166.128 152.76 166.361 152.76 166.619V169.075H152.059V162.681L152.76 162.64V164.512C152.76 164.671 152.754 164.868 152.743 165.103C153.138 164.616 153.661 164.373 154.313 164.373C155.34 164.373 155.854 164.976 155.854 166.182V169.075H155.152ZM159.535 162.794H160.202V169.075H159.459V163.571C159.177 163.756 158.831 163.914 158.423 164.045V163.345C158.467 163.325 158.558 163.286 158.696 163.227C158.832 163.168 158.935 163.123 159.002 163.092C159.072 163.062 159.158 163.019 159.262 162.963C159.365 162.907 159.456 162.85 159.535 162.794ZM163.388 169.171C163.008 169.171 162.664 169.108 162.356 168.982C162.051 168.853 161.803 168.658 161.613 168.395C161.422 168.132 161.328 167.819 161.328 167.458C161.328 167.059 161.442 166.71 161.672 166.413C161.901 166.116 162.222 165.901 162.633 165.767C161.849 165.49 161.457 164.986 161.457 164.255C161.457 163.76 161.637 163.373 161.995 163.092C162.353 162.813 162.818 162.673 163.388 162.673C163.956 162.673 164.417 162.813 164.769 163.092C165.122 163.373 165.298 163.76 165.298 164.255C165.298 164.625 165.204 164.936 165.013 165.187C164.822 165.439 164.557 165.632 164.216 165.767C164.593 165.901 164.89 166.116 165.105 166.413C165.321 166.71 165.429 167.059 165.429 167.458C165.429 167.996 165.234 168.415 164.845 168.718C164.459 169.02 163.973 169.171 163.388 169.171ZM163.388 166.124C162.988 166.216 162.668 166.371 162.427 166.589C162.187 166.805 162.066 167.078 162.066 167.408C162.066 167.752 162.191 168.026 162.44 168.231C162.689 168.433 163.005 168.533 163.388 168.533C163.772 168.533 164.084 168.433 164.325 168.231C164.568 168.026 164.69 167.752 164.69 167.408C164.69 167.075 164.572 166.801 164.337 166.585C164.102 166.367 163.786 166.213 163.388 166.124ZM163.388 163.311C163.059 163.311 162.777 163.393 162.545 163.559C162.315 163.724 162.2 163.951 162.2 164.239C162.2 164.899 162.597 165.318 163.388 165.494C164.169 165.318 164.56 164.899 164.56 164.239C164.56 163.951 164.446 163.724 164.22 163.559C163.993 163.393 163.716 163.311 163.388 163.311ZM172.305 169.075V166.677C172.305 166.454 172.299 166.266 172.288 166.115C172.28 165.964 172.257 165.81 172.221 165.654C172.187 165.497 172.138 165.373 172.074 165.284C172.012 165.192 171.925 165.118 171.813 165.061C171.701 165.002 171.567 164.973 171.411 164.973C171.103 164.973 170.84 165.056 170.621 165.221C170.405 165.386 170.252 165.619 170.16 165.918C170.134 166.119 170.122 166.335 170.122 166.564V169.075H169.42V166.602C169.42 166.395 169.414 166.216 169.4 166.065C169.386 165.911 169.359 165.763 169.32 165.62C169.281 165.475 169.228 165.357 169.16 165.267C169.096 165.178 169.009 165.106 168.9 165.053C168.791 165 168.661 164.973 168.51 164.973C168.174 164.973 167.892 165.059 167.662 165.229C167.435 165.4 167.283 165.627 167.205 165.909C167.179 166.125 167.167 166.359 167.167 166.611V169.075H166.465C166.46 166.195 166.457 164.66 166.457 164.469H167.045L167.133 165.128C167.273 164.916 167.472 164.737 167.729 164.591C167.986 164.446 168.279 164.373 168.607 164.373C168.777 164.373 168.934 164.391 169.077 164.428C169.222 164.461 169.342 164.504 169.438 164.557C169.536 164.611 169.622 164.675 169.698 164.751C169.774 164.823 169.832 164.896 169.874 164.969C169.916 165.039 169.951 165.113 169.979 165.192C170.315 164.646 170.828 164.373 171.52 164.373C172.032 164.373 172.406 164.52 172.644 164.814C172.885 165.105 173.005 165.537 173.005 166.111V169.075H172.305Z" fill="white"/>
</g>
</g>
<defs>
<filter id="filter0_d" x="26.3284" y="255.045" width="224.478" height="57.2537" filterUnits="userSpaceOnUse" color-interpolation-filters="sRGB">
<feFlood flood-opacity="0" result="BackgroundImageFix"/>
<feColorMatrix in="SourceAlpha" type="matrix" values="0 0 0 0 0 0 0 0 0 0 0 0 0 0 0 0 0 0 127 0"/>
<feOffset dy="12"/>
<feGaussianBlur stdDeviation="4"/>
<feColorMatrix type="matrix" values="0 0 0 0 0 0 0 0 0 0 0 0 0 0 0 0 0 0 0.16 0"/>
<feBlend mode="normal" in2="BackgroundImageFix" result="effect1_dropShadow"/>
<feBlend mode="normal" in="SourceGraphic" in2="effect1_dropShadow" result="shape"/>
</filter>
<filter id="filter1_i" x="36.4776" y="54.4478" width="206.328" height="186.269" filterUnits="userSpaceOnUse" color-interpolation-filters="sRGB">
<feFlood flood-opacity="0" result="BackgroundImageFix"/>
<feBlend mode="normal" in="SourceGraphic" in2="BackgroundImageFix" result="shape"/>
<feColorMatrix in="SourceAlpha" type="matrix" values="0 0 0 0 0 0 0 0 0 0 0 0 0 0 0 0 0 0 127 0" result="hardAlpha"/>
<feOffset/>
<feGaussianBlur stdDeviation="8"/>
<feComposite in2="hardAlpha" operator="arithmetic" k2="-1" k3="1"/>
<feColorMatrix type="matrix" values="0 0 0 0 0 0 0 0 0 0 0 0 0 0 0 0 0 0 0.25 0"/>
<feBlend mode="normal" in2="shape" result="effect1_innerShadow"/>
</filter>
<filter id="filter2_d" x="37.0746" y="55.0449" width="205.134" height="185.075" filterUnits="userSpaceOnUse" color-interpolation-filters="sRGB">
<feFlood flood-opacity="0" result="BackgroundImageFix"/>
<feColorMatrix in="SourceAlpha" type="matrix" values="0 0 0 0 0 0 0 0 0 0 0 0 0 0 0 0 0 0 127 0"/>
<feOffset/>
<feGaussianBlur stdDeviation="4"/>
<feColorMatrix type="matrix" values="0 0 0 0 0 0 0 0 0 0 0 0 0 0 0 0 0 0 0.25 0"/>
<feBlend mode="normal" in2="BackgroundImageFix" result="effect1_dropShadow"/>
<feBlend mode="normal" in="SourceGraphic" in2="effect1_dropShadow" result="shape"/>
</filter>
<filter id="filter3_d" x="50.5374" y="184.269" width="178.209" height="46.388" filterUnits="userSpaceOnUse" color-interpolation-filters="sRGB">
<feFlood flood-opacity="0" result="BackgroundImageFix"/>
<feColorMatrix in="SourceAlpha" type="matrix" values="0 0 0 0 0 0 0 0 0 0 0 0 0 0 0 0 0 0 127 0"/>
<feOffset dy="4"/>
<feGaussianBlur stdDeviation="3"/>
<feColorMatrix type="matrix" values="0 0 0 0 0 0 0 0 0 0 0 0 0 0 0 0 0 0 0.16 0"/>
<feBlend mode="normal" in2="BackgroundImageFix" result="effect1_dropShadow"/>
<feBlend mode="normal" in="SourceGraphic" in2="effect1_dropShadow" result="shape"/>
</filter>
<filter id="filter4_d" x="61.3992" y="77.1807" width="24.7146" height="12.3398" filterUnits="userSpaceOnUse" color-interpolation-filters="sRGB">
<feFlood flood-opacity="0" result="BackgroundImageFix"/>
<feColorMatrix in="SourceAlpha" type="matrix" values="0 0 0 0 0 0 0 0 0 0 0 0 0 0 0 0 0 0 127 0"/>
<feOffset/>
<feGaussianBlur stdDeviation="1"/>
<feColorMatrix type="matrix" values="0 0 0 0 0 0 0 0 0 0 0 0 0 0 0 0 0 0 0.4 0"/>
<feBlend mode="normal" in2="BackgroundImageFix" result="effect1_dropShadow"/>
<feBlend mode="normal" in="SourceGraphic" in2="effect1_dropShadow" result="shape"/>
</filter>
<linearGradient id="paint0_linear" x1="139.642" y1="309.493" x2="-12.0406" y2="185.387" gradientUnits="userSpaceOnUse">
<stop stop-color="#1F1F1F"/>
<stop offset="1" stop-color="#262626"/>
</linearGradient>
<linearGradient id="paint1_linear" x1="242.806" y1="292.299" x2="36.3349" y2="246.081" gradientUnits="userSpaceOnUse">
<stop stop-color="#1455B2"/>
<stop offset="1" stop-color="#1166E1"/>
</linearGradient>
<linearGradient id="paint2_linear" x1="222.746" y1="220.657" x2="56.1173" y2="188.442" gradientUnits="userSpaceOnUse">
<stop stop-color="#1455B2"/>
<stop offset="1" stop-color="#1166E1"/>
</linearGradient>
<clipPath id="clip0">
<rect width="240" height="309.493" fill="white" transform="translate(20)"/>
</clipPath>
</defs>
</svg>
