<svg width="360" height="432" viewBox="0 0 360 432" fill="none" xmlns="http://www.w3.org/2000/svg">
<circle cx="180" cy="216" r="180" fill="#2F80ED"/>
<path d="M332 0H29C20.1634 0 13 7.16344 13 16V416C13 424.837 20.1634 432 29 432H332C340.837 432 348 424.837 348 416V16C348 7.16344 340.837 0 332 0Z" fill="#1A1A1A"/>
<path d="M332 0H29C20.1634 0 13 7.16344 13 16V416C13 424.837 20.1634 432 29 432H332C340.837 432 348 424.837 348 416V16C348 7.16344 340.837 0 332 0Z" fill="url(#paint0_linear)"/>
<g filter="url(#filter0_d)">
<path d="M33 364C33 359.582 36.5817 356 41 356H316C320.418 356 324 359.582 324 364V400C324 404.418 320.418 408 316 408H41C36.5817 408 33 404.418 33 400V364Z" fill="url(#paint1_linear)"/>
<path d="M139.234 388V376.555H141.484C141.891 377.19 142.716 378.471 143.961 380.398C145.206 382.326 145.964 383.497 146.234 383.914C146.312 384.034 146.445 384.237 146.633 384.523C146.826 384.805 146.961 385.005 147.039 385.125C147.003 383.339 146.984 382.411 146.984 382.344V376.555H148.914V388H146.633L141.469 379.953L141.094 379.336C141.135 380.711 141.156 381.677 141.156 382.234V388H139.234ZM155.148 388.164C153.768 388.164 152.693 387.768 151.922 386.977C151.156 386.18 150.773 385.081 150.773 383.68C150.773 382.315 151.135 381.229 151.859 380.422C152.583 379.615 153.57 379.208 154.82 379.203C156.003 379.203 156.919 379.573 157.57 380.312C158.227 381.052 158.555 382.034 158.555 383.258C158.555 383.346 158.552 383.49 158.547 383.688C158.547 383.885 158.547 384.031 158.547 384.125H152.836C152.857 384.927 153.076 385.549 153.492 385.992C153.914 386.43 154.492 386.648 155.227 386.648C156.164 386.648 157.065 386.404 157.93 385.914L158.219 387.367C157.359 387.898 156.336 388.164 155.148 388.164ZM152.875 382.836H156.625C156.625 382.138 156.466 381.602 156.148 381.227C155.831 380.852 155.391 380.664 154.828 380.664C154.302 380.664 153.857 380.846 153.492 381.211C153.133 381.576 152.927 382.117 152.875 382.836ZM161.891 388L159.289 379.414H161.375L163.023 385.711C163.06 385.591 163.357 384.568 163.914 382.641C164.471 380.714 164.786 379.638 164.859 379.414H166.961C167.029 379.633 167.328 380.698 167.859 382.609C168.391 384.521 168.677 385.547 168.719 385.688L170.414 379.414H172.469L169.781 388H167.742C167.674 387.776 167.357 386.643 166.789 384.602C166.227 382.56 165.922 381.458 165.875 381.297C165.771 381.677 165.438 382.823 164.875 384.734C164.318 386.646 163.995 387.734 163.906 388H161.891ZM181.258 388.156C179.878 388.156 178.641 387.839 177.547 387.203L178.062 385.523C178.552 385.794 179.083 386.013 179.656 386.18C180.234 386.346 180.797 386.43 181.344 386.43C182.016 386.43 182.523 386.286 182.867 386C183.211 385.708 183.383 385.292 183.383 384.75C183.383 384.031 182.904 383.534 181.945 383.258C181.878 383.237 181.688 383.182 181.375 383.094C181.062 383 180.768 382.911 180.492 382.828C180.221 382.74 180.026 382.672 179.906 382.625C178.37 382.083 177.602 381.073 177.602 379.594C177.602 378.557 177.969 377.758 178.703 377.195C179.443 376.633 180.422 376.352 181.641 376.352C183.021 376.352 184.211 376.635 185.211 377.203L184.57 378.75C183.549 378.292 182.602 378.062 181.727 378.062C181.096 378.062 180.62 378.174 180.297 378.398C179.979 378.617 179.81 378.984 179.789 379.5C179.789 380.135 180.104 380.549 180.734 380.742C180.859 380.789 181.167 380.891 181.656 381.047C182.146 381.203 182.464 381.305 182.609 381.352C183.656 381.695 184.404 382.122 184.852 382.633C185.305 383.143 185.531 383.854 185.531 384.766C185.531 385.854 185.146 386.693 184.375 387.281C183.604 387.865 182.565 388.156 181.258 388.156ZM188.812 388L186.211 379.414H188.297L189.945 385.711C189.982 385.591 190.279 384.568 190.836 382.641C191.393 380.714 191.708 379.638 191.781 379.414H193.883C193.951 379.633 194.25 380.698 194.781 382.609C195.312 384.521 195.599 385.547 195.641 385.688L197.336 379.414H199.391L196.703 388H194.664C194.596 387.776 194.279 386.643 193.711 384.602C193.148 382.56 192.844 381.458 192.797 381.297C192.693 381.677 192.359 382.823 191.797 384.734C191.24 386.646 190.917 387.734 190.828 388H188.812ZM202.758 388.164C201.961 388.164 201.315 387.945 200.82 387.508C200.331 387.065 200.086 386.43 200.086 385.602C200.086 384.711 200.378 384.052 200.961 383.625C201.544 383.193 202.424 382.919 203.602 382.805C203.763 382.784 203.938 382.763 204.125 382.742C204.312 382.721 204.523 382.701 204.758 382.68C204.992 382.659 205.177 382.641 205.312 382.625V382.172C205.312 381.651 205.193 381.273 204.953 381.039C204.714 380.799 204.349 380.68 203.859 380.68C203.161 380.68 202.299 380.875 201.273 381.266C201.268 381.25 201.182 381.013 201.016 380.555C200.849 380.096 200.763 379.862 200.758 379.852C201.768 379.419 202.862 379.203 204.039 379.203C205.195 379.203 206.036 379.456 206.562 379.961C207.089 380.461 207.352 381.273 207.352 382.398V388H205.836C205.831 387.979 205.773 387.805 205.664 387.477C205.555 387.148 205.5 386.974 205.5 386.953C205.073 387.37 204.654 387.677 204.242 387.875C203.836 388.068 203.341 388.164 202.758 388.164ZM203.312 386.711C203.786 386.711 204.198 386.599 204.547 386.375C204.901 386.146 205.154 385.87 205.305 385.547V383.891C205.289 383.891 205.151 383.901 204.891 383.922C204.635 383.943 204.497 383.953 204.477 383.953C203.648 384.026 203.042 384.182 202.656 384.422C202.271 384.661 202.078 385.047 202.078 385.578C202.078 385.943 202.185 386.224 202.398 386.422C202.612 386.615 202.917 386.711 203.312 386.711ZM209.414 391.57V379.414H211.172L211.391 380.617C211.672 380.164 212.044 379.815 212.508 379.57C212.977 379.32 213.497 379.195 214.07 379.195C214.773 379.195 215.391 379.391 215.922 379.781C216.458 380.172 216.865 380.706 217.141 381.383C217.417 382.055 217.555 382.815 217.555 383.664C217.555 384.992 217.232 386.076 216.586 386.914C215.945 387.747 215.076 388.164 213.977 388.164C213.435 388.164 212.943 388.057 212.5 387.844C212.062 387.625 211.695 387.331 211.398 386.961C211.44 387.711 211.461 388.133 211.461 388.227V391.469L209.414 391.57ZM213.539 386.602C214.148 386.602 214.628 386.346 214.977 385.836C215.331 385.326 215.508 384.596 215.508 383.648C215.508 382.685 215.331 381.961 214.977 381.477C214.622 380.992 214.13 380.75 213.5 380.75C212.146 380.75 211.461 381.672 211.445 383.516C211.445 384.578 211.62 385.359 211.969 385.859C212.323 386.354 212.846 386.602 213.539 386.602Z" fill="#E6E6E6"/>
</g>
<path d="M95.8047 48V42.3262L90.8535 33.6934H93.7246L97.1328 39.8848L100.561 33.6934H103.393L98.4609 42.2773V48H95.8047ZM108.344 46.2617C109.21 46.2617 109.861 45.946 110.297 45.3145C110.733 44.6829 110.951 43.778 110.951 42.5996C110.951 41.4082 110.733 40.5 110.297 39.875C109.861 39.25 109.203 38.9375 108.324 38.9375C107.458 38.9375 106.804 39.2533 106.361 39.8848C105.925 40.5098 105.707 41.418 105.707 42.6094C105.707 43.7812 105.928 44.6829 106.371 45.3145C106.814 45.946 107.471 46.2617 108.344 46.2617ZM108.275 48.2051C106.687 48.2051 105.437 47.6908 104.525 46.6621C103.614 45.6335 103.158 44.2793 103.158 42.5996C103.158 40.8678 103.614 39.5039 104.525 38.5078C105.437 37.5052 106.723 37.0039 108.383 37.0039C109.984 37.0039 111.238 37.515 112.143 38.5371C113.054 39.5527 113.51 40.9069 113.51 42.5996C113.51 44.3118 113.051 45.6758 112.133 46.6914C111.215 47.7005 109.929 48.2051 108.275 48.2051ZM123.344 47.1602C122.491 47.8568 121.368 48.2051 119.975 48.2051C118.581 48.2051 117.458 47.8568 116.605 47.1602C115.759 46.4635 115.336 45.4414 115.336 44.0938V37.2676H117.904V43.9961C117.904 44.7969 118.07 45.3763 118.402 45.7344C118.741 46.0924 119.275 46.2715 120.004 46.2715C120.72 46.2715 121.241 46.0957 121.566 45.7441C121.898 45.3861 122.064 44.8034 122.064 43.9961V37.2676H124.623V44.0938C124.623 45.4349 124.197 46.457 123.344 47.1602ZM126.977 48V37.2676H129.125L129.457 38.9082C130.16 37.7819 131.179 37.2188 132.514 37.2188C132.794 37.2188 133.021 37.2318 133.197 37.2578L133.158 39.3965C132.898 39.3574 132.628 39.3379 132.348 39.3379C131.404 39.3379 130.697 39.5885 130.229 40.0898C129.766 40.5911 129.535 41.2878 129.535 42.1797V48H126.977ZM142.885 48.2051C141.889 48.2051 141.081 47.9316 140.463 47.3848C139.851 46.8314 139.545 46.0371 139.545 45.002C139.545 43.8887 139.91 43.0651 140.639 42.5312C141.368 41.9909 142.468 41.6491 143.939 41.5059C144.141 41.4798 144.359 41.4538 144.594 41.4277C144.828 41.4017 145.092 41.3757 145.385 41.3496C145.678 41.3236 145.909 41.3008 146.078 41.2812V40.7148C146.078 40.0638 145.928 39.5918 145.629 39.2988C145.329 38.9993 144.874 38.8496 144.262 38.8496C143.389 38.8496 142.312 39.0938 141.029 39.582C141.023 39.5625 140.915 39.2663 140.707 38.6934C140.499 38.1204 140.391 37.8275 140.385 37.8145C141.648 37.2741 143.015 37.0039 144.486 37.0039C145.932 37.0039 146.983 37.3197 147.641 37.9512C148.298 38.5762 148.627 39.5918 148.627 40.998V48H146.732C146.726 47.974 146.654 47.7559 146.518 47.3457C146.381 46.9355 146.312 46.7174 146.312 46.6914C145.779 47.2122 145.255 47.5964 144.74 47.8438C144.232 48.0846 143.614 48.2051 142.885 48.2051ZM143.578 46.3887C144.171 46.3887 144.685 46.2487 145.121 45.9688C145.564 45.6823 145.88 45.3372 146.068 44.9336V42.8633C146.049 42.8633 145.876 42.8763 145.551 42.9023C145.232 42.9284 145.059 42.9414 145.033 42.9414C143.998 43.0326 143.24 43.2279 142.758 43.5273C142.276 43.8268 142.035 44.3086 142.035 44.9727C142.035 45.4284 142.169 45.7799 142.436 46.0273C142.702 46.2682 143.083 46.3887 143.578 46.3887ZM155.902 48.2051C154.262 48.2051 152.982 47.7168 152.064 46.7402C151.153 45.7637 150.697 44.3672 150.697 42.5508C150.697 40.793 151.176 39.429 152.133 38.459C153.096 37.4889 154.363 37.0039 155.932 37.0039C157.188 37.0039 158.249 37.2741 159.115 37.8145L158.51 39.6406C157.624 39.1784 156.801 38.9473 156.039 38.9473C155.173 38.9473 154.49 39.2565 153.988 39.875C153.493 40.4935 153.246 41.3952 153.246 42.5801C153.246 43.778 153.49 44.6895 153.979 45.3145C154.473 45.9395 155.17 46.252 156.068 46.252C157.006 46.252 157.908 45.9753 158.773 45.4219L159.018 47.3652C158.568 47.6647 158.103 47.8796 157.621 48.0098C157.139 48.14 156.566 48.2051 155.902 48.2051ZM165.336 48.1465C164.607 48.1465 163.998 48.0618 163.51 47.8926C163.028 47.7168 162.65 47.4434 162.377 47.0723C162.104 46.7012 161.908 46.265 161.791 45.7637C161.68 45.2559 161.625 44.6309 161.625 43.8887V38.8203H159.867L159.965 37.4336L161.801 37.2676L162.621 34.3574L164.184 34.3477V37.2676H166.85V38.8203H164.184V43.9375C164.184 44.7513 164.301 45.3307 164.535 45.6758C164.77 46.0208 165.202 46.1934 165.834 46.1934C166.205 46.1934 166.602 46.1608 167.025 46.0957L167.094 47.9316C167.081 47.9316 166.999 47.9479 166.85 47.9805C166.706 48.0065 166.566 48.0293 166.43 48.0488C166.299 48.0749 166.13 48.0977 165.922 48.1172C165.714 48.1367 165.518 48.1465 165.336 48.1465ZM168.959 48V37.2676H171.518V48H168.959ZM168.959 35.7051V33.5176H171.527V35.7051H168.959ZM177.201 48L172.924 37.2676H175.639C175.743 37.5605 176.072 38.472 176.625 40.002C177.185 41.5254 177.556 42.5638 177.738 43.1172C178.109 44.1979 178.376 45.015 178.539 45.5684C178.539 45.5618 178.594 45.3503 178.705 44.9336C178.816 44.5169 178.92 44.1263 179.018 43.7617C179.122 43.3906 179.187 43.166 179.213 43.0879C179.219 43.0749 179.516 42.1764 180.102 40.3926C180.694 38.6087 181.046 37.5671 181.156 37.2676H183.852L179.789 48H177.201ZM190.072 48.2051C188.347 48.2051 187.003 47.7103 186.039 46.7207C185.082 45.7246 184.604 44.3509 184.604 42.5996C184.604 40.8939 185.056 39.5365 185.961 38.5273C186.866 37.5182 188.1 37.0104 189.662 37.0039C191.14 37.0039 192.286 37.4661 193.1 38.3906C193.92 39.3151 194.33 40.5423 194.33 42.0723C194.33 42.1829 194.327 42.362 194.32 42.6094C194.32 42.8568 194.32 43.0391 194.32 43.1562H187.182C187.208 44.1589 187.481 44.9368 188.002 45.4902C188.529 46.0371 189.252 46.3105 190.17 46.3105C191.342 46.3105 192.468 46.0046 193.549 45.3926L193.91 47.209C192.836 47.873 191.557 48.2051 190.072 48.2051ZM187.23 41.5449H191.918C191.918 40.6725 191.719 40.002 191.322 39.5332C190.925 39.0645 190.375 38.8301 189.672 38.8301C189.014 38.8301 188.458 39.0579 188.002 39.5137C187.553 39.9694 187.296 40.6465 187.23 41.5449ZM201.713 48V33.3125L204.271 33.1465V36.2422C204.271 36.3919 204.262 36.8086 204.242 37.4922C204.223 38.1693 204.213 38.5143 204.213 38.5273C205.066 37.5117 206.212 37.0039 207.65 37.0039C208.848 37.0039 209.776 37.349 210.434 38.0391C211.098 38.7227 211.43 39.7773 211.43 41.2031V48H208.871V41.4863C208.871 40.6074 208.731 39.9629 208.451 39.5527C208.171 39.1426 207.696 38.9375 207.025 38.9375C206.452 38.9375 205.945 39.084 205.502 39.377C205.059 39.6634 204.727 40.0345 204.506 40.4902C204.35 41.0892 204.271 41.8704 204.271 42.834V48H201.713ZM218.92 48.2051C217.195 48.2051 215.85 47.7103 214.887 46.7207C213.93 45.7246 213.451 44.3509 213.451 42.5996C213.451 40.8939 213.904 39.5365 214.809 38.5273C215.714 37.5182 216.947 37.0104 218.51 37.0039C219.988 37.0039 221.133 37.4661 221.947 38.3906C222.768 39.3151 223.178 40.5423 223.178 42.0723C223.178 42.1829 223.174 42.362 223.168 42.6094C223.168 42.8568 223.168 43.0391 223.168 43.1562H216.029C216.055 44.1589 216.329 44.9368 216.85 45.4902C217.377 46.0371 218.1 46.3105 219.018 46.3105C220.189 46.3105 221.316 46.0046 222.396 45.3926L222.758 47.209C221.684 47.873 220.404 48.2051 218.92 48.2051ZM216.078 41.5449H220.766C220.766 40.6725 220.567 40.002 220.17 39.5332C219.773 39.0645 219.223 38.8301 218.52 38.8301C217.862 38.8301 217.305 39.0579 216.85 39.5137C216.4 39.9694 216.143 40.6465 216.078 41.5449ZM229.262 48.2051C227.862 48.2051 226.762 47.6908 225.961 46.6621C225.16 45.6335 224.76 44.2598 224.76 42.541C224.76 40.8743 225.157 39.5365 225.951 38.5273C226.752 37.5117 227.852 37.0039 229.252 37.0039C230.775 37.0039 231.853 37.5443 232.484 38.625C232.419 37.987 232.387 37.3717 232.387 36.7793V33.3125L234.945 33.1465V48H232.729L232.445 46.5352C232.335 46.7109 232.23 46.8639 232.133 46.9941C232.042 47.1178 231.905 47.2643 231.723 47.4336C231.54 47.5964 231.342 47.7298 231.127 47.834C230.919 47.9316 230.652 48.0163 230.326 48.0879C230.007 48.166 229.652 48.2051 229.262 48.2051ZM229.867 46.2617C231.586 46.2617 232.458 45.0931 232.484 42.7559C232.484 41.4342 232.263 40.4707 231.82 39.8652C231.378 39.2598 230.717 38.957 229.838 38.957C229.07 38.957 228.454 39.2663 227.992 39.8848C227.536 40.4967 227.309 41.4017 227.309 42.5996C227.309 43.791 227.536 44.6992 227.992 45.3242C228.454 45.9492 229.079 46.2617 229.867 46.2617ZM239.721 52.8047L239.574 50.7344H240.873C242.377 50.7344 243.428 50.5326 244.027 50.1289C244.626 49.7318 244.926 48.9993 244.926 47.9316C244.926 47.4954 244.906 47.0234 244.867 46.5156C244.698 46.75 244.535 46.9453 244.379 47.1016C244.229 47.2513 244.037 47.401 243.803 47.5508C243.575 47.7005 243.298 47.8145 242.973 47.8926C242.654 47.9642 242.289 48 241.879 48C240.46 48 239.291 47.4889 238.373 46.4668C237.462 45.4447 237.006 44.1263 237.006 42.5117C237.006 41.6523 237.133 40.8711 237.387 40.168C237.641 39.4583 237.986 38.8757 238.422 38.4199C238.858 37.9642 239.359 37.6159 239.926 37.375C240.499 37.1276 241.107 37.0039 241.752 37.0039C243.191 37.0039 244.262 37.528 244.965 38.5762L245.141 37.2676H247.426V47.2383C247.426 47.7721 247.4 48.2507 247.348 48.6738C247.296 49.1035 247.204 49.5137 247.074 49.9043C246.944 50.3014 246.771 50.6465 246.557 50.9395C246.348 51.2324 246.085 51.4993 245.766 51.7402C245.447 51.9811 245.069 52.1764 244.633 52.3262C244.203 52.4824 243.702 52.5996 243.129 52.6777C242.556 52.7624 241.911 52.8047 241.195 52.8047H239.721ZM242.289 46.2129C244.053 46.2129 244.945 45.0312 244.965 42.668V42.2969C244.952 41.2357 244.73 40.4154 244.301 39.8359C243.871 39.2565 243.243 38.9635 242.416 38.957C241.479 38.957 240.769 39.2793 240.287 39.9238C239.805 40.5618 239.564 41.4245 239.564 42.5117C239.564 43.5599 239.805 44.4388 240.287 45.1484C240.775 45.8581 241.443 46.2129 242.289 46.2129ZM254.916 48.2051C253.191 48.2051 251.846 47.7103 250.883 46.7207C249.926 45.7246 249.447 44.3509 249.447 42.5996C249.447 40.8939 249.9 39.5365 250.805 38.5273C251.71 37.5182 252.943 37.0104 254.506 37.0039C255.984 37.0039 257.13 37.4661 257.943 38.3906C258.764 39.3151 259.174 40.5423 259.174 42.0723C259.174 42.1829 259.171 42.362 259.164 42.6094C259.164 42.8568 259.164 43.0391 259.164 43.1562H252.025C252.051 44.1589 252.325 44.9368 252.846 45.4902C253.373 46.0371 254.096 46.3105 255.014 46.3105C256.186 46.3105 257.312 46.0046 258.393 45.3926L258.754 47.209C257.68 47.873 256.4 48.2051 254.916 48.2051ZM252.074 41.5449H256.762C256.762 40.6725 256.563 40.002 256.166 39.5332C255.769 39.0645 255.219 38.8301 254.516 38.8301C253.858 38.8301 253.301 39.0579 252.846 39.5137C252.396 39.9694 252.139 40.6465 252.074 41.5449ZM264.691 48.1953C263.109 48.1953 261.843 47.9251 260.893 47.3848L261.156 45.4609C261.586 45.6953 262.133 45.9069 262.797 46.0957C263.461 46.278 264.066 46.3691 264.613 46.3691C265.18 46.3691 265.619 46.265 265.932 46.0566C266.251 45.8418 266.413 45.5293 266.42 45.1191C266.42 44.748 266.27 44.4551 265.971 44.2402C265.678 44.0254 265.115 43.7585 264.281 43.4395C263.995 43.3353 263.809 43.2669 263.725 43.2344C262.735 42.8503 262.022 42.4238 261.586 41.9551C261.15 41.4798 260.932 40.8385 260.932 40.0312C260.932 39.0547 261.283 38.306 261.986 37.7852C262.696 37.2643 263.682 37.0039 264.945 37.0039C266.312 37.0039 267.514 37.2611 268.549 37.7754L267.914 39.543C266.892 39.0677 265.919 38.8301 264.994 38.8301C264.48 38.8301 264.076 38.918 263.783 39.0938C263.497 39.263 263.354 39.5234 263.354 39.875C263.354 40.207 263.493 40.4674 263.773 40.6562C264.053 40.8385 264.6 41.0794 265.414 41.3789C265.44 41.3854 265.525 41.4147 265.668 41.4668C265.811 41.5189 265.922 41.5612 266 41.5938C266.983 41.9518 267.706 42.3815 268.168 42.8828C268.63 43.3776 268.861 44.0254 268.861 44.8262C268.855 45.9004 268.49 46.7305 267.768 47.3164C267.045 47.9023 266.02 48.1953 264.691 48.1953Z" fill="#E6E6E6"/>
<g filter="url(#filter1_i)">
<path d="M316 76H44C39.5817 76 36 79.5817 36 84V328C36 332.418 39.5817 336 44 336H316C320.418 336 324 332.418 324 328V84C324 79.5817 320.418 76 316 76Z" fill="#1F1F1F"/>
</g>
<g filter="url(#filter2_d)">
<path d="M304 88H56C51.5817 88 48 91.5817 48 96V316C48 320.418 51.5817 324 56 324H304C308.418 324 312 320.418 312 316V96C312 91.5817 308.418 88 304 88Z" fill="#333333"/>
<g filter="url(#filter3_d)">
<path d="M64 268C64 263.582 67.5817 260 72 260H288C292.418 260 296 263.582 296 268V300C296 304.418 292.418 308 288 308H72C67.5817 308 64 304.418 64 300V268Z" fill="url(#paint2_linear)"/>
<path d="M153.58 290V279.985H159.65L159.575 281.455H155.433V284.039H159.37V285.509H155.433V288.523H159.726L159.664 290H153.58ZM160.519 290L163.191 286.151L160.648 282.487H162.679L164.347 285.044L166.062 282.487H168.059L165.495 286.145L168.147 290H166.097L164.347 287.272L162.542 290H160.519ZM172.604 290.144C171.397 290.144 170.456 289.797 169.781 289.104C169.111 288.407 168.776 287.446 168.776 286.22C168.776 285.026 169.093 284.076 169.727 283.369C170.36 282.663 171.224 282.307 172.317 282.303C173.352 282.303 174.154 282.626 174.724 283.273C175.298 283.921 175.585 284.78 175.585 285.851C175.585 285.928 175.583 286.053 175.578 286.227C175.578 286.4 175.578 286.527 175.578 286.609H170.581C170.599 287.311 170.791 287.856 171.155 288.243C171.524 288.626 172.03 288.817 172.673 288.817C173.493 288.817 174.282 288.603 175.038 288.175L175.291 289.446C174.539 289.911 173.644 290.144 172.604 290.144ZM170.615 285.481H173.896C173.896 284.871 173.757 284.401 173.479 284.073C173.201 283.745 172.816 283.581 172.324 283.581C171.864 283.581 171.474 283.741 171.155 284.06C170.841 284.379 170.661 284.853 170.615 285.481ZM177.055 290V282.487H178.559L178.791 283.636C179.283 282.847 179.996 282.453 180.931 282.453C181.127 282.453 181.286 282.462 181.409 282.48L181.382 283.978C181.2 283.95 181.01 283.937 180.814 283.937C180.154 283.937 179.659 284.112 179.331 284.463C179.007 284.814 178.846 285.301 178.846 285.926V290H177.055ZM185.723 290.144C184.574 290.144 183.679 289.802 183.036 289.118C182.398 288.435 182.079 287.457 182.079 286.186C182.079 284.955 182.414 284 183.084 283.321C183.758 282.642 184.645 282.303 185.743 282.303C186.623 282.303 187.366 282.492 187.972 282.87L187.548 284.148C186.928 283.825 186.352 283.663 185.818 283.663C185.212 283.663 184.734 283.88 184.383 284.312C184.036 284.745 183.863 285.377 183.863 286.206C183.863 287.045 184.034 287.683 184.376 288.12C184.722 288.558 185.21 288.776 185.839 288.776C186.495 288.776 187.126 288.583 187.732 288.195L187.903 289.556C187.589 289.765 187.263 289.916 186.926 290.007C186.589 290.098 186.188 290.144 185.723 290.144ZM189.366 290V282.487H191.157V290H189.366ZM189.366 281.394V279.862H191.164V281.394H189.366ZM195.43 290.137C194.322 290.137 193.436 289.948 192.771 289.569L192.955 288.223C193.256 288.387 193.639 288.535 194.104 288.667C194.568 288.795 194.992 288.858 195.375 288.858C195.771 288.858 196.079 288.785 196.298 288.64C196.521 288.489 196.635 288.271 196.64 287.983C196.64 287.724 196.535 287.519 196.325 287.368C196.12 287.218 195.726 287.031 195.143 286.808C194.942 286.735 194.812 286.687 194.753 286.664C194.06 286.395 193.561 286.097 193.256 285.769C192.951 285.436 192.798 284.987 192.798 284.422C192.798 283.738 193.044 283.214 193.536 282.85C194.033 282.485 194.723 282.303 195.607 282.303C196.564 282.303 197.405 282.483 198.13 282.843L197.686 284.08C196.97 283.747 196.289 283.581 195.642 283.581C195.282 283.581 194.999 283.643 194.794 283.766C194.593 283.884 194.493 284.066 194.493 284.312C194.493 284.545 194.591 284.727 194.787 284.859C194.983 284.987 195.366 285.156 195.936 285.365C195.954 285.37 196.013 285.39 196.113 285.427C196.214 285.463 196.291 285.493 196.346 285.516C197.034 285.766 197.54 286.067 197.863 286.418C198.187 286.764 198.349 287.218 198.349 287.778C198.344 288.53 198.089 289.111 197.583 289.521C197.077 289.932 196.359 290.137 195.43 290.137ZM203.243 290.144C202.035 290.144 201.094 289.797 200.42 289.104C199.75 288.407 199.415 287.446 199.415 286.22C199.415 285.026 199.732 284.076 200.365 283.369C200.999 282.663 201.862 282.307 202.956 282.303C203.991 282.303 204.793 282.626 205.362 283.273C205.937 283.921 206.224 284.78 206.224 285.851C206.224 285.928 206.221 286.053 206.217 286.227C206.217 286.4 206.217 286.527 206.217 286.609H201.22C201.238 287.311 201.429 287.856 201.794 288.243C202.163 288.626 202.669 288.817 203.312 288.817C204.132 288.817 204.92 288.603 205.677 288.175L205.93 289.446C205.178 289.911 204.282 290.144 203.243 290.144ZM201.254 285.481H204.535C204.535 284.871 204.396 284.401 204.118 284.073C203.84 283.745 203.455 283.581 202.963 283.581C202.503 283.581 202.113 283.741 201.794 284.06C201.479 284.379 201.299 284.853 201.254 285.481Z" fill="#E6E6E6"/>
</g>
<path d="M107 104.5H68C66.067 104.5 64.5 106.067 64.5 108V124C64.5 125.933 66.067 127.5 68 127.5H107C108.933 127.5 110.5 125.933 110.5 124V108C110.5 106.067 108.933 104.5 107 104.5Z" stroke="#5998F8"/>
<g filter="url(#filter4_d)">
<path d="M73.5781 122V110.523H77.3906C78.2917 110.523 79.0625 110.641 79.7031 110.875C80.3438 111.104 80.849 111.479 81.2188 112C81.5938 112.521 81.7812 113.174 81.7812 113.961C81.7812 114.508 81.7109 114.995 81.5703 115.422C81.4297 115.844 81.1979 116.229 80.875 116.578C80.5521 116.922 80.0964 117.188 79.5078 117.375C78.9245 117.562 78.2188 117.656 77.3906 117.656C76.6823 117.656 76.1068 117.635 75.6641 117.594V122H73.5781ZM77.1641 116.125C77.5964 116.125 77.9714 116.083 78.2891 116C78.612 115.917 78.862 115.81 79.0391 115.68C79.2214 115.549 79.3646 115.388 79.4688 115.195C79.5781 115.003 79.6484 114.818 79.6797 114.641C79.7161 114.458 79.7344 114.255 79.7344 114.031C79.7344 113.401 79.5312 112.922 79.125 112.594C78.7188 112.266 78.1458 112.102 77.4062 112.102H75.6641V116.109C75.7266 116.12 76.2266 116.125 77.1641 116.125ZM87.8359 122.164C86.3359 122.164 85.1979 121.792 84.4219 121.047C83.6458 120.297 83.2578 119.242 83.2578 117.883V110.555H85.3828V117.703C85.3828 118.656 85.5755 119.352 85.9609 119.789C86.3516 120.227 86.9896 120.445 87.875 120.445C88.7448 120.445 89.375 120.227 89.7656 119.789C90.1562 119.346 90.3516 118.648 90.3516 117.695V110.555H92.4688V117.898C92.4688 119.247 92.0729 120.297 91.2812 121.047C90.4896 121.792 89.3411 122.164 87.8359 122.164ZM97.0469 122V112.25H93.7109V110.555H102.492V112.25H99.1719V122H97.0469Z" fill="#5998F8"/>
</g>
<path d="M130.359 123.99V112.086C130.268 112.145 129.845 112.333 129.09 112.652C128.341 112.965 127.918 113.134 127.82 113.16V111.207C127.977 111.135 128.471 110.891 129.305 110.475C130.138 110.051 130.597 109.811 130.682 109.752H132.83V123.99H130.359ZM140.936 124V109.693H149.607L149.5 111.793H143.582V115.484H149.207V117.584H143.582V121.891H149.715L149.627 124H140.936ZM154.949 124V111.812H150.779V109.693H161.756V111.812H157.605V124H154.949ZM163.299 124V109.693H165.945V115.543H172.41V109.693H175.057V124H172.41V117.633H165.945V124H163.299Z" fill="#E4E4E4"/>
<path d="M67.3594 162.117C66.3242 162.117 65.3965 161.879 64.5762 161.402L64.9629 160.143C65.3301 160.346 65.7285 160.51 66.1582 160.635C66.5918 160.76 67.0137 160.822 67.4238 160.822C67.9277 160.822 68.3086 160.715 68.5664 160.5C68.8242 160.281 68.9531 159.969 68.9531 159.562C68.9531 159.023 68.5938 158.65 67.875 158.443C67.8242 158.428 67.6816 158.387 67.4473 158.32C67.2129 158.25 66.9922 158.184 66.7852 158.121C66.582 158.055 66.4355 158.004 66.3457 157.969C65.1934 157.562 64.6172 156.805 64.6172 155.695C64.6172 154.918 64.8926 154.318 65.4434 153.896C65.998 153.475 66.7324 153.264 67.6465 153.264C68.6816 153.264 69.5742 153.477 70.3242 153.902L69.8438 155.062C69.0781 154.719 68.3672 154.547 67.7109 154.547C67.2383 154.547 66.8809 154.631 66.6387 154.799C66.4004 154.963 66.2734 155.238 66.2578 155.625C66.2578 156.102 66.4941 156.412 66.9668 156.557C67.0605 156.592 67.291 156.668 67.6582 156.785C68.0254 156.902 68.2637 156.979 68.373 157.014C69.1582 157.271 69.7188 157.592 70.0547 157.975C70.3945 158.357 70.5645 158.891 70.5645 159.574C70.5645 160.391 70.2754 161.02 69.6973 161.461C69.1191 161.898 68.3398 162.117 67.3594 162.117ZM74.3496 162.088C73.9121 162.088 73.5469 162.037 73.2539 161.936C72.9648 161.83 72.7383 161.666 72.5742 161.443C72.4102 161.221 72.293 160.959 72.2227 160.658C72.1562 160.354 72.123 159.979 72.123 159.533V156.492H71.0684L71.127 155.66L72.2285 155.561L72.7207 153.814L73.6582 153.809V155.561H75.2578V156.492H73.6582V159.562C73.6582 160.051 73.7285 160.398 73.8691 160.605C74.0098 160.812 74.2695 160.916 74.6484 160.916C74.8711 160.916 75.1094 160.896 75.3633 160.857L75.4043 161.959C75.3965 161.959 75.3477 161.969 75.2578 161.988C75.1719 162.004 75.0879 162.018 75.0059 162.029C74.9277 162.045 74.8262 162.059 74.7012 162.07C74.5762 162.082 74.459 162.088 74.3496 162.088ZM76.4941 162V155.561H77.7832L77.9824 156.545C78.4043 155.869 79.0156 155.531 79.8164 155.531C79.9844 155.531 80.1211 155.539 80.2266 155.555L80.2031 156.838C80.0469 156.814 79.8848 156.803 79.7168 156.803C79.1504 156.803 78.7266 156.953 78.4453 157.254C78.168 157.555 78.0293 157.973 78.0293 158.508V162H76.4941ZM81.1992 162V155.561H82.7344V162H81.1992ZM81.1992 154.623V153.311H82.7402V154.623H81.1992ZM84.3398 162V153.188L85.875 153.088V157.043L85.8398 158.344C85.8438 158.34 85.8828 158.301 85.957 158.227C86.0352 158.152 86.0781 158.111 86.0859 158.104C86.3008 157.85 86.5332 157.588 86.7832 157.318C87.0371 157.049 87.3555 156.719 87.7383 156.328C88.125 155.938 88.377 155.682 88.4941 155.561H90.3223L87.6738 158.303L90.4922 162H88.6348L86.5137 159.076L85.875 159.58V162H84.3398ZM93.9727 162.123C92.9375 162.123 92.1309 161.826 91.5527 161.232C90.9785 160.635 90.6914 159.811 90.6914 158.76C90.6914 157.736 90.9629 156.922 91.5059 156.316C92.0488 155.711 92.7891 155.406 93.7266 155.402C94.6133 155.402 95.3008 155.68 95.7891 156.234C96.2812 156.789 96.5273 157.525 96.5273 158.443C96.5273 158.51 96.5254 158.617 96.5215 158.766C96.5215 158.914 96.5215 159.023 96.5215 159.094H92.2383C92.2539 159.695 92.418 160.162 92.7305 160.494C93.0469 160.822 93.4805 160.986 94.0312 160.986C94.7344 160.986 95.4102 160.803 96.0586 160.436L96.2754 161.525C95.6309 161.924 94.8633 162.123 93.9727 162.123ZM92.2676 158.127H95.0801C95.0801 157.604 94.9609 157.201 94.7227 156.92C94.4844 156.639 94.1543 156.498 93.7324 156.498C93.3379 156.498 93.0039 156.635 92.7305 156.908C92.4609 157.182 92.3066 157.588 92.2676 158.127ZM101.062 162V153.393H103.922C104.598 153.393 105.176 153.48 105.656 153.656C106.137 153.828 106.516 154.109 106.793 154.5C107.074 154.891 107.215 155.381 107.215 155.971C107.215 156.381 107.162 156.746 107.057 157.066C106.951 157.383 106.777 157.672 106.535 157.934C106.293 158.191 105.951 158.391 105.51 158.531C105.072 158.672 104.543 158.742 103.922 158.742C103.391 158.742 102.959 158.727 102.627 158.695V162H101.062ZM103.752 157.594C104.076 157.594 104.357 157.562 104.596 157.5C104.838 157.438 105.025 157.357 105.158 157.26C105.295 157.162 105.402 157.041 105.48 156.896C105.562 156.752 105.615 156.613 105.639 156.48C105.666 156.344 105.68 156.191 105.68 156.023C105.68 155.551 105.527 155.191 105.223 154.945C104.918 154.699 104.488 154.576 103.934 154.576H102.627V157.582C102.674 157.59 103.049 157.594 103.752 157.594ZM108.264 162V155.561H109.553L109.752 156.545C110.174 155.869 110.785 155.531 111.586 155.531C111.754 155.531 111.891 155.539 111.996 155.555L111.973 156.838C111.816 156.814 111.654 156.803 111.486 156.803C110.92 156.803 110.496 156.953 110.215 157.254C109.937 157.555 109.799 157.973 109.799 158.508V162H108.264ZM112.969 162V155.561H114.504V162H112.969ZM112.969 154.623V153.311H114.51V154.623H112.969ZM118.928 162.123C117.943 162.123 117.176 161.83 116.625 161.244C116.078 160.658 115.805 159.82 115.805 158.73C115.805 157.676 116.092 156.857 116.666 156.275C117.244 155.693 118.004 155.402 118.945 155.402C119.699 155.402 120.336 155.564 120.855 155.889L120.492 156.984C119.961 156.707 119.467 156.568 119.01 156.568C118.49 156.568 118.08 156.754 117.779 157.125C117.482 157.496 117.334 158.037 117.334 158.748C117.334 159.467 117.48 160.014 117.773 160.389C118.07 160.764 118.488 160.951 119.027 160.951C119.59 160.951 120.131 160.785 120.65 160.453L120.797 161.619C120.527 161.799 120.248 161.928 119.959 162.006C119.67 162.084 119.326 162.123 118.928 162.123ZM124.945 162.123C123.91 162.123 123.104 161.826 122.525 161.232C121.951 160.635 121.664 159.811 121.664 158.76C121.664 157.736 121.936 156.922 122.479 156.316C123.021 155.711 123.762 155.406 124.699 155.402C125.586 155.402 126.273 155.68 126.762 156.234C127.254 156.789 127.5 157.525 127.5 158.443C127.5 158.51 127.498 158.617 127.494 158.766C127.494 158.914 127.494 159.023 127.494 159.094H123.211C123.227 159.695 123.391 160.162 123.703 160.494C124.02 160.822 124.453 160.986 125.004 160.986C125.707 160.986 126.383 160.803 127.031 160.436L127.248 161.525C126.604 161.924 125.836 162.123 124.945 162.123ZM123.24 158.127H126.053C126.053 157.604 125.934 157.201 125.695 156.92C125.457 156.639 125.127 156.498 124.705 156.498C124.311 156.498 123.977 156.635 123.703 156.908C123.434 157.182 123.279 157.588 123.24 158.127Z" fill="white"/>
<path d="M67.791 174.08H68.3477V175.064C69.3438 175.096 70.1523 175.305 70.7734 175.691L70.4805 176.518C70.2422 176.385 69.9277 176.266 69.5371 176.16C69.1504 176.051 68.7539 175.986 68.3477 175.967V178.943L68.957 179.09C69.6602 179.258 70.1934 179.527 70.5566 179.898C70.9199 180.266 71.1016 180.789 71.1016 181.469C71.1016 182.309 70.8555 182.951 70.3633 183.396C69.875 183.842 69.2031 184.086 68.3477 184.129V185.143H67.791V184.129C67.166 184.109 66.6074 184.031 66.1152 183.895C65.627 183.754 65.2363 183.594 64.9434 183.414L65.248 182.57C66.0371 182.957 66.8848 183.176 67.791 183.227V179.828L66.9297 179.611C65.6133 179.279 64.9551 178.576 64.9551 177.502C64.9551 176.732 65.2051 176.148 65.7051 175.75C66.2051 175.348 66.9004 175.123 67.791 175.076V174.08ZM67.791 178.809V175.973C66.6035 176.043 66.0098 176.529 66.0098 177.432C66.0098 177.764 66.1172 178.031 66.332 178.234C66.5508 178.434 66.877 178.586 67.3105 178.691L67.791 178.809ZM68.3477 179.969V183.232C69.4844 183.174 70.0527 182.598 70.0527 181.504C70.0527 181.129 69.9512 180.826 69.748 180.596C69.5488 180.361 69.1836 180.178 68.6523 180.045L68.3477 179.969ZM77.5527 175.234L77.4707 176.195H73.8906C73.8516 177.332 73.8223 178.252 73.8027 178.955C74.2441 178.674 74.7227 178.533 75.2383 178.533C75.6719 178.533 76.0586 178.604 76.3984 178.744C76.7422 178.881 77.0215 179.07 77.2363 179.312C77.4551 179.555 77.6211 179.838 77.7344 180.162C77.8477 180.482 77.9043 180.83 77.9043 181.205C77.9043 182.092 77.6191 182.803 77.0488 183.338C76.4824 183.869 75.7109 184.135 74.7344 184.135C73.7539 184.135 72.9688 183.867 72.3789 183.332L72.7598 182.506C73.3379 182.959 74.0078 183.186 74.7695 183.186C75.4102 183.186 75.916 183.004 76.2871 182.641C76.6582 182.277 76.8438 181.803 76.8438 181.217C76.8438 180.693 76.6875 180.27 76.375 179.945C76.0625 179.617 75.6172 179.453 75.0391 179.453C74.4609 179.453 73.9961 179.646 73.6445 180.033L72.8301 179.922L73.0586 175.234H77.5527ZM79.2344 184L79.0996 183.039L82.1289 179.676C82.332 179.449 82.5273 179.156 82.7148 178.797C82.9062 178.438 83.0449 178.133 83.1309 177.883L83.2656 177.514C83.2656 177.029 83.1309 176.654 82.8613 176.389C82.5918 176.119 82.209 175.984 81.7129 175.984C80.8848 175.984 80.2324 176.225 79.7559 176.705L79.416 175.826C79.9551 175.318 80.7441 175.064 81.7832 175.064C82.5801 175.064 83.2148 175.281 83.6875 175.715C84.1602 176.145 84.3965 176.721 84.3965 177.443C84.3809 177.498 84.3574 177.572 84.3262 177.666C84.2949 177.756 84.2266 177.934 84.1211 178.199C84.0195 178.465 83.9121 178.717 83.7988 178.955C83.6855 179.193 83.541 179.455 83.3652 179.74C83.1934 180.025 83.0176 180.264 82.8379 180.455L80.3652 183.098H84.4258L84.3613 184H79.2344ZM85.7734 184L85.6387 183.039L88.668 179.676C88.8711 179.449 89.0664 179.156 89.2539 178.797C89.4453 178.438 89.584 178.133 89.6699 177.883L89.8047 177.514C89.8047 177.029 89.6699 176.654 89.4004 176.389C89.1309 176.119 88.748 175.984 88.252 175.984C87.4238 175.984 86.7715 176.225 86.2949 176.705L85.9551 175.826C86.4941 175.318 87.2832 175.064 88.3223 175.064C89.1191 175.064 89.7539 175.281 90.2266 175.715C90.6992 176.145 90.9355 176.721 90.9355 177.443C90.9199 177.498 90.8965 177.572 90.8652 177.666C90.834 177.756 90.7656 177.934 90.6602 178.199C90.5586 178.465 90.4512 178.717 90.3379 178.955C90.2246 179.193 90.0801 179.455 89.9043 179.74C89.7324 180.025 89.5566 180.264 89.377 180.455L86.9043 183.098H90.9648L90.9004 184H85.7734ZM93.1797 184.07C92.9375 184.07 92.7461 183.994 92.6055 183.842C92.4688 183.686 92.4004 183.504 92.4004 183.297C92.4004 183.086 92.4688 182.904 92.6055 182.752C92.7422 182.6 92.9336 182.523 93.1797 182.523C93.4258 182.523 93.6172 182.6 93.7539 182.752C93.8906 182.904 93.959 183.086 93.959 183.297C93.959 183.508 93.8906 183.689 93.7539 183.842C93.6172 183.994 93.4258 184.07 93.1797 184.07ZM98.2773 178.604C98.7695 178.604 99.2246 178.721 99.6426 178.955C100.061 179.186 100.397 179.516 100.65 179.945C100.904 180.371 101.031 180.846 101.031 181.369C101.031 182.166 100.762 182.826 100.223 183.35C99.6875 183.873 98.9805 184.135 98.1016 184.135C97.6445 184.135 97.2266 184.059 96.8477 183.906C96.4727 183.75 96.1621 183.541 95.916 183.279C95.6738 183.014 95.4844 182.707 95.3477 182.359C95.2148 182.008 95.1484 181.633 95.1484 181.234C95.1484 180.598 95.2637 180.029 95.4941 179.529C95.7285 179.025 96.1504 178.389 96.7598 177.619C96.9082 177.432 97.1426 177.143 97.4629 176.752C97.7832 176.361 98.0684 176.018 98.3184 175.721L98.6875 175.275H100.041L96.959 178.955C97.4004 178.721 97.8398 178.604 98.2773 178.604ZM96.2559 181.346C96.2559 181.693 96.3203 182.008 96.4492 182.289C96.582 182.57 96.7871 182.801 97.0645 182.98C97.3457 183.156 97.6797 183.244 98.0664 183.244C98.6445 183.244 99.0977 183.066 99.4258 182.711C99.7578 182.355 99.9238 181.914 99.9238 181.387C99.9238 180.832 99.7578 180.377 99.4258 180.021C99.0977 179.662 98.6445 179.482 98.0664 179.482C97.4531 179.482 96.998 179.656 96.7012 180.004C96.4043 180.352 96.2559 180.799 96.2559 181.346ZM105.309 178.604C105.801 178.604 106.256 178.721 106.674 178.955C107.092 179.186 107.428 179.516 107.682 179.945C107.936 180.371 108.063 180.846 108.063 181.369C108.063 182.166 107.793 182.826 107.254 183.35C106.719 183.873 106.012 184.135 105.133 184.135C104.676 184.135 104.258 184.059 103.879 183.906C103.504 183.75 103.193 183.541 102.947 183.279C102.705 183.014 102.516 182.707 102.379 182.359C102.246 182.008 102.18 181.633 102.18 181.234C102.18 180.598 102.295 180.029 102.525 179.529C102.76 179.025 103.182 178.389 103.791 177.619C103.94 177.432 104.174 177.143 104.494 176.752C104.815 176.361 105.1 176.018 105.35 175.721L105.719 175.275H107.072L103.99 178.955C104.432 178.721 104.871 178.604 105.309 178.604ZM103.287 181.346C103.287 181.693 103.352 182.008 103.481 182.289C103.613 182.57 103.818 182.801 104.096 182.98C104.377 183.156 104.711 183.244 105.098 183.244C105.676 183.244 106.129 183.066 106.457 182.711C106.789 182.355 106.955 181.914 106.955 181.387C106.955 180.832 106.789 180.377 106.457 180.021C106.129 179.662 105.676 179.482 105.098 179.482C104.484 179.482 104.029 179.656 103.732 180.004C103.436 180.352 103.287 180.799 103.287 181.346Z" fill="white"/>
<path d="M64.8867 214V205.393H67.7461C68.4219 205.393 69 205.48 69.4805 205.656C69.9609 205.828 70.3398 206.109 70.6172 206.5C70.8984 206.891 71.0391 207.381 71.0391 207.971C71.0391 208.381 70.9863 208.746 70.8809 209.066C70.7754 209.383 70.6016 209.672 70.3594 209.934C70.1172 210.191 69.7754 210.391 69.334 210.531C68.8965 210.672 68.3672 210.742 67.7461 210.742C67.2148 210.742 66.7832 210.727 66.4512 210.695V214H64.8867ZM67.5762 209.594C67.9004 209.594 68.1816 209.562 68.4199 209.5C68.6621 209.438 68.8496 209.357 68.9824 209.26C69.1191 209.162 69.2266 209.041 69.3047 208.896C69.3867 208.752 69.4395 208.613 69.4629 208.48C69.4902 208.344 69.5039 208.191 69.5039 208.023C69.5039 207.551 69.3516 207.191 69.0469 206.945C68.7422 206.699 68.3125 206.576 67.7578 206.576H66.4512V209.582C66.498 209.59 66.873 209.594 67.5762 209.594ZM74.7012 214.135C74.2871 214.135 73.9004 214.086 73.541 213.988C73.1855 213.891 72.8633 213.746 72.5742 213.555C72.2852 213.359 72.0566 213.098 71.8887 212.77C71.7246 212.441 71.6426 212.062 71.6426 211.633C71.6426 211.383 71.6797 211.148 71.7539 210.93C71.8281 210.711 71.9219 210.521 72.0352 210.361C72.1523 210.197 72.3008 210.037 72.4805 209.881C72.6641 209.725 72.8418 209.592 73.0137 209.482C73.1855 209.373 73.3867 209.256 73.6172 209.131C73.457 208.951 73.334 208.809 73.248 208.703C73.1621 208.594 73.0645 208.455 72.9551 208.287C72.8496 208.119 72.7715 207.953 72.7207 207.789C72.6738 207.621 72.6504 207.445 72.6504 207.262C72.6504 206.832 72.7559 206.467 72.9668 206.166C73.1777 205.861 73.4473 205.641 73.7754 205.504C74.1074 205.367 74.4785 205.299 74.8887 205.299C75.1777 205.299 75.4551 205.336 75.7207 205.41C75.9902 205.48 76.2383 205.588 76.4648 205.732C76.6914 205.877 76.873 206.072 77.0098 206.318C77.1465 206.561 77.2148 206.84 77.2148 207.156C77.2148 207.422 77.1621 207.672 77.0566 207.906C76.9512 208.137 76.8008 208.344 76.6055 208.527C76.4141 208.711 76.2168 208.869 76.0137 209.002C75.8145 209.135 75.5859 209.266 75.3281 209.395L77.3789 211.633C77.6953 211.289 77.9961 210.84 78.2812 210.285L79.2773 210.947C78.9727 211.537 78.6211 212.055 78.2227 212.5L79.4355 213.783C79.4082 213.791 79.2012 213.844 78.8145 213.941C78.4316 214.035 78.2285 214.086 78.2051 214.094L77.373 213.221C76.5723 213.83 75.6816 214.135 74.7012 214.135ZM74.7422 213.016C75.0781 213.016 75.4062 212.961 75.7266 212.852C76.0469 212.738 76.3281 212.582 76.5703 212.383C76.4961 212.305 76.1133 211.891 75.4219 211.141C74.7305 210.387 74.3496 209.971 74.2793 209.893C74.1152 209.986 73.9805 210.066 73.875 210.133C73.7734 210.195 73.6602 210.279 73.5352 210.385C73.4102 210.486 73.3125 210.588 73.2422 210.689C73.1758 210.787 73.1172 210.906 73.0664 211.047C73.0195 211.188 72.9961 211.34 72.9961 211.504C72.9961 212 73.1582 212.377 73.4824 212.635C73.8066 212.889 74.2266 213.016 74.7422 213.016ZM74.6484 208.586C74.832 208.488 74.9824 208.4 75.0996 208.322C75.2207 208.244 75.3477 208.146 75.4805 208.029C75.6133 207.912 75.7129 207.781 75.7793 207.637C75.8457 207.492 75.8789 207.336 75.8789 207.168C75.8789 206.883 75.791 206.666 75.6152 206.518C75.4395 206.369 75.2109 206.295 74.9297 206.295C74.6289 206.295 74.3887 206.371 74.209 206.523C74.0332 206.676 73.9453 206.902 73.9453 207.203C73.9453 207.641 74.1797 208.102 74.6484 208.586ZM80.6426 214V205.416H82.2305V212.734H85.8223L85.7754 214H80.6426Z" fill="white"/>
<path d="M67.9961 231.793H70.2812V232.59H67.9902V235.104H67.1875V232.59H64.8613V231.793H67.1934V229.309H67.9961V231.793ZM74.2598 226.08H74.8164V227.064C75.8125 227.096 76.6211 227.305 77.2422 227.691L76.9492 228.518C76.7109 228.385 76.3965 228.266 76.0059 228.16C75.6191 228.051 75.2227 227.986 74.8164 227.967V230.943L75.4258 231.09C76.1289 231.258 76.6621 231.527 77.0254 231.898C77.3887 232.266 77.5703 232.789 77.5703 233.469C77.5703 234.309 77.3242 234.951 76.832 235.396C76.3438 235.842 75.6719 236.086 74.8164 236.129V237.143H74.2598V236.129C73.6348 236.109 73.0762 236.031 72.584 235.895C72.0957 235.754 71.7051 235.594 71.4121 235.414L71.7168 234.57C72.5059 234.957 73.3535 235.176 74.2598 235.227V231.828L73.3984 231.611C72.082 231.279 71.4238 230.576 71.4238 229.502C71.4238 228.732 71.6738 228.148 72.1738 227.75C72.6738 227.348 73.3691 227.123 74.2598 227.076V226.08ZM74.2598 230.809V227.973C73.0723 228.043 72.4785 228.529 72.4785 229.432C72.4785 229.764 72.5859 230.031 72.8008 230.234C73.0195 230.434 73.3457 230.586 73.7793 230.691L74.2598 230.809ZM74.8164 231.969V235.232C75.9531 235.174 76.5215 234.598 76.5215 233.504C76.5215 233.129 76.4199 232.826 76.2168 232.596C76.0176 232.361 75.6523 232.178 75.1211 232.045L74.8164 231.969ZM84.7129 233.826H83.7168V236H82.7324V233.826H78.7715V232.93L82.6211 227.234H83.7168V232.977H84.7949L84.7129 233.826ZM82.7324 228.564L79.8027 232.977H82.7324V228.564ZM85.9023 236L85.7676 235.039L88.7969 231.676C89 231.449 89.1953 231.156 89.3828 230.797C89.5742 230.438 89.7129 230.133 89.7988 229.883L89.9336 229.514C89.9336 229.029 89.7988 228.654 89.5293 228.389C89.2598 228.119 88.877 227.984 88.3809 227.984C87.5527 227.984 86.9004 228.225 86.4238 228.705L86.084 227.826C86.623 227.318 87.4121 227.064 88.4512 227.064C89.248 227.064 89.8828 227.281 90.3555 227.715C90.8281 228.145 91.0645 228.721 91.0645 229.443C91.0488 229.498 91.0254 229.572 90.9941 229.666C90.9629 229.756 90.8945 229.934 90.7891 230.199C90.6875 230.465 90.5801 230.717 90.4668 230.955C90.3535 231.193 90.209 231.455 90.0332 231.74C89.8613 232.025 89.6855 232.264 89.5059 232.455L87.0332 235.098H91.0938L91.0293 236H85.9023ZM93.3086 236.07C93.0664 236.07 92.875 235.994 92.7344 235.842C92.5977 235.686 92.5293 235.504 92.5293 235.297C92.5293 235.086 92.5977 234.904 92.7344 234.752C92.8711 234.6 93.0625 234.523 93.3086 234.523C93.5547 234.523 93.7461 234.6 93.8828 234.752C94.0195 234.904 94.0879 235.086 94.0879 235.297C94.0879 235.508 94.0195 235.689 93.8828 235.842C93.7461 235.994 93.5547 236.07 93.3086 236.07ZM98.4062 230.604C98.8984 230.604 99.3535 230.721 99.7715 230.955C100.19 231.186 100.525 231.516 100.779 231.945C101.033 232.371 101.16 232.846 101.16 233.369C101.16 234.166 100.891 234.826 100.352 235.35C99.8164 235.873 99.1094 236.135 98.2305 236.135C97.7734 236.135 97.3555 236.059 96.9766 235.906C96.6016 235.75 96.291 235.541 96.0449 235.279C95.8027 235.014 95.6133 234.707 95.4766 234.359C95.3438 234.008 95.2773 233.633 95.2773 233.234C95.2773 232.598 95.3926 232.029 95.623 231.529C95.8574 231.025 96.2793 230.389 96.8887 229.619C97.0371 229.432 97.2715 229.143 97.5918 228.752C97.9121 228.361 98.1973 228.018 98.4473 227.721L98.8164 227.275H100.17L97.0879 230.955C97.5293 230.721 97.9688 230.604 98.4062 230.604ZM96.3848 233.346C96.3848 233.693 96.4492 234.008 96.5781 234.289C96.7109 234.57 96.916 234.801 97.1934 234.98C97.4746 235.156 97.8086 235.244 98.1953 235.244C98.7734 235.244 99.2266 235.066 99.5547 234.711C99.8867 234.355 100.053 233.914 100.053 233.387C100.053 232.832 99.8867 232.377 99.5547 232.021C99.2266 231.662 98.7734 231.482 98.1953 231.482C97.582 231.482 97.127 231.656 96.8301 232.004C96.5332 232.352 96.3848 232.799 96.3848 233.346ZM105.438 230.604C105.93 230.604 106.385 230.721 106.803 230.955C107.221 231.186 107.557 231.516 107.811 231.945C108.065 232.371 108.191 232.846 108.191 233.369C108.191 234.166 107.922 234.826 107.383 235.35C106.848 235.873 106.141 236.135 105.262 236.135C104.805 236.135 104.387 236.059 104.008 235.906C103.633 235.75 103.322 235.541 103.076 235.279C102.834 235.014 102.645 234.707 102.508 234.359C102.375 234.008 102.309 233.633 102.309 233.234C102.309 232.598 102.424 232.029 102.654 231.529C102.889 231.025 103.311 230.389 103.92 229.619C104.068 229.432 104.303 229.143 104.623 228.752C104.943 228.361 105.229 228.018 105.479 227.721L105.848 227.275H107.201L104.119 230.955C104.561 230.721 105 230.604 105.438 230.604ZM103.416 233.346C103.416 233.693 103.481 234.008 103.609 234.289C103.742 234.57 103.947 234.801 104.225 234.98C104.506 235.156 104.84 235.244 105.227 235.244C105.805 235.244 106.258 235.066 106.586 234.711C106.918 234.355 107.084 233.914 107.084 233.387C107.084 232.832 106.918 232.377 106.586 232.021C106.258 231.662 105.805 231.482 105.227 231.482C104.613 231.482 104.158 231.656 103.861 232.004C103.565 232.352 103.416 232.799 103.416 233.346Z" fill="#5AEDB8"/>
<path d="M191.279 162V153.393H194.139C194.814 153.393 195.393 153.48 195.873 153.656C196.354 153.828 196.732 154.109 197.01 154.5C197.291 154.891 197.432 155.381 197.432 155.971C197.432 156.381 197.379 156.746 197.273 157.066C197.168 157.383 196.994 157.672 196.752 157.934C196.51 158.191 196.168 158.391 195.727 158.531C195.289 158.672 194.76 158.742 194.139 158.742C193.607 158.742 193.176 158.727 192.844 158.695V162H191.279ZM193.969 157.594C194.293 157.594 194.574 157.562 194.812 157.5C195.055 157.438 195.242 157.357 195.375 157.26C195.512 157.162 195.619 157.041 195.697 156.896C195.779 156.752 195.832 156.613 195.855 156.48C195.883 156.344 195.896 156.191 195.896 156.023C195.896 155.551 195.744 155.191 195.439 154.945C195.135 154.699 194.705 154.576 194.15 154.576H192.844V157.582C192.891 157.59 193.266 157.594 193.969 157.594ZM198.48 162V155.561H199.77L199.969 156.545C200.391 155.869 201.002 155.531 201.803 155.531C201.971 155.531 202.107 155.539 202.213 155.555L202.189 156.838C202.033 156.814 201.871 156.803 201.703 156.803C201.137 156.803 200.713 156.953 200.432 157.254C200.154 157.555 200.016 157.973 200.016 158.508V162H198.48ZM203.186 162V155.561H204.721V162H203.186ZM203.186 154.623V153.311H204.727V154.623H203.186ZM209.145 162.123C208.16 162.123 207.393 161.83 206.842 161.244C206.295 160.658 206.021 159.82 206.021 158.73C206.021 157.676 206.309 156.857 206.883 156.275C207.461 155.693 208.221 155.402 209.162 155.402C209.916 155.402 210.553 155.564 211.072 155.889L210.709 156.984C210.178 156.707 209.684 156.568 209.227 156.568C208.707 156.568 208.297 156.754 207.996 157.125C207.699 157.496 207.551 158.037 207.551 158.748C207.551 159.467 207.697 160.014 207.99 160.389C208.287 160.764 208.705 160.951 209.244 160.951C209.807 160.951 210.348 160.785 210.867 160.453L211.014 161.619C210.744 161.799 210.465 161.928 210.176 162.006C209.887 162.084 209.543 162.123 209.145 162.123ZM215.162 162.123C214.127 162.123 213.32 161.826 212.742 161.232C212.168 160.635 211.881 159.811 211.881 158.76C211.881 157.736 212.152 156.922 212.695 156.316C213.238 155.711 213.979 155.406 214.916 155.402C215.803 155.402 216.49 155.68 216.979 156.234C217.471 156.789 217.717 157.525 217.717 158.443C217.717 158.51 217.715 158.617 217.711 158.766C217.711 158.914 217.711 159.023 217.711 159.094H213.428C213.443 159.695 213.607 160.162 213.92 160.494C214.236 160.822 214.67 160.986 215.221 160.986C215.924 160.986 216.6 160.803 217.248 160.436L217.465 161.525C216.82 161.924 216.053 162.123 215.162 162.123ZM213.457 158.127H216.27C216.27 157.604 216.15 157.201 215.912 156.92C215.674 156.639 215.344 156.498 214.922 156.498C214.527 156.498 214.193 156.635 213.92 156.908C213.65 157.182 213.496 157.588 213.457 158.127ZM222.293 162V153.416H223.98C224.285 153.893 224.904 154.854 225.838 156.299C226.771 157.744 227.34 158.623 227.543 158.936C227.602 159.025 227.701 159.178 227.842 159.393C227.986 159.604 228.088 159.754 228.146 159.844C228.119 158.504 228.105 157.809 228.105 157.758V153.416H229.553V162H227.842L223.969 155.965L223.688 155.502C223.719 156.533 223.734 157.258 223.734 157.676V162H222.293ZM234.059 160.957C234.578 160.957 234.969 160.768 235.23 160.389C235.492 160.01 235.623 159.467 235.623 158.76C235.623 158.045 235.492 157.5 235.23 157.125C234.969 156.75 234.574 156.562 234.047 156.562C233.527 156.562 233.135 156.752 232.869 157.131C232.607 157.506 232.477 158.051 232.477 158.766C232.477 159.469 232.609 160.01 232.875 160.389C233.141 160.768 233.535 160.957 234.059 160.957ZM234.018 162.123C233.064 162.123 232.314 161.814 231.768 161.197C231.221 160.58 230.947 159.768 230.947 158.76C230.947 157.721 231.221 156.902 231.768 156.305C232.314 155.703 233.086 155.402 234.082 155.402C235.043 155.402 235.795 155.709 236.338 156.322C236.885 156.932 237.158 157.744 237.158 158.76C237.158 159.787 236.883 160.605 236.332 161.215C235.781 161.82 235.01 162.123 234.018 162.123ZM239.59 162L237.639 155.561H239.203L240.439 160.283C240.467 160.193 240.689 159.426 241.107 157.98C241.525 156.535 241.762 155.729 241.816 155.561H243.393C243.443 155.725 243.668 156.523 244.066 157.957C244.465 159.391 244.68 160.16 244.711 160.266L245.982 155.561H247.523L245.508 162H243.979C243.928 161.832 243.689 160.982 243.264 159.451C242.842 157.92 242.613 157.094 242.578 156.973C242.5 157.258 242.25 158.117 241.828 159.551C241.41 160.984 241.168 161.801 241.102 162H239.59Z" fill="white"/>
<path d="M193.607 174.08H194.164V175.064C195.16 175.096 195.969 175.305 196.59 175.691L196.297 176.518C196.059 176.385 195.744 176.266 195.354 176.16C194.967 176.051 194.57 175.986 194.164 175.967V178.943L194.773 179.09C195.477 179.258 196.01 179.527 196.373 179.898C196.736 180.266 196.918 180.789 196.918 181.469C196.918 182.309 196.672 182.951 196.18 183.396C195.691 183.842 195.02 184.086 194.164 184.129V185.143H193.607V184.129C192.982 184.109 192.424 184.031 191.932 183.895C191.443 183.754 191.053 183.594 190.76 183.414L191.064 182.57C191.854 182.957 192.701 183.176 193.607 183.227V179.828L192.746 179.611C191.43 179.279 190.771 178.576 190.771 177.502C190.771 176.732 191.021 176.148 191.521 175.75C192.021 175.348 192.717 175.123 193.607 175.076V174.08ZM193.607 178.809V175.973C192.42 176.043 191.826 176.529 191.826 177.432C191.826 177.764 191.934 178.031 192.148 178.234C192.367 178.434 192.693 178.586 193.127 178.691L193.607 178.809ZM194.164 179.969V183.232C195.301 183.174 195.869 182.598 195.869 181.504C195.869 181.129 195.768 180.826 195.564 180.596C195.365 180.361 195 180.178 194.469 180.045L194.164 179.969ZM204.061 181.826H203.064V184H202.08V181.826H198.119V180.93L201.969 175.234H203.064V180.977H204.143L204.061 181.826ZM202.08 176.564L199.15 180.977H202.08V176.564ZM208.068 184.135C207.537 184.135 207.057 184.047 206.627 183.871C206.201 183.691 205.855 183.418 205.59 183.051C205.324 182.684 205.191 182.248 205.191 181.744C205.191 181.186 205.352 180.699 205.672 180.285C205.992 179.871 206.439 179.57 207.014 179.383C205.92 178.996 205.373 178.293 205.373 177.273C205.373 176.582 205.623 176.041 206.123 175.65C206.623 175.26 207.271 175.064 208.068 175.064C208.861 175.064 209.504 175.26 209.996 175.65C210.488 176.041 210.734 176.582 210.734 177.273C210.734 177.789 210.602 178.223 210.336 178.574C210.07 178.926 209.699 179.195 209.223 179.383C209.75 179.57 210.164 179.871 210.465 180.285C210.766 180.699 210.916 181.186 210.916 181.744C210.916 182.494 210.645 183.08 210.102 183.502C209.562 183.924 208.885 184.135 208.068 184.135ZM208.068 179.881C207.51 180.01 207.062 180.227 206.727 180.531C206.391 180.832 206.223 181.213 206.223 181.674C206.223 182.154 206.396 182.537 206.744 182.822C207.092 183.104 207.533 183.244 208.068 183.244C208.604 183.244 209.039 183.104 209.375 182.822C209.715 182.537 209.885 182.154 209.885 181.674C209.885 181.209 209.721 180.826 209.393 180.525C209.064 180.221 208.623 180.006 208.068 179.881ZM208.068 175.955C207.607 175.955 207.215 176.07 206.891 176.301C206.57 176.531 206.41 176.848 206.41 177.25C206.41 178.172 206.963 178.756 208.068 179.002C209.158 178.756 209.703 178.172 209.703 177.25C209.703 176.848 209.545 176.531 209.229 176.301C208.912 176.07 208.525 175.955 208.068 175.955ZM216.518 183.795C216.131 184.021 215.678 184.135 215.158 184.135C214.639 184.135 214.184 184.021 213.793 183.795C213.402 183.564 213.088 183.242 212.85 182.828C212.615 182.414 212.439 181.938 212.322 181.398C212.209 180.859 212.152 180.26 212.152 179.6C212.152 179.057 212.189 178.555 212.264 178.094C212.342 177.633 212.461 177.215 212.621 176.84C212.781 176.465 212.979 176.146 213.213 175.885C213.451 175.623 213.734 175.422 214.062 175.281C214.391 175.137 214.756 175.064 215.158 175.064C215.658 175.064 216.1 175.174 216.482 175.393C216.869 175.611 217.182 175.924 217.42 176.33C217.662 176.732 217.844 177.209 217.965 177.76C218.086 178.307 218.146 178.92 218.146 179.6C218.146 180.26 218.09 180.859 217.977 181.398C217.863 181.938 217.689 182.414 217.455 182.828C217.221 183.242 216.908 183.564 216.518 183.795ZM216.184 176.43C215.898 176.113 215.557 175.955 215.158 175.955C214.76 175.955 214.418 176.113 214.133 176.43C213.848 176.742 213.633 177.168 213.488 177.707C213.348 178.242 213.277 178.861 213.277 179.564C213.277 180.279 213.348 180.912 213.488 181.463C213.633 182.01 213.848 182.443 214.133 182.764C214.418 183.084 214.76 183.244 215.158 183.244C215.557 183.244 215.898 183.084 216.184 182.764C216.469 182.443 216.682 182.01 216.822 181.463C216.967 180.912 217.039 180.279 217.039 179.564C217.039 178.861 216.967 178.242 216.822 177.707C216.682 177.168 216.469 176.742 216.184 176.43Z" fill="white"/>
<path d="M191.275 214V205.416H196.479L196.414 206.676H192.863V208.891H196.238V210.15H192.863V212.734H196.543L196.49 214H191.275ZM197.223 214L199.514 210.701L197.334 207.561H199.074L200.504 209.752L201.975 207.561H203.686L201.488 210.695L203.762 214H202.004L200.504 211.662L198.957 214H197.223ZM204.664 216.678V207.561H205.982L206.146 208.463C206.357 208.123 206.637 207.861 206.984 207.678C207.336 207.49 207.727 207.396 208.156 207.396C208.684 207.396 209.146 207.543 209.545 207.836C209.947 208.129 210.252 208.529 210.459 209.037C210.666 209.541 210.77 210.111 210.77 210.748C210.77 211.744 210.527 212.557 210.043 213.186C209.562 213.811 208.91 214.123 208.086 214.123C207.68 214.123 207.311 214.043 206.979 213.883C206.65 213.719 206.375 213.498 206.152 213.221C206.184 213.783 206.199 214.1 206.199 214.17V216.602L204.664 216.678ZM207.758 212.951C208.215 212.951 208.574 212.76 208.836 212.377C209.102 211.994 209.234 211.447 209.234 210.736C209.234 210.014 209.102 209.471 208.836 209.107C208.57 208.744 208.201 208.562 207.729 208.562C206.713 208.562 206.199 209.254 206.188 210.637C206.188 211.434 206.318 212.02 206.58 212.395C206.846 212.766 207.238 212.951 207.758 212.951ZM212.059 214V207.561H213.594V214H212.059ZM212.059 206.623V205.311H213.6V206.623H212.059ZM215.205 214V207.561H216.494L216.693 208.545C217.115 207.869 217.727 207.531 218.527 207.531C218.695 207.531 218.832 207.539 218.938 207.555L218.914 208.838C218.758 208.814 218.596 208.803 218.428 208.803C217.861 208.803 217.438 208.953 217.156 209.254C216.879 209.555 216.74 209.973 216.74 210.508V214H215.205ZM222.793 214.123C221.758 214.123 220.951 213.826 220.373 213.232C219.799 212.635 219.512 211.811 219.512 210.76C219.512 209.736 219.783 208.922 220.326 208.316C220.869 207.711 221.609 207.406 222.547 207.402C223.434 207.402 224.121 207.68 224.609 208.234C225.102 208.789 225.348 209.525 225.348 210.443C225.348 210.51 225.346 210.617 225.342 210.766C225.342 210.914 225.342 211.023 225.342 211.094H221.059C221.074 211.695 221.238 212.162 221.551 212.494C221.867 212.822 222.301 212.986 222.852 212.986C223.555 212.986 224.23 212.803 224.879 212.436L225.096 213.525C224.451 213.924 223.684 214.123 222.793 214.123ZM221.088 210.127H223.9C223.9 209.604 223.781 209.201 223.543 208.92C223.305 208.639 222.975 208.498 222.553 208.498C222.158 208.498 221.824 208.635 221.551 208.908C221.281 209.182 221.127 209.588 221.088 210.127ZM228.658 214.117C227.709 214.117 226.949 213.955 226.379 213.631L226.537 212.477C226.795 212.617 227.123 212.744 227.521 212.857C227.92 212.967 228.283 213.021 228.611 213.021C228.951 213.021 229.215 212.959 229.402 212.834C229.594 212.705 229.691 212.518 229.695 212.271C229.695 212.049 229.605 211.873 229.426 211.744C229.25 211.615 228.912 211.455 228.412 211.264C228.24 211.201 228.129 211.16 228.078 211.141C227.484 210.91 227.057 210.654 226.795 210.373C226.533 210.088 226.402 209.703 226.402 209.219C226.402 208.633 226.613 208.184 227.035 207.871C227.461 207.559 228.053 207.402 228.811 207.402C229.631 207.402 230.352 207.557 230.973 207.865L230.592 208.926C229.979 208.641 229.395 208.498 228.84 208.498C228.531 208.498 228.289 208.551 228.113 208.656C227.941 208.758 227.855 208.914 227.855 209.125C227.855 209.324 227.939 209.48 228.107 209.594C228.275 209.703 228.604 209.848 229.092 210.027C229.107 210.031 229.158 210.049 229.244 210.08C229.33 210.111 229.396 210.137 229.443 210.156C230.033 210.371 230.467 210.629 230.744 210.93C231.021 211.227 231.16 211.615 231.16 212.096C231.156 212.74 230.938 213.238 230.504 213.59C230.07 213.941 229.455 214.117 228.658 214.117ZM235.742 214V205.416H237.33V214H235.742ZM239.082 214V207.561H240.318L240.488 208.375C241.145 207.727 241.873 207.402 242.674 207.402C243.424 207.402 243.984 207.619 244.355 208.053C244.73 208.482 244.918 209.107 244.918 209.928V214H243.377V210.115C243.373 209.596 243.289 209.207 243.125 208.949C242.961 208.691 242.666 208.562 242.24 208.562C241.908 208.562 241.604 208.648 241.326 208.82C241.053 208.988 240.854 209.201 240.729 209.459C240.654 209.764 240.617 210.232 240.617 210.865V214H239.082Z" fill="white"/>
<path d="M192.92 236.135C192.396 236.135 191.93 236.066 191.52 235.93C191.113 235.793 190.816 235.635 190.629 235.455L190.957 234.594C191.508 235.027 192.164 235.244 192.926 235.244C193.512 235.244 193.977 235.1 194.32 234.811C194.668 234.518 194.842 234.109 194.842 233.586C194.842 233.301 194.797 233.053 194.707 232.842C194.621 232.627 194.504 232.455 194.355 232.326C194.211 232.193 194.023 232.088 193.793 232.01C193.566 231.928 193.332 231.871 193.09 231.84C192.852 231.805 192.574 231.783 192.258 231.775C192.219 231.775 192.16 231.775 192.082 231.775C192.004 231.771 191.945 231.77 191.906 231.77V230.896H192.199C192.473 230.893 192.713 230.879 192.92 230.855C193.131 230.828 193.34 230.781 193.547 230.715C193.758 230.648 193.932 230.561 194.068 230.451C194.205 230.342 194.316 230.195 194.402 230.012C194.488 229.828 194.531 229.611 194.531 229.361C194.531 228.424 193.994 227.955 192.92 227.955C192.533 227.955 192.17 228.012 191.83 228.125C191.49 228.238 191.199 228.391 190.957 228.582L190.629 227.727C191.211 227.285 192.049 227.064 193.143 227.064C193.584 227.064 193.992 227.146 194.367 227.311C194.742 227.471 195.051 227.719 195.293 228.055C195.535 228.387 195.656 228.777 195.656 229.227C195.656 229.773 195.521 230.223 195.252 230.574C194.982 230.926 194.604 231.178 194.115 231.33C194.662 231.447 195.09 231.703 195.398 232.098C195.711 232.492 195.867 232.992 195.867 233.598C195.867 234.367 195.592 234.982 195.041 235.443C194.49 235.904 193.783 236.135 192.92 236.135ZM201.65 236V232.115C201.65 231.471 201.547 231.002 201.34 230.709C201.137 230.416 200.779 230.27 200.268 230.27C199.775 230.27 199.359 230.393 199.02 230.639C198.684 230.885 198.465 231.203 198.363 231.594C198.328 231.887 198.311 232.213 198.311 232.572V236H197.332V227.076L198.311 227.018V229.631C198.311 229.854 198.303 230.129 198.287 230.457C198.838 229.777 199.568 229.438 200.479 229.438C201.912 229.438 202.629 230.279 202.629 231.963V236H201.65ZM207.768 227.234H208.699V236H207.662V228.318C207.268 228.576 206.785 228.797 206.215 228.98V228.002C206.277 227.975 206.404 227.92 206.596 227.838C206.787 227.756 206.93 227.693 207.023 227.65C207.121 227.607 207.242 227.547 207.387 227.469C207.531 227.391 207.658 227.312 207.768 227.234ZM213.146 236.135C212.615 236.135 212.135 236.047 211.705 235.871C211.279 235.691 210.934 235.418 210.668 235.051C210.402 234.684 210.27 234.248 210.27 233.744C210.27 233.186 210.43 232.699 210.75 232.285C211.07 231.871 211.518 231.57 212.092 231.383C210.998 230.996 210.451 230.293 210.451 229.273C210.451 228.582 210.701 228.041 211.201 227.65C211.701 227.26 212.35 227.064 213.146 227.064C213.939 227.064 214.582 227.26 215.074 227.65C215.566 228.041 215.812 228.582 215.812 229.273C215.812 229.789 215.68 230.223 215.414 230.574C215.148 230.926 214.777 231.195 214.301 231.383C214.828 231.57 215.242 231.871 215.543 232.285C215.844 232.699 215.994 233.186 215.994 233.744C215.994 234.494 215.723 235.08 215.18 235.502C214.641 235.924 213.963 236.135 213.146 236.135ZM213.146 231.881C212.588 232.01 212.141 232.227 211.805 232.531C211.469 232.832 211.301 233.213 211.301 233.674C211.301 234.154 211.475 234.537 211.822 234.822C212.17 235.104 212.611 235.244 213.146 235.244C213.682 235.244 214.117 235.104 214.453 234.822C214.793 234.537 214.963 234.154 214.963 233.674C214.963 233.209 214.799 232.826 214.471 232.525C214.143 232.221 213.701 232.006 213.146 231.881ZM213.146 227.955C212.686 227.955 212.293 228.07 211.969 228.301C211.648 228.531 211.488 228.848 211.488 229.25C211.488 230.172 212.041 230.756 213.146 231.002C214.236 230.756 214.781 230.172 214.781 229.25C214.781 228.848 214.623 228.531 214.307 228.301C213.99 228.07 213.604 227.955 213.146 227.955ZM225.592 236V232.654C225.592 232.342 225.584 232.08 225.568 231.869C225.557 231.658 225.525 231.443 225.475 231.225C225.428 231.006 225.359 230.834 225.27 230.709C225.184 230.58 225.062 230.477 224.906 230.398C224.75 230.316 224.562 230.275 224.344 230.275C223.914 230.275 223.547 230.391 223.242 230.621C222.941 230.852 222.727 231.176 222.598 231.594C222.562 231.875 222.545 232.176 222.545 232.496V236H221.566V232.549C221.566 232.26 221.557 232.01 221.537 231.799C221.518 231.584 221.48 231.377 221.426 231.178C221.371 230.975 221.297 230.811 221.203 230.686C221.113 230.561 220.992 230.461 220.84 230.387C220.688 230.312 220.506 230.275 220.295 230.275C219.826 230.275 219.432 230.395 219.111 230.633C218.795 230.871 218.582 231.188 218.473 231.582C218.438 231.883 218.42 232.209 218.42 232.561V236H217.441C217.434 231.98 217.43 229.838 217.43 229.572H218.25L218.373 230.492C218.568 230.195 218.846 229.945 219.205 229.742C219.564 229.539 219.973 229.438 220.43 229.438C220.668 229.438 220.887 229.463 221.086 229.514C221.289 229.561 221.457 229.621 221.59 229.695C221.727 229.77 221.848 229.859 221.953 229.965C222.059 230.066 222.141 230.168 222.199 230.27C222.258 230.367 222.307 230.471 222.346 230.58C222.814 229.818 223.531 229.438 224.496 229.438C225.211 229.438 225.734 229.643 226.066 230.053C226.402 230.459 226.57 231.062 226.57 231.863V236H225.592Z" fill="white"/>
</g>
<defs>
<filter id="filter0_d" x="25" y="356" width="307" height="72" filterUnits="userSpaceOnUse" color-interpolation-filters="sRGB">
<feFlood flood-opacity="0" result="BackgroundImageFix"/>
<feColorMatrix in="SourceAlpha" type="matrix" values="0 0 0 0 0 0 0 0 0 0 0 0 0 0 0 0 0 0 127 0"/>
<feOffset dy="12"/>
<feGaussianBlur stdDeviation="4"/>
<feColorMatrix type="matrix" values="0 0 0 0 0 0 0 0 0 0 0 0 0 0 0 0 0 0 0.16 0"/>
<feBlend mode="normal" in2="BackgroundImageFix" result="effect1_dropShadow"/>
<feBlend mode="normal" in="SourceGraphic" in2="effect1_dropShadow" result="shape"/>
</filter>
<filter id="filter1_i" x="36" y="76" width="288" height="260" filterUnits="userSpaceOnUse" color-interpolation-filters="sRGB">
<feFlood flood-opacity="0" result="BackgroundImageFix"/>
<feBlend mode="normal" in="SourceGraphic" in2="BackgroundImageFix" result="shape"/>
<feColorMatrix in="SourceAlpha" type="matrix" values="0 0 0 0 0 0 0 0 0 0 0 0 0 0 0 0 0 0 127 0" result="hardAlpha"/>
<feOffset/>
<feGaussianBlur stdDeviation="8"/>
<feComposite in2="hardAlpha" operator="arithmetic" k2="-1" k3="1"/>
<feColorMatrix type="matrix" values="0 0 0 0 0 0 0 0 0 0 0 0 0 0 0 0 0 0 0.25 0"/>
<feBlend mode="normal" in2="shape" result="effect1_innerShadow"/>
</filter>
<filter id="filter2_d" x="40" y="80" width="280" height="252" filterUnits="userSpaceOnUse" color-interpolation-filters="sRGB">
<feFlood flood-opacity="0" result="BackgroundImageFix"/>
<feColorMatrix in="SourceAlpha" type="matrix" values="0 0 0 0 0 0 0 0 0 0 0 0 0 0 0 0 0 0 127 0"/>
<feOffset/>
<feGaussianBlur stdDeviation="4"/>
<feColorMatrix type="matrix" values="0 0 0 0 0 0 0 0 0 0 0 0 0 0 0 0 0 0 0.25 0"/>
<feBlend mode="normal" in2="BackgroundImageFix" result="effect1_dropShadow"/>
<feBlend mode="normal" in="SourceGraphic" in2="effect1_dropShadow" result="shape"/>
</filter>
<filter id="filter3_d" x="58" y="258" width="244" height="60" filterUnits="userSpaceOnUse" color-interpolation-filters="sRGB">
<feFlood flood-opacity="0" result="BackgroundImageFix"/>
<feColorMatrix in="SourceAlpha" type="matrix" values="0 0 0 0 0 0 0 0 0 0 0 0 0 0 0 0 0 0 127 0"/>
<feOffset dy="4"/>
<feGaussianBlur stdDeviation="3"/>
<feColorMatrix type="matrix" values="0 0 0 0 0 0 0 0 0 0 0 0 0 0 0 0 0 0 0.16 0"/>
<feBlend mode="normal" in2="BackgroundImageFix" result="effect1_dropShadow"/>
<feBlend mode="normal" in="SourceGraphic" in2="effect1_dropShadow" result="shape"/>
</filter>
<filter id="filter4_d" x="71.5781" y="108.523" width="32.9141" height="15.641" filterUnits="userSpaceOnUse" color-interpolation-filters="sRGB">
<feFlood flood-opacity="0" result="BackgroundImageFix"/>
<feColorMatrix in="SourceAlpha" type="matrix" values="0 0 0 0 0 0 0 0 0 0 0 0 0 0 0 0 0 0 127 0"/>
<feOffset/>
<feGaussianBlur stdDeviation="1"/>
<feColorMatrix type="matrix" values="0 0 0 0 0 0 0 0 0 0 0 0 0 0 0 0 0 0 0.4 0"/>
<feBlend mode="normal" in2="BackgroundImageFix" result="effect1_dropShadow"/>
<feBlend mode="normal" in="SourceGraphic" in2="effect1_dropShadow" result="shape"/>
</filter>
<linearGradient id="paint0_linear" x1="180" y1="432" x2="-31.7234" y2="258.769" gradientUnits="userSpaceOnUse">
<stop stop-color="#1F1F1F"/>
<stop offset="1" stop-color="#262626"/>
</linearGradient>
<linearGradient id="paint1_linear" x1="324" y1="408" x2="35.8008" y2="343.488" gradientUnits="userSpaceOnUse">
<stop stop-color="#1455B2"/>
<stop offset="1" stop-color="#1166E1"/>
</linearGradient>
<linearGradient id="paint2_linear" x1="296" y1="308" x2="63.4136" y2="263.033" gradientUnits="userSpaceOnUse">
<stop stop-color="#1455B2"/>
<stop offset="1" stop-color="#1166E1"/>
</linearGradient>
</defs>
</svg>
