<svg width="280" height="299" viewBox="0 0 280 299" fill="none" xmlns="http://www.w3.org/2000/svg">
<circle cx="140" cy="148.97" r="140" fill="#2F80ED"/>
<g clip-path="url(#clip0)">
<path d="M248.537 0H31.4627C25.132 0 20 5.13202 20 11.4627V286.567C20 292.898 25.132 298.03 31.4627 298.03H248.537C254.868 298.03 260 292.898 260 286.567V11.4627C260 5.13202 254.868 0 248.537 0Z" fill="#1A1A1A"/>
<path d="M248.537 0H31.4627C25.132 0 20 5.13202 20 11.4627V286.567C20 292.898 25.132 298.03 31.4627 298.03H248.537C254.868 298.03 260 292.898 260 286.567V11.4627C260 5.13202 254.868 0 248.537 0Z" fill="url(#paint0_linear)"/>
<path d="M145.246 131.077H143.949C143.875 131.077 143.804 131.109 143.755 131.165L140.25 135.182V126.217C140.25 126.147 140.193 126.09 140.122 126.09H139.162C139.091 126.09 139.034 126.147 139.034 126.217V135.182L135.529 131.165C135.481 131.109 135.41 131.077 135.335 131.077H134.038C133.929 131.077 133.87 131.206 133.942 131.287L139.256 137.377C139.304 137.432 139.363 137.476 139.43 137.506C139.497 137.537 139.569 137.552 139.643 137.552C139.716 137.552 139.789 137.537 139.855 137.506C139.922 137.476 139.981 137.432 140.029 137.377L145.342 131.287C145.413 131.205 145.355 131.077 145.246 131.077Z" fill="#666666"/>
<g filter="url(#filter0_i)">
<path d="M239.94 57.3135H40.0597C36.8944 57.3135 34.3284 59.8795 34.3284 63.0448V108.896C34.3284 112.061 36.8944 114.627 40.0597 114.627H239.94C243.106 114.627 245.672 112.061 245.672 108.896V63.0448C245.672 59.8795 243.106 57.3135 239.94 57.3135Z" fill="#1F1F1F"/>
</g>
<path d="M239.94 57.6716H40.0597C37.0922 57.6716 34.6866 60.0773 34.6866 63.0448V108.896C34.6866 111.863 37.0922 114.269 40.0597 114.269H239.94C242.908 114.269 245.313 111.863 245.313 108.896V63.0448C245.313 60.0773 242.908 57.6716 239.94 57.6716Z" stroke="#3D3D3D"/>
<path d="M163.51 75.2239V69.0742H165.429C166.243 69.0742 166.851 69.1931 167.25 69.431C167.651 69.6689 167.851 70.0648 167.851 70.619C167.851 70.7085 167.845 70.7967 167.834 70.8834C167.823 70.9702 167.798 71.0695 167.758 71.1814C167.719 71.2906 167.667 71.3899 167.603 71.4795C167.538 71.569 167.449 71.6569 167.334 71.7443C167.22 71.8281 167.086 71.894 166.932 71.9413C167.312 72.0337 167.603 72.2114 167.805 72.4743C168.006 72.7344 168.107 73.0567 168.107 73.44C168.107 74.0189 167.901 74.4616 167.49 74.7661C167.081 75.0713 166.515 75.2239 165.79 75.2239H163.51ZM164.648 74.4015H165.634C166.508 74.4015 166.944 74.0597 166.944 73.377C166.944 73.0324 166.835 72.7852 166.616 72.6341C166.399 72.4829 166.061 72.4069 165.605 72.4069H164.648V74.4015ZM164.648 71.6138H165.622C166.374 71.6138 166.751 71.327 166.751 70.7533C166.751 70.4314 166.642 70.2104 166.424 70.0901C166.208 69.9697 165.864 69.9095 165.391 69.9095H164.648V71.6138ZM170.223 75.312C169.794 75.312 169.448 75.1945 169.181 74.9595C168.918 74.7217 168.787 74.38 168.787 73.9351C168.787 73.4565 168.943 73.1026 169.257 72.8733C169.57 72.6412 170.044 72.4936 170.676 72.4327C170.762 72.4213 170.856 72.4098 170.957 72.3991C171.058 72.3876 171.171 72.3761 171.297 72.3654C171.423 72.3539 171.522 72.3439 171.596 72.336V72.0924C171.596 71.8123 171.531 71.6096 171.402 71.4837C171.273 71.355 171.078 71.2906 170.815 71.2906C170.439 71.2906 169.976 71.3955 169.425 71.6054C169.422 71.597 169.376 71.4697 169.286 71.2234C169.197 70.9772 169.15 70.8512 169.148 70.8457C169.691 70.6134 170.279 70.4972 170.911 70.4972C171.532 70.4972 171.985 70.633 172.267 70.9044C172.55 71.1731 172.691 71.6096 172.691 72.2142V75.2239H171.876C171.873 75.2124 171.843 75.1193 171.784 74.9424C171.725 74.7661 171.696 74.6723 171.696 74.6615C171.467 74.885 171.241 75.0505 171.02 75.1566C170.802 75.2604 170.536 75.312 170.223 75.312ZM170.521 74.5311C170.775 74.5311 170.997 74.4709 171.184 74.3506C171.374 74.2274 171.51 74.0791 171.591 73.9057V73.0159C171.583 73.0159 171.508 73.0216 171.368 73.0324C171.232 73.0438 171.157 73.0496 171.146 73.0496C170.701 73.089 170.375 73.1728 170.168 73.301C169.961 73.43 169.857 73.637 169.857 73.9229C169.857 74.1185 169.915 74.2696 170.029 74.3757C170.144 74.4795 170.308 74.5311 170.521 74.5311ZM175.415 75.2869C175.099 75.2869 174.836 75.2504 174.626 75.1781C174.419 75.1021 174.255 74.9832 174.134 74.8213C174.015 74.6587 173.93 74.4652 173.883 74.2417C173.836 74.0175 173.811 73.7395 173.811 73.4064V68.9105L174.911 68.8391V73.3856C174.911 73.7997 174.961 74.0805 175.059 74.2288C175.156 74.3742 175.347 74.4473 175.629 74.4473C175.769 74.4473 175.947 74.4323 176.163 74.4015L176.192 75.1859C176.189 75.1859 176.154 75.1931 176.087 75.2074C176.022 75.221 175.959 75.2325 175.898 75.2404C175.839 75.2518 175.764 75.2619 175.671 75.2698C175.579 75.2812 175.494 75.2869 175.415 75.2869ZM177.955 75.312C177.527 75.312 177.179 75.1945 176.913 74.9595C176.651 74.7217 176.519 74.38 176.519 73.9351C176.519 73.4565 176.676 73.1026 176.989 72.8733C177.302 72.6412 177.776 72.4936 178.408 72.4327C178.495 72.4213 178.588 72.4098 178.689 72.3991C178.79 72.3876 178.904 72.3761 179.03 72.3654C179.155 72.3539 179.255 72.3439 179.328 72.336V72.0924C179.328 71.8123 179.263 71.6096 179.134 71.4837C179.005 71.355 178.81 71.2906 178.547 71.2906C178.172 71.2906 177.709 71.3955 177.157 71.6054C177.154 71.597 177.108 71.4697 177.019 71.2234C176.929 70.9772 176.883 70.8512 176.881 70.8457C177.423 70.6134 178.011 70.4972 178.643 70.4972C179.265 70.4972 179.717 70.633 179.999 70.9044C180.282 71.1731 180.423 71.6096 180.423 72.2142V75.2239H179.609C179.606 75.2124 179.575 75.1193 179.516 74.9424C179.457 74.7661 179.428 74.6723 179.428 74.6615C179.199 74.885 178.973 75.0505 178.753 75.1566C178.534 75.2604 178.268 75.312 177.955 75.312ZM178.253 74.5311C178.508 74.5311 178.729 74.4709 178.916 74.3506C179.106 74.2274 179.242 74.0791 179.324 73.9057V73.0159C179.315 73.0159 179.24 73.0216 179.101 73.0324C178.964 73.0438 178.889 73.0496 178.879 73.0496C178.433 73.089 178.107 73.1728 177.9 73.301C177.693 73.43 177.59 73.637 177.59 73.9229C177.59 74.1185 177.647 74.2696 177.762 74.3757C177.876 74.4795 178.04 74.5311 178.253 74.5311ZM181.532 75.2239V70.6105H182.417L182.539 71.1941C183.009 70.7295 183.531 70.4972 184.104 70.4972C184.641 70.4972 185.043 70.6525 185.309 70.9631C185.578 71.271 185.713 71.7185 185.713 72.3067V75.2239H184.609V72.4406C184.606 72.0688 184.545 71.7901 184.428 71.6054C184.311 71.4207 184.099 71.3284 183.794 71.3284C183.556 71.3284 183.338 71.3899 183.139 71.5131C182.943 71.6334 182.8 71.7858 182.711 71.9706C182.658 72.1892 182.631 72.5244 182.631 72.9779V75.2239H181.532ZM188.815 75.312C188.109 75.312 187.559 75.1021 187.165 74.6823C186.773 74.2625 186.577 73.6621 186.577 72.8812C186.577 72.1261 186.783 71.5397 187.194 71.1227C187.608 70.7057 188.153 70.4972 188.827 70.4972C189.367 70.4972 189.823 70.6134 190.195 70.8457L189.935 71.6306C189.555 71.4319 189.201 71.3326 188.873 71.3326C188.501 71.3326 188.207 71.4655 187.991 71.7314C187.779 71.9972 187.673 72.3847 187.673 72.8941C187.673 73.4092 187.777 73.8011 187.987 74.0698C188.2 74.3384 188.499 74.4724 188.886 74.4724C189.289 74.4724 189.676 74.3535 190.048 74.1156L190.154 74.951C189.96 75.0799 189.76 75.1723 189.553 75.2282C189.346 75.2841 189.1 75.312 188.815 75.312ZM193.125 75.312C192.384 75.312 191.806 75.0993 191.392 74.6737C190.98 74.246 190.775 73.6557 190.775 72.9027C190.775 72.1691 190.97 71.5859 191.359 71.1521C191.747 70.7183 192.278 70.5 192.949 70.4972C193.585 70.4972 194.077 70.6959 194.427 71.0933C194.78 71.4907 194.956 72.0179 194.956 72.6756C194.956 72.7236 194.954 72.8003 194.951 72.907C194.951 73.013 194.951 73.0911 194.951 73.142H191.883C191.894 73.5726 192.012 73.9071 192.236 74.145C192.463 74.38 192.773 74.4975 193.168 74.4975C193.671 74.4975 194.156 74.3664 194.62 74.1034L194.775 74.8836C194.313 75.1695 193.764 75.312 193.125 75.312ZM191.904 72.4492H193.919C193.919 72.0745 193.834 71.7858 193.663 71.5844C193.492 71.383 193.256 71.2822 192.953 71.2822C192.671 71.2822 192.432 71.3802 192.236 71.576C192.043 71.7722 191.932 72.0631 191.904 72.4492ZM195.716 75.249V74.1364H196.828V75.249H195.716ZM195.716 71.6934V70.5812H196.828V71.6934H195.716ZM199.859 75.2239L199.834 74.3169L201.777 72.1175C202.017 71.8603 202.193 71.6236 202.302 71.4081C202.414 71.1898 202.47 70.9604 202.47 70.7197C202.47 70.4538 202.383 70.2426 202.209 70.0858C202.036 69.9264 201.808 69.8465 201.525 69.8465C201.265 69.8465 201.007 69.8955 200.753 69.9935C200.501 70.0886 200.294 70.209 200.132 70.3545L199.817 69.5234C200.236 69.1539 200.827 68.9692 201.588 68.9692C202.193 68.9692 202.678 69.1217 203.045 69.4268C203.414 69.729 203.599 70.1572 203.599 70.7113C203.599 71.1031 203.494 71.4767 203.284 71.8324C203.077 72.1877 202.793 72.5524 202.432 72.9278L201.047 74.3972H203.528L203.452 75.2239H199.859ZM206.353 75.312C205.953 75.312 205.592 75.249 205.269 75.1229C204.951 74.9947 204.692 74.7984 204.493 74.5354C204.294 74.2696 204.195 73.9551 204.195 73.5912C204.195 72.8547 204.557 72.326 205.282 72.0043C204.636 71.6963 204.313 71.215 204.313 70.5602C204.313 70.3028 204.366 70.0719 204.472 69.8675C204.579 69.6633 204.724 69.4968 204.909 69.368C205.096 69.2365 205.312 69.1371 205.555 69.07C205.802 69.0028 206.067 68.9692 206.353 68.9692C206.946 68.9692 207.433 69.1078 207.813 69.3848C208.197 69.6618 208.389 70.0537 208.389 70.5602C208.389 71.2067 208.089 71.6877 207.49 72.0043C208.164 72.3317 208.502 72.8619 208.502 73.5955C208.502 73.9587 208.403 74.2739 208.204 74.5397C208.008 74.8027 207.749 74.9975 207.427 75.1229C207.108 75.249 206.75 75.312 206.353 75.312ZM205.521 74.2918C205.723 74.4631 206 74.5483 206.353 74.5483C206.705 74.5483 206.981 74.4631 207.179 74.2918C207.378 74.1213 207.478 73.8806 207.478 73.5697C207.478 73.2624 207.374 73.0073 207.167 72.806C206.96 72.6047 206.689 72.4607 206.353 72.3733C206.009 72.4607 205.733 72.6047 205.526 72.806C205.322 73.0073 205.219 73.2638 205.219 73.574C205.219 73.8821 205.32 74.1213 205.521 74.2918ZM206.353 71.7185C206.697 71.6404 206.961 71.5047 207.146 71.3116C207.33 71.1157 207.423 70.8666 207.423 70.5644C207.423 70.3125 207.323 70.1096 207.121 69.9557C206.919 69.8018 206.663 69.7248 206.353 69.7248C206.045 69.7248 205.789 69.8018 205.585 69.9557C205.38 70.1096 205.278 70.3125 205.278 70.5644C205.278 70.8666 205.373 71.1157 205.564 71.3116C205.754 71.5075 206.017 71.6432 206.353 71.7185ZM211.188 75.312C210.789 75.312 210.428 75.249 210.105 75.1229C209.786 74.9947 209.528 74.7984 209.329 74.5354C209.13 74.2696 209.031 73.9551 209.031 73.5912C209.031 72.8547 209.393 72.326 210.118 72.0043C209.472 71.6963 209.149 71.215 209.149 70.5602C209.149 70.3028 209.202 70.0719 209.308 69.8675C209.415 69.6633 209.56 69.4968 209.745 69.368C209.932 69.2365 210.147 69.1371 210.391 69.07C210.637 69.0028 210.903 68.9692 211.188 68.9692C211.782 68.9692 212.269 69.1078 212.649 69.3848C213.032 69.6618 213.224 70.0537 213.224 70.5602C213.224 71.2067 212.925 71.6877 212.326 72.0043C213 72.3317 213.338 72.8619 213.338 73.5955C213.338 73.9587 213.239 74.2739 213.04 74.5397C212.844 74.8027 212.585 74.9975 212.263 75.1229C211.944 75.249 211.586 75.312 211.188 75.312ZM210.357 74.2918C210.559 74.4631 210.836 74.5483 211.188 74.5483C211.541 74.5483 211.817 74.4631 212.015 74.2918C212.214 74.1213 212.314 73.8806 212.314 73.5697C212.314 73.2624 212.21 73.0073 212.003 72.806C211.796 72.6047 211.524 72.4607 211.188 72.3733C210.844 72.4607 210.569 72.6047 210.362 72.806C210.157 73.0073 210.055 73.2638 210.055 73.574C210.055 73.8821 210.156 74.1213 210.357 74.2918ZM211.188 71.7185C211.533 71.6404 211.797 71.5047 211.982 71.3116C212.166 71.1157 212.259 70.8666 212.259 70.5644C212.259 70.3125 212.158 70.1096 211.956 69.9557C211.755 69.8018 211.499 69.7248 211.188 69.7248C210.881 69.7248 210.625 69.8018 210.42 69.9557C210.216 70.1096 210.114 70.3125 210.114 70.5644C210.114 70.8666 210.209 71.1157 210.4 71.3116C210.589 71.5075 210.852 71.6432 211.188 71.7185ZM216.024 75.312C215.624 75.312 215.263 75.249 214.941 75.1229C214.622 74.9947 214.364 74.7984 214.164 74.5354C213.966 74.2696 213.866 73.9551 213.866 73.5912C213.866 72.8547 214.229 72.326 214.954 72.0043C214.308 71.6963 213.985 71.215 213.985 70.5602C213.985 70.3028 214.038 70.0719 214.144 69.8675C214.25 69.6633 214.396 69.4968 214.581 69.368C214.768 69.2365 214.983 69.1371 215.227 69.07C215.473 69.0028 215.739 68.9692 216.024 68.9692C216.617 68.9692 217.105 69.1078 217.485 69.3848C217.868 69.6618 218.06 70.0537 218.06 70.5602C218.06 71.2067 217.761 71.6877 217.162 72.0043C217.836 72.3317 218.173 72.8619 218.173 73.5955C218.173 73.9587 218.075 74.2739 217.875 74.5397C217.68 74.8027 217.42 74.9975 217.099 75.1229C216.78 75.249 216.422 75.312 216.024 75.312ZM215.193 74.2918C215.394 74.4631 215.672 74.5483 216.024 74.5483C216.377 74.5483 216.652 74.4631 216.851 74.2918C217.05 74.1213 217.15 73.8806 217.15 73.5697C217.15 73.2624 217.046 73.0073 216.839 72.806C216.632 72.6047 216.36 72.4607 216.024 72.3733C215.68 72.4607 215.404 72.6047 215.197 72.806C214.993 73.0073 214.891 73.2638 214.891 73.574C214.891 73.8821 214.992 74.1213 215.193 74.2918ZM216.024 71.7185C216.369 71.6404 216.633 71.5047 216.818 71.3116C217.002 71.1157 217.094 70.8666 217.094 70.5644C217.094 70.3125 216.994 70.1096 216.792 69.9557C216.591 69.8018 216.335 69.7248 216.024 69.7248C215.717 69.7248 215.46 69.8018 215.256 69.9557C215.052 70.1096 214.95 70.3125 214.95 70.5644C214.95 70.8666 215.045 71.1157 215.235 71.3116C215.425 71.5075 215.688 71.6432 216.024 71.7185ZM220.86 75.312C220.46 75.312 220.099 75.249 219.777 75.1229C219.458 74.9947 219.199 74.7984 219 74.5354C218.802 74.2696 218.702 73.9551 218.702 73.5912C218.702 72.8547 219.065 72.326 219.79 72.0043C219.143 71.6963 218.82 71.215 218.82 70.5602C218.82 70.3028 218.873 70.0719 218.979 69.8675C219.086 69.6633 219.232 69.4968 219.416 69.368C219.603 69.2365 219.819 69.1371 220.063 69.07C220.309 69.0028 220.575 68.9692 220.86 68.9692C221.453 68.9692 221.94 69.1078 222.321 69.3848C222.704 69.6618 222.896 70.0537 222.896 70.5602C222.896 71.2067 222.597 71.6877 221.998 72.0043C222.672 72.3317 223.009 72.8619 223.009 73.5955C223.009 73.9587 222.91 74.2739 222.711 74.5397C222.516 74.8027 222.256 74.9975 221.935 75.1229C221.616 75.249 221.258 75.312 220.86 75.312ZM220.029 74.2918C220.23 74.4631 220.508 74.5483 220.86 74.5483C221.212 74.5483 221.488 74.4631 221.687 74.2918C221.886 74.1213 221.985 73.8806 221.985 73.5697C221.985 73.2624 221.882 73.0073 221.675 72.806C221.468 72.6047 221.196 72.4607 220.86 72.3733C220.516 72.4607 220.24 72.6047 220.033 72.806C219.829 73.0073 219.727 73.2638 219.727 73.574C219.727 73.8821 219.828 74.1213 220.029 74.2918ZM220.86 71.7185C221.205 71.6404 221.469 71.5047 221.654 71.3116C221.838 71.1157 221.93 70.8666 221.93 70.5644C221.93 70.3125 221.83 70.1096 221.628 69.9557C221.427 69.8018 221.171 69.7248 220.86 69.7248C220.553 69.7248 220.296 69.8018 220.092 69.9557C219.888 70.1096 219.785 70.3125 219.785 70.5644C219.785 70.8666 219.881 71.1157 220.071 71.3116C220.261 71.5075 220.524 71.6432 220.86 71.7185ZM224.298 75.2991C224.116 75.2991 223.962 75.2368 223.836 75.1107C223.711 74.9846 223.648 74.8349 223.648 74.6615C223.648 74.4853 223.709 74.3327 223.832 74.2037C223.958 74.0748 224.113 74.011 224.298 74.011C224.477 74.011 224.628 74.0748 224.752 74.2037C224.875 74.3327 224.936 74.4853 224.936 74.6615C224.936 74.8349 224.875 74.9846 224.752 75.1107C224.628 75.2368 224.477 75.2991 224.298 75.2991ZM225.616 75.2239L225.591 74.3169L227.535 72.1175C227.776 71.8603 227.95 71.6236 228.059 71.4081C228.171 71.1898 228.227 70.9604 228.227 70.7197C228.227 70.4538 228.14 70.2426 227.967 70.0858C227.793 69.9264 227.566 69.8465 227.283 69.8465C227.023 69.8465 226.765 69.8955 226.51 69.9935C226.258 70.0886 226.051 70.209 225.889 70.3545L225.574 69.5234C225.994 69.1539 226.584 68.9692 227.346 68.9692C227.95 68.9692 228.435 69.1217 228.802 69.4268C229.172 69.729 229.357 70.1572 229.357 70.7113C229.357 71.1031 229.251 71.4767 229.041 71.8324C228.834 72.1877 228.551 72.5524 228.19 72.9278L226.804 74.3972H229.285L229.209 75.2239H225.616ZM231.719 75.312C231.358 75.312 231.019 75.2662 230.7 75.1738C230.383 75.0785 230.133 74.951 229.948 74.7912L230.251 73.9981C230.404 74.1271 230.617 74.2331 230.888 74.3169C231.16 74.3986 231.439 74.4387 231.724 74.4387C232.045 74.4387 232.305 74.352 232.5 74.1787C232.7 74.0053 232.798 73.7782 232.798 73.4988C232.798 73.3254 232.77 73.1757 232.715 73.0496C232.662 72.9235 232.59 72.8225 232.5 72.7472C232.411 72.672 232.29 72.6118 232.139 72.5667C231.991 72.5194 231.838 72.4872 231.682 72.47C231.525 72.4535 231.336 72.4435 231.116 72.4406C231.107 72.4406 231.066 72.4406 230.994 72.4406C230.921 72.4378 230.881 72.4363 230.872 72.4363V71.5887H231.107C231.351 71.5887 231.559 71.576 231.732 71.5508C231.909 71.5257 232.071 71.4823 232.22 71.4207C232.371 71.3592 232.484 71.2682 232.559 71.1478C232.638 71.0276 232.677 70.8792 232.677 70.7029C232.677 70.465 232.587 70.2621 232.408 70.0942C232.229 69.9263 231.977 69.8424 231.653 69.8424C231.126 69.8424 230.658 69.9739 230.246 70.237L229.944 69.4394C230.454 69.126 231.058 68.9692 231.757 68.9692C232.343 68.9692 232.82 69.1232 233.189 69.431C233.561 69.7389 233.747 70.1334 233.747 70.6148C233.747 70.9506 233.66 71.2374 233.487 71.4753C233.316 71.7106 233.067 71.8825 232.74 71.9914C233.115 72.0645 233.404 72.245 233.609 72.533C233.816 72.821 233.92 73.1613 233.92 73.5532C233.92 73.9258 233.82 74.2474 233.622 74.5189C233.422 74.7876 233.159 74.9875 232.832 75.1193C232.505 75.2475 232.134 75.312 231.719 75.312Z" fill="#666666"/>
<path d="M49.583 99.0125C49.1212 99.0125 48.6455 98.938 48.1558 98.789C47.666 98.635 47.2929 98.4902 47.0364 98.3548C46.7798 98.2151 46.6096 98.1077 46.5256 98.0332L47.0853 96.7178C47.1739 96.788 47.3022 96.8762 47.4702 96.9836C47.6427 97.0861 47.9179 97.205 48.2957 97.3404C48.6781 97.4758 49.0443 97.5431 49.3941 97.5431C50.0471 97.5431 50.5415 97.3612 50.8773 96.9979C51.2132 96.634 51.381 96.1583 51.381 95.5701C51.381 95.0156 51.2271 94.57 50.9193 94.234C50.6161 93.898 50.222 93.7304 49.7369 93.7304C49.1585 93.7304 48.6409 93.9825 48.1837 94.4862L46.9594 94.2483L47.2253 88.6653H52.7943L52.6893 90.106H48.8484C48.8484 90.1905 48.8321 90.6125 48.7994 91.3726C48.7715 92.1284 48.7551 92.5504 48.7505 92.6393C49.1609 92.42 49.5923 92.3104 50.0448 92.3104C50.9869 92.3104 51.7448 92.6135 52.3185 93.2196C52.8969 93.8256 53.1861 94.6166 53.1861 95.5916C53.1861 96.6268 52.8689 97.4572 52.2346 98.0819C51.6049 98.7023 50.7211 99.0125 49.583 99.0125ZM54.3475 98.8656L54.3055 97.3547L57.5447 93.6881C57.9458 93.259 58.2373 92.8649 58.4193 92.506C58.6059 92.1421 58.6992 91.7595 58.6992 91.3583C58.6992 90.9156 58.5546 90.5631 58.2654 90.3023C57.9762 90.0365 57.5961 89.9033 57.125 89.9033C56.6912 89.9033 56.2621 89.9849 55.8376 90.1483C55.4179 90.3066 55.0727 90.5072 54.8022 90.7501L54.2775 89.3645C54.9771 88.7491 55.9613 88.441 57.2299 88.441C58.2374 88.441 59.0466 88.6954 59.6576 89.204C60.2733 89.7077 60.5811 90.4212 60.5811 91.3447C60.5811 91.9973 60.4062 92.6206 60.0564 93.2124C59.7112 93.8049 59.2378 94.4138 58.6362 95.0385L56.3274 97.4873H60.4622L60.3362 98.8656H54.3475ZM61.7215 98.8656L61.6795 97.3547L64.9188 93.6881C65.3199 93.259 65.6114 92.8649 65.7933 92.506C65.9799 92.1421 66.0732 91.7595 66.0732 91.3583C66.0732 90.9156 65.9286 90.5631 65.6395 90.3023C65.3502 90.0365 64.9701 89.9033 64.4991 89.9033C64.0653 89.9033 63.6362 89.9849 63.2117 90.1483C62.792 90.3066 62.4468 90.5072 62.1763 90.7501L61.6516 89.3645C62.3512 88.7491 63.3353 88.441 64.604 88.441C65.6114 88.441 66.4207 88.6954 67.0317 89.204C67.6474 89.7077 67.9552 90.4212 67.9552 91.3447C67.9552 91.9973 67.7803 92.6206 67.4305 93.2124C67.0853 93.8049 66.6119 94.4138 66.0103 95.0385L63.7015 97.4873H67.8363L67.7103 98.8656H61.7215ZM70.215 98.9917C69.9118 98.9917 69.6553 98.8864 69.4454 98.6765C69.2355 98.4666 69.1306 98.2173 69.1306 97.9278C69.1306 97.6341 69.2332 97.3798 69.4384 97.1656C69.6483 96.9507 69.9072 96.8439 70.215 96.8439C70.5135 96.8439 70.7654 96.9507 70.9706 97.1656C71.1758 97.3798 71.2785 97.6341 71.2785 97.9278C71.2785 98.2173 71.1758 98.4666 70.9706 98.6765C70.7654 98.8864 70.5135 98.9917 70.215 98.9917ZM76.1199 99.0125C74.9818 99.0125 74.0559 98.7023 73.3423 98.0819C72.6287 97.4615 72.2719 96.6433 72.2719 95.6267C72.2719 95.3 72.3069 94.9877 72.3769 94.6889C72.4468 94.3902 72.5541 94.0986 72.6987 93.8142C72.8433 93.5298 72.9878 93.2783 73.1325 93.0591C73.277 92.8399 73.4636 92.5784 73.6921 92.2753L76.6026 88.6022H78.7715L75.5952 92.6113C75.9356 92.4945 76.2202 92.4358 76.4487 92.4358C77.4515 92.4358 78.2723 92.7367 78.9114 93.3385C79.5504 93.9353 79.8699 94.7147 79.8699 95.6754C79.8699 96.6734 79.5201 97.4801 78.8204 98.0962C78.1208 98.7073 77.2206 99.0125 76.1199 99.0125ZM76.0359 97.6133C76.6516 97.6133 77.1319 97.4385 77.4771 97.0889C77.8269 96.7343 78.0018 96.2701 78.0018 95.6962C78.0018 95.0944 77.8386 94.6216 77.5121 94.2763C77.1856 93.9259 76.7005 93.7511 76.0569 93.7511C75.4039 93.7511 74.9235 93.9259 74.6157 94.2763C74.3078 94.6259 74.1539 95.1037 74.1539 95.7105C74.1539 96.2837 74.3171 96.7458 74.6436 97.0954C74.9702 97.4407 75.4342 97.6133 76.0359 97.6133ZM84.5573 99.0125C83.4193 99.0125 82.4935 98.7023 81.7798 98.0819C81.0662 97.4615 80.7094 96.6433 80.7094 95.6267C80.7094 95.3 80.7444 94.9877 80.8143 94.6889C80.8843 94.3902 80.9916 94.0986 81.1361 93.8142C81.2808 93.5298 81.4254 93.2783 81.5699 93.0591C81.7145 92.8399 81.9011 92.5784 82.1297 92.2753L85.0401 88.6022H87.2089L84.0326 92.6113C84.3731 92.4945 84.6576 92.4358 84.8862 92.4358C85.889 92.4358 86.7099 92.7367 87.3489 93.3385C87.9878 93.9353 88.3074 94.7147 88.3074 95.6754C88.3074 96.6734 87.9575 97.4801 87.2579 98.0962C86.5583 98.7073 85.6581 99.0125 84.5573 99.0125ZM84.4734 97.6133C85.0891 97.6133 85.5695 97.4385 85.9147 97.0889C86.2644 96.7343 86.4394 96.2701 86.4394 95.6962C86.4394 95.0944 86.2761 94.6216 85.9496 94.2763C85.6231 93.9259 85.1381 93.7511 84.4944 93.7511C83.8414 93.7511 83.361 93.9259 83.0531 94.2763C82.7453 94.6259 82.5914 95.1037 82.5914 95.7105C82.5914 96.2837 82.7547 96.7458 83.0811 97.0954C83.4076 97.4407 83.8717 97.6133 84.4734 97.6133Z" fill="#E4E4E4"/>
<path d="M46.4543 75.2239V69.0742H50.0938L50.0518 69.9767H47.5835V71.7228H49.93V72.6169H47.5835V75.2239H46.4543ZM50.9878 75.2239V70.6105H51.9114L52.0541 71.3158C52.3563 70.8316 52.7943 70.5895 53.368 70.5895C53.4883 70.5895 53.5863 70.5952 53.6618 70.6064L53.645 71.5257C53.5331 71.5089 53.4169 71.5005 53.2966 71.5005C52.8909 71.5005 52.5872 71.6082 52.3857 71.8238C52.187 72.0394 52.0877 72.3389 52.0877 72.7222V75.2239H50.9878ZM56.3022 74.4767C56.6744 74.4767 56.9542 74.3413 57.1418 74.0698C57.3293 73.7982 57.423 73.4092 57.423 72.9027C57.423 72.3905 57.3293 72 57.1418 71.7314C56.9542 71.4627 56.6716 71.3284 56.2939 71.3284C55.9216 71.3284 55.6403 71.4641 55.4501 71.7357C55.2626 72.0043 55.1688 72.3948 55.1688 72.907C55.1688 73.4106 55.264 73.7982 55.4543 74.0698C55.6446 74.3413 55.9272 74.4767 56.3022 74.4767ZM56.2729 75.312C55.59 75.312 55.0527 75.0906 54.6609 74.6486C54.2691 74.2066 54.0732 73.6249 54.0732 72.9027C54.0732 72.1584 54.2691 71.5718 54.6609 71.1437C55.0527 70.7127 55.6054 70.4972 56.319 70.4972C57.0074 70.4972 57.5462 70.7169 57.9352 71.1563C58.3269 71.5928 58.5228 72.1748 58.5228 72.9027C58.5228 73.6385 58.3255 74.2245 57.9309 74.6615C57.5363 75.0949 56.9836 75.312 56.2729 75.312ZM59.4212 75.2239V70.6105H60.3111L60.437 71.1983C60.493 71.1283 60.5462 71.0667 60.5965 71.0135C60.6497 70.9576 60.721 70.896 60.8106 70.8288C60.903 70.7589 60.9995 70.7015 61.1002 70.6567C61.2038 70.612 61.3298 70.5742 61.4781 70.5434C61.6292 70.5126 61.7901 70.4972 61.9608 70.4972C62.3274 70.4972 62.6198 70.5714 62.8381 70.7197C63.0592 70.868 63.2145 71.0415 63.3041 71.2403C63.4692 71.0023 63.6833 70.8191 63.9463 70.6903C64.2094 70.5616 64.5019 70.4972 64.8237 70.4972C65.3526 70.4972 65.7402 70.6469 65.9865 70.9464C66.2355 71.2458 66.36 71.6891 66.36 72.2773V75.2239H65.256V72.6047C65.256 72.1541 65.2057 71.8295 65.1049 71.6306C65.007 71.4291 64.8181 71.3284 64.5382 71.3284C64.11 71.3284 63.8022 71.5215 63.6147 71.9076C63.5363 72.0781 63.4832 72.2837 63.4552 72.5244V75.2239H62.3554V72.5538C62.3554 72.1426 62.3008 71.836 62.1917 71.6348C62.0825 71.4333 61.8852 71.3326 61.5998 71.3326C61.3675 71.3326 61.1674 71.3914 60.9995 71.5089C60.8316 71.6264 60.7043 71.7801 60.6175 71.9706C60.5532 72.2536 60.5209 72.5918 60.5209 72.9865V75.2239H59.4212ZM70.7425 76.3823C69.9506 75.2991 69.5545 74.0776 69.5545 72.7179C69.5545 71.3298 69.9491 70.083 70.7383 68.9776H71.729C71.4492 69.3778 71.1903 69.9291 70.9524 70.6315C70.7146 71.3312 70.5956 72.0237 70.5956 72.7093C70.5956 73.3813 70.7146 74.064 70.9524 74.7582C71.1931 75.4517 71.4505 75.9933 71.7248 76.3823H70.7425ZM74.5835 75.312C73.8419 75.312 73.264 75.0992 72.8498 74.6737C72.4384 74.246 72.2327 73.6557 72.2327 72.9027C72.2327 72.1691 72.4272 71.5859 72.8162 71.1521C73.2052 70.7183 73.7355 70.5 74.4072 70.4972C75.0424 70.4972 75.535 70.6959 75.8848 71.0933C76.2373 71.4907 76.4137 72.0179 76.4137 72.6756C76.4137 72.7236 76.4123 72.8003 76.4095 72.907C76.4095 73.013 76.4095 73.0911 76.4095 73.142H73.3409C73.3521 73.5726 73.4697 73.9071 73.6936 74.145C73.9202 74.38 74.2309 74.4975 74.6254 74.4975C75.1292 74.4975 75.6133 74.3663 76.0779 74.1034L76.2332 74.8836C75.7715 75.1695 75.2215 75.312 74.5835 75.312ZM73.3619 72.4492H75.3769C75.3769 72.0745 75.2915 71.7858 75.1208 71.5844C74.9501 71.383 74.7136 71.2822 74.4113 71.2822C74.1287 71.2822 73.8894 71.3802 73.6936 71.576C73.5004 71.7722 73.3899 72.0631 73.3619 72.4492ZM78.7854 75.3077C78.1054 75.3077 77.5611 75.1917 77.1525 74.9595L77.2658 74.1328C77.4505 74.2331 77.6856 74.3241 77.9711 74.405C78.2565 74.4838 78.5168 74.5225 78.7518 74.5225C78.9953 74.5225 79.1842 74.4781 79.3185 74.3886C79.4556 74.2961 79.5256 74.1622 79.5284 73.9852C79.5284 73.8262 79.4641 73.7001 79.3354 73.6077C79.2094 73.5152 78.9673 73.4006 78.6091 73.2638C78.486 73.2186 78.4062 73.1893 78.3698 73.1757C77.9445 73.0102 77.638 72.8268 77.4505 72.6255C77.263 72.4213 77.1693 72.1455 77.1693 71.7987C77.1693 71.3787 77.3204 71.0569 77.6226 70.833C77.9277 70.6092 78.3516 70.4972 78.8945 70.4972C79.4822 70.4972 79.9985 70.6077 80.4435 70.8288L80.1707 71.5887C79.7313 71.3843 79.3129 71.2822 78.9155 71.2822C78.6944 71.2822 78.5209 71.32 78.3951 71.3955C78.2719 71.4683 78.2104 71.5803 78.2104 71.7314C78.2104 71.8739 78.2705 71.9857 78.3908 72.0674C78.5112 72.1455 78.7462 72.2493 79.0961 72.3776C79.1072 72.3804 79.1436 72.3933 79.2052 72.4155C79.2668 72.4378 79.3144 72.4564 79.3479 72.47C79.7705 72.624 80.0812 72.8089 80.2798 73.0245C80.4785 73.2373 80.5778 73.5152 80.5778 73.8598C80.575 74.3212 80.4184 74.678 80.1077 74.9302C79.7971 75.1816 79.3563 75.3077 78.7854 75.3077ZM83.2939 75.2869C82.9804 75.2869 82.7187 75.2504 82.5089 75.178C82.3018 75.1021 82.1394 74.9846 82.0219 74.8249C81.9044 74.6658 81.8204 74.4781 81.77 74.2625C81.7225 74.0447 81.6987 73.776 81.6987 73.4565V71.278H80.9431L80.9851 70.682L81.7743 70.6105L82.1269 69.3597L82.7984 69.3554V70.6105H83.9445V71.278H82.7984V73.4773C82.7984 73.8276 82.8489 74.0762 82.9496 74.2245C83.0503 74.3728 83.2365 74.4473 83.5079 74.4473C83.6674 74.4473 83.8381 74.433 84.02 74.405L84.0494 75.1945C84.0438 75.1945 84.0088 75.2017 83.9445 75.2153C83.8829 75.2268 83.8227 75.2368 83.764 75.2447C83.708 75.2561 83.6352 75.2662 83.5457 75.2741C83.4561 75.2826 83.3722 75.2869 83.2939 75.2869ZM84.8512 75.2239V70.6105H85.951V75.2239H84.8512ZM84.8512 69.9389V68.9986H85.9552V69.9389H84.8512ZM87.1012 75.2239V70.6105H87.9911L88.1171 71.1983C88.173 71.1283 88.2262 71.0667 88.2765 71.0135C88.3298 70.9576 88.4011 70.896 88.4907 70.8288C88.583 70.7589 88.6795 70.7015 88.7803 70.6567C88.8838 70.612 89.0098 70.5742 89.1581 70.5434C89.3092 70.5126 89.4702 70.4972 89.6408 70.4972C90.0075 70.4972 90.2999 70.5714 90.5181 70.7197C90.7392 70.868 90.8945 71.0415 90.9841 71.2403C91.1492 71.0023 91.3633 70.8191 91.6264 70.6903C91.8896 70.5616 92.1819 70.4972 92.5036 70.4972C93.0323 70.4972 93.4199 70.6469 93.6664 70.9464C93.9157 71.2458 94.0403 71.6891 94.0403 72.2773V75.2239H92.9363V72.6047C92.9363 72.1541 92.8855 71.8295 92.7852 71.6306C92.687 71.4291 92.4979 71.3284 92.2185 71.3284C91.7901 71.3284 91.4822 71.5215 91.2947 71.9076C91.2164 72.0781 91.1632 72.2837 91.1353 72.5244V75.2239H90.0354V72.5538C90.0354 72.1426 89.9808 71.836 89.8717 71.6348C89.7626 71.4333 89.5653 71.3326 89.2798 71.3326C89.0475 71.3326 88.8474 71.3914 88.6795 71.5089C88.5117 71.6264 88.3843 71.7801 88.2975 71.9706C88.2332 72.2536 88.201 72.5918 88.201 72.9865V75.2239H87.1012ZM96.3443 75.312C95.9166 75.312 95.5692 75.1945 95.3034 74.9595C95.0405 74.7217 94.9093 74.38 94.9093 73.9351C94.9093 73.4565 95.0655 73.1026 95.3793 72.8733C95.6924 72.6412 96.1652 72.4936 96.7978 72.4327C96.8845 72.4213 96.9784 72.4098 97.0794 72.3991C97.1797 72.3876 97.2936 72.3761 97.419 72.3654C97.545 72.3539 97.6446 72.3439 97.717 72.336V72.0924C97.717 71.8123 97.6532 71.6096 97.5243 71.4837C97.3953 71.355 97.1997 71.2906 96.9368 71.2906C96.5614 71.2906 96.0986 71.3955 95.547 71.6054C95.5441 71.597 95.4982 71.4697 95.4087 71.2234C95.3191 70.9772 95.2726 70.8512 95.2697 70.8457C95.8128 70.6134 96.4009 70.4972 97.0328 70.4972C97.6547 70.4972 98.106 70.633 98.389 70.9044C98.6713 71.1731 98.8131 71.6096 98.8131 72.2142V75.2239H97.9985C97.9957 75.2124 97.9649 75.1193 97.9061 74.9424C97.8474 74.7661 97.818 74.6723 97.818 74.6615C97.5888 74.885 97.3631 75.0505 97.1424 75.1566C96.9239 75.2604 96.6581 75.312 96.3443 75.312ZM96.6424 74.5311C96.8974 74.5311 97.1188 74.4709 97.3058 74.3506C97.4963 74.2274 97.6317 74.0791 97.7134 73.9057V73.0159C97.7048 73.0159 97.6303 73.0216 97.4906 73.0324C97.3538 73.0438 97.2793 73.0496 97.2685 73.0496C96.8229 73.089 96.4969 73.1728 96.2899 73.301C96.0828 73.43 95.9797 73.637 95.9797 73.9229C95.9797 74.1185 96.037 74.2696 96.1516 74.3757C96.2662 74.4795 96.4303 74.5311 96.6424 74.5311ZM101.764 75.2869C101.45 75.2869 101.189 75.2504 100.979 75.178C100.772 75.1021 100.61 74.9846 100.492 74.8249C100.374 74.6658 100.29 74.4781 100.24 74.2625C100.193 74.0447 100.169 73.776 100.169 73.4565V71.278H99.4135L99.455 70.682L100.245 70.6105L100.597 69.3597L101.269 69.3554V70.6105H102.415V71.278H101.269V73.4773C101.269 73.8276 101.319 74.0762 101.419 74.2245C101.52 74.3728 101.707 74.4473 101.978 74.4473C102.137 74.4473 102.309 74.433 102.49 74.405L102.52 75.1945C102.514 75.1945 102.479 75.2017 102.415 75.2153C102.353 75.2268 102.293 75.2368 102.234 75.2447C102.178 75.2561 102.105 75.2662 102.015 75.2741C101.926 75.2826 101.842 75.2869 101.764 75.2869ZM105.387 75.312C104.645 75.312 104.067 75.0992 103.653 74.6737C103.241 74.246 103.036 73.6557 103.036 72.9027C103.036 72.1691 103.231 71.5859 103.62 71.1521C104.009 70.7183 104.539 70.5 105.21 70.4972C105.845 70.4972 106.338 70.6959 106.688 71.0933C107.04 71.4907 107.217 72.0179 107.217 72.6756C107.217 72.7236 107.215 72.8003 107.212 72.907C107.212 73.013 107.212 73.0911 107.212 73.142H104.144C104.155 73.5726 104.273 73.9071 104.496 74.145C104.724 74.38 105.034 74.4975 105.429 74.4975C105.932 74.4975 106.416 74.3663 106.881 74.1034L107.036 74.8836C106.575 75.1695 106.025 75.312 105.387 75.312ZM104.165 72.4492H106.18C106.18 72.0745 106.095 71.7858 105.924 71.5844C105.753 71.383 105.517 71.2822 105.214 71.2822C104.932 71.2822 104.693 71.3802 104.496 71.576C104.304 71.7722 104.193 72.0631 104.165 72.4492ZM109.832 75.312C109.231 75.312 108.758 75.0906 108.413 74.6486C108.069 74.2066 107.897 73.6163 107.897 72.8776C107.897 72.1612 108.068 71.5859 108.409 71.1521C108.753 70.7155 109.226 70.4972 109.828 70.4972C110.483 70.4972 110.946 70.7295 111.217 71.1941C111.189 70.9198 111.176 70.6553 111.176 70.4007V68.9105L112.275 68.8391V75.2239H111.322L111.201 74.5942C111.153 74.6701 111.108 74.7353 111.066 74.7912C111.027 74.8449 110.969 74.908 110.89 74.9803C110.812 75.0505 110.726 75.1078 110.634 75.1523C110.544 75.1945 110.43 75.2311 110.289 75.2619C110.153 75.2955 110 75.312 109.832 75.312ZM110.092 74.4767C110.831 74.4767 111.206 73.9745 111.217 72.97C111.217 72.4019 111.122 71.9871 110.932 71.7271C110.741 71.4669 110.458 71.3368 110.079 71.3368C109.749 71.3368 109.485 71.4697 109.286 71.7357C109.09 71.9986 108.993 72.3876 108.993 72.9027C108.993 73.4149 109.09 73.8054 109.286 74.074C109.485 74.3427 109.754 74.4767 110.092 74.4767ZM113.018 76.3823C113.186 76.1416 113.351 75.8393 113.513 75.4761C113.676 75.115 113.821 74.6794 113.95 74.1701C114.079 73.6578 114.143 73.1714 114.143 72.7093C114.143 72.0265 114.024 71.3354 113.786 70.6357C113.551 69.9333 113.294 69.3807 113.014 68.9776H114C114.792 70.0942 115.188 71.341 115.188 72.7179C115.188 74.0726 114.791 75.2941 113.996 76.3823H113.018Z" fill="#666666"/>
<path d="M193.877 97.5502C192.802 97.5502 191.987 97.2837 191.431 96.75C190.875 96.2127 190.597 95.4568 190.597 94.4832V89.2333H192.119V94.3543C192.119 95.037 192.258 95.5357 192.534 95.8487C192.814 96.1625 193.271 96.3187 193.905 96.3187C194.528 96.3187 194.979 96.1625 195.259 95.8487C195.539 95.5314 195.679 95.0313 195.679 94.3486V89.2333H197.196V94.494C197.196 95.4604 196.912 96.2127 196.345 96.75C195.778 97.2837 194.955 97.5502 193.877 97.5502ZM201.192 97.5445C200.203 97.5445 199.317 97.3174 198.534 96.8617L198.903 95.6582C199.254 95.8523 199.635 96.0092 200.044 96.1288C200.459 96.2478 200.862 96.3079 201.254 96.3079C201.735 96.3079 202.099 96.2048 202.345 95.9999C202.591 95.7907 202.715 95.4927 202.715 95.1044C202.715 94.5893 202.371 94.2332 201.685 94.0355C201.636 94.0204 201.5 93.981 201.276 93.918C201.052 93.8506 200.841 93.7869 200.643 93.7274C200.45 93.6644 200.31 93.6157 200.224 93.582C199.123 93.1937 198.573 92.4701 198.573 91.4105C198.573 90.6676 198.836 90.0952 199.362 89.6918C199.892 89.2892 200.593 89.0879 201.467 89.0879C202.455 89.0879 203.308 89.2906 204.024 89.6976L203.566 90.8059C202.834 90.4777 202.155 90.313 201.528 90.313C201.077 90.313 200.735 90.3932 200.504 90.5537C200.276 90.7106 200.155 90.9735 200.14 91.3432C200.14 91.7981 200.365 92.0947 200.817 92.233C200.907 92.2666 201.127 92.3397 201.477 92.4515C201.828 92.5632 202.056 92.6363 202.161 92.67C202.91 92.9157 203.446 93.2216 203.767 93.5877C204.091 93.9531 204.254 94.4625 204.254 95.1158C204.254 95.8953 203.978 96.4964 203.425 96.9176C202.873 97.336 202.129 97.5445 201.192 97.5445ZM207.075 96.2184H208.161C209.097 96.2184 209.81 95.9741 210.299 95.4848C210.787 94.9926 211.031 94.2762 211.031 93.3355C211.031 92.3283 210.78 91.5968 210.276 91.1419C209.773 90.6826 209.013 90.4534 207.998 90.4534H207.075V96.2184ZM205.558 97.4327V89.2333H207.931C208.647 89.2333 209.289 89.315 209.857 89.4791C210.423 89.6438 210.91 89.8917 211.317 90.2241C211.728 90.5523 212.041 90.9778 212.257 91.5001C212.478 92.0188 212.587 92.6191 212.587 93.3019C212.587 94.6265 212.188 95.6474 211.39 96.3638C210.592 97.0767 209.485 97.4327 208.071 97.4327H205.558ZM217.602 97.5502C216.405 97.5502 215.455 97.1734 214.754 96.4197C214.053 95.666 213.702 94.6251 213.702 93.2968C213.702 92.0352 214.067 91.0244 214.798 90.2628C215.533 89.4977 216.494 89.1158 217.681 89.1158C218.64 89.1158 219.451 89.3379 220.116 89.7814L219.64 90.9291C219.002 90.5372 218.36 90.3416 217.715 90.3416C216.961 90.3416 216.364 90.6139 215.924 91.1583C215.487 91.6992 215.268 92.4271 215.268 93.3413C215.268 94.2891 215.48 95.022 215.901 95.5407C216.326 96.0593 216.931 96.3187 217.715 96.3187C218.401 96.3187 219.082 96.1475 219.757 95.8043L219.959 96.9907C219.332 97.3639 218.547 97.5502 217.602 97.5502Z" fill="#E4E4E4"/>
<path d="M228.478 91.7014L231.343 94.5671L234.209 91.7014" stroke="#E4E4E4"/>
<path d="M176.896 100.298C180.866 100.298 184.06 97.1047 184.06 93.1343C184.06 89.1639 180.866 85.9701 176.896 85.9701C172.925 85.9701 169.731 89.1639 169.731 93.1343C169.731 97.1047 172.925 100.298 176.896 100.298Z" fill="#2775CA"/>
<path d="M178.866 94.2684C178.866 93.2239 178.239 92.8657 176.985 92.7167C176.09 92.597 175.91 92.3584 175.91 91.94C175.91 91.5224 176.209 91.2537 176.806 91.2537C177.343 91.2537 177.642 91.4328 177.791 91.8806C177.821 91.9701 177.911 92.0296 178 92.0296H178.477C178.597 92.0296 178.687 91.9401 178.687 91.8211V91.791C178.567 91.1341 178.03 90.6269 177.343 90.5674V89.851C177.343 89.7313 177.254 89.6418 177.105 89.6117H176.657C176.537 89.6117 176.448 89.7012 176.418 89.851V90.5373C175.522 90.6569 174.956 91.2537 174.956 92.0002C174.956 92.9853 175.552 93.3729 176.806 93.5226C177.642 93.6716 177.911 93.8507 177.911 94.3286C177.911 94.8057 177.492 95.1346 176.926 95.1346C176.149 95.1346 175.88 94.8057 175.791 94.358C175.761 94.239 175.672 94.1788 175.582 94.1788H175.074C174.956 94.1788 174.866 94.2684 174.866 94.388V94.4181C174.985 95.1639 175.463 95.7012 176.448 95.851V96.5674C176.448 96.6863 176.537 96.7759 176.686 96.806H177.134C177.254 96.806 177.343 96.7164 177.373 96.5674V95.851C178.269 95.7012 178.866 95.0744 178.866 94.2684Z" fill="white"/>
<path d="M175.373 97.4027C173.045 96.5674 171.85 93.9704 172.717 91.6714C173.164 90.4177 174.149 89.4627 175.373 89.0149C175.493 88.9555 175.552 88.8659 175.552 88.7162V88.2985C175.552 88.1789 175.493 88.0893 175.373 88.0599C175.343 88.0599 175.284 88.0599 175.253 88.0893C172.418 88.9848 170.865 92.0002 171.761 94.8358C172.298 96.5072 173.582 97.791 175.253 98.3284C175.373 98.3878 175.493 98.3283 175.522 98.2087C175.552 98.1793 175.552 98.1493 175.552 98.0898V97.6714C175.552 97.5818 175.463 97.4629 175.373 97.4027ZM178.538 88.0893C178.418 88.0298 178.298 88.0893 178.269 88.209C178.239 88.239 178.239 88.2684 178.239 88.3286V88.7463C178.239 88.8659 178.328 88.9848 178.418 89.045C180.746 89.8804 181.94 92.4774 181.074 94.7764C180.627 96.0301 179.642 96.9851 178.418 97.4328C178.298 97.4923 178.239 97.5819 178.239 97.7316V98.1492C178.239 98.2689 178.298 98.3584 178.418 98.3878C178.448 98.3878 178.507 98.3878 178.538 98.3584C181.373 97.4629 182.926 94.4475 182.03 91.6119C181.493 89.9104 180.179 88.6266 178.538 88.0893Z" fill="white"/>
<path d="M127.463 85.9701H108.119C104.954 85.9701 102.388 88.5361 102.388 91.7014V94.5671C102.388 97.7324 104.954 100.298 108.119 100.298H127.463C130.628 100.298 133.194 97.7324 133.194 94.5671V91.7014C133.194 88.5361 130.628 85.9701 127.463 85.9701Z" fill="#273953"/>
<path d="M108.783 96.7164V90.5667H110.126L111.985 95.0077L113.858 90.5667H115.184V96.7164H114.134V93.6774L114.168 91.935L114.013 92.3971L112.439 96.2966H111.465L109.925 92.3756L109.769 91.9143L109.807 93.6938V96.7164H108.783ZM115.839 96.7164L118.102 90.5624H119.34L121.569 96.7164H120.402L119.793 94.9784H117.64L117.027 96.7164H115.839ZM117.926 94.1309H119.504C119 92.516 118.741 91.6821 118.727 91.6284L117.926 94.1309ZM121.514 96.7164L123.668 93.5677L121.674 90.5667H122.954L124.403 92.8585L125.893 90.5667H127.106L125.07 93.5849L127.215 96.7164H125.901L124.348 94.3236L122.762 96.7164H121.514Z" fill="white"/>
<path d="M160.06 224.327C159.782 224.327 159.497 224.283 159.204 224.193C158.91 224.101 158.686 224.014 158.532 223.932C158.378 223.848 158.276 223.784 158.225 223.74L158.561 222.95C158.614 222.992 158.691 223.045 158.792 223.11C158.896 223.171 159.06 223.242 159.287 223.324C159.517 223.405 159.737 223.446 159.947 223.446C160.338 223.446 160.635 223.336 160.836 223.118C161.038 222.9 161.139 222.614 161.139 222.262C161.139 221.928 161.046 221.661 160.861 221.46C160.679 221.259 160.443 221.158 160.152 221.158C159.805 221.158 159.494 221.309 159.22 221.611L158.486 221.468L158.645 218.118H161.986L161.924 218.983H159.619C159.619 219.033 159.609 219.287 159.59 219.743C159.573 220.196 159.563 220.45 159.56 220.503C159.806 220.372 160.065 220.306 160.337 220.306C160.902 220.306 161.357 220.488 161.701 220.851C162.048 221.215 162.222 221.689 162.222 222.274C162.222 222.896 162.031 223.393 161.651 223.769C161.273 224.141 160.742 224.327 160.06 224.327ZM162.918 224.239L162.893 223.332L164.837 221.132C165.078 220.875 165.252 220.639 165.361 220.423C165.474 220.205 165.53 219.975 165.53 219.735C165.53 219.469 165.443 219.258 165.269 219.101C165.095 218.941 164.868 218.861 164.585 218.861C164.325 218.861 164.067 218.91 163.812 219.008C163.561 219.104 163.354 219.224 163.191 219.369L162.877 218.538C163.297 218.169 163.887 217.985 164.648 217.985C165.252 217.985 165.738 218.136 166.105 218.442C166.474 218.744 166.659 219.172 166.659 219.726C166.659 220.118 166.553 220.492 166.343 220.847C166.136 221.203 165.853 221.567 165.492 221.943L164.106 223.412H166.587L166.512 224.239H162.918ZM167.343 224.239L167.318 223.332L169.261 221.132C169.502 220.875 169.677 220.639 169.786 220.423C169.898 220.205 169.954 219.975 169.954 219.735C169.954 219.469 169.867 219.258 169.693 219.101C169.52 218.941 169.292 218.861 169.009 218.861C168.749 218.861 168.492 218.91 168.237 219.008C167.985 219.104 167.778 219.224 167.616 219.369L167.301 218.538C167.72 218.169 168.311 217.985 169.072 217.985C169.677 217.985 170.163 218.136 170.529 218.442C170.898 218.744 171.083 219.172 171.083 219.726C171.083 220.118 170.978 220.492 170.768 220.847C170.561 221.203 170.277 221.567 169.916 221.943L168.531 223.412H171.012L170.936 224.239H167.343ZM172.439 224.314C172.257 224.314 172.103 224.252 171.977 224.126C171.851 224 171.788 223.85 171.788 223.676C171.788 223.5 171.85 223.348 171.973 223.219C172.099 223.09 172.254 223.026 172.439 223.026C172.618 223.026 172.769 223.09 172.892 223.219C173.015 223.348 173.077 223.5 173.077 223.676C173.077 223.85 173.015 224 172.892 224.126C172.769 224.252 172.618 224.314 172.439 224.314ZM175.982 224.327C175.299 224.327 174.743 224.141 174.315 223.769C173.887 223.396 173.673 222.906 173.673 222.295C173.673 222.1 173.694 221.912 173.736 221.733C173.778 221.554 173.842 221.379 173.929 221.208C174.016 221.037 174.103 220.886 174.19 220.755C174.276 220.623 174.388 220.466 174.525 220.284L176.272 218.081H177.573L175.667 220.486C175.871 220.416 176.042 220.381 176.179 220.381C176.781 220.381 177.273 220.561 177.656 220.923C178.04 221.281 178.232 221.748 178.232 222.325C178.232 222.924 178.022 223.408 177.602 223.777C177.182 224.144 176.642 224.327 175.982 224.327ZM175.931 223.487C176.301 223.487 176.589 223.383 176.796 223.173C177.006 222.96 177.111 222.681 177.111 222.337C177.111 221.976 177.013 221.692 176.817 221.485C176.621 221.275 176.33 221.17 175.944 221.17C175.552 221.17 175.264 221.275 175.079 221.485C174.895 221.695 174.802 221.982 174.802 222.345C174.802 222.69 174.9 222.967 175.096 223.177C175.292 223.384 175.57 223.487 175.931 223.487ZM181.044 224.327C180.362 224.327 179.806 224.141 179.378 223.769C178.95 223.396 178.735 222.906 178.735 222.295C178.735 222.1 178.757 221.912 178.798 221.733C178.841 221.554 178.905 221.379 178.992 221.208C179.078 221.037 179.165 220.886 179.252 220.755C179.339 220.623 179.45 220.466 179.588 220.284L181.334 218.081H182.635L180.73 220.486C180.934 220.416 181.104 220.381 181.241 220.381C181.843 220.381 182.336 220.561 182.719 220.923C183.103 221.281 183.295 221.748 183.295 222.325C183.295 222.924 183.085 223.408 182.665 223.777C182.245 224.144 181.705 224.327 181.044 224.327ZM180.994 223.487C181.363 223.487 181.652 223.383 181.859 223.173C182.069 222.96 182.173 222.681 182.173 222.337C182.173 221.976 182.075 221.692 181.88 221.485C181.684 221.275 181.393 221.17 181.006 221.17C180.614 221.17 180.326 221.275 180.142 221.485C179.957 221.695 179.865 221.982 179.865 222.345C179.865 222.69 179.963 222.967 180.159 223.177C180.354 223.384 180.633 223.487 180.994 223.487ZM188.865 224.327C188.059 224.327 187.448 224.127 187.03 223.727C186.613 223.324 186.405 222.757 186.405 222.027V218.089H187.547V221.93C187.547 222.442 187.65 222.816 187.857 223.051C188.067 223.286 188.41 223.404 188.886 223.404C189.353 223.404 189.691 223.286 189.901 223.051C190.111 222.813 190.217 222.438 190.217 221.926V218.089H191.354V222.035C191.354 222.76 191.142 223.324 190.716 223.727C190.29 224.127 189.674 224.327 188.865 224.327ZM194.351 224.323C193.61 224.323 192.945 224.152 192.357 223.81L192.635 222.908C192.897 223.054 193.183 223.171 193.491 223.261C193.802 223.35 194.104 223.395 194.398 223.395C194.759 223.395 195.031 223.318 195.216 223.164C195.401 223.007 195.493 222.784 195.493 222.492C195.493 222.106 195.236 221.839 194.721 221.691C194.684 221.68 194.582 221.65 194.414 221.602C194.246 221.552 194.088 221.505 193.94 221.46C193.794 221.413 193.689 221.376 193.625 221.351C192.799 221.059 192.387 220.517 192.387 219.722C192.387 219.165 192.584 218.735 192.978 218.433C193.376 218.131 193.902 217.98 194.557 217.98C195.299 217.98 195.938 218.133 196.475 218.437L196.131 219.268C195.583 219.023 195.073 218.899 194.603 218.899C194.264 218.899 194.009 218.96 193.835 219.08C193.664 219.197 193.573 219.394 193.562 219.672C193.562 220.013 193.731 220.236 194.07 220.339C194.137 220.364 194.302 220.419 194.565 220.503C194.828 220.587 194.999 220.642 195.078 220.667C195.64 220.851 196.042 221.081 196.283 221.355C196.525 221.629 196.647 222.012 196.647 222.501C196.647 223.086 196.44 223.537 196.026 223.853C195.612 224.166 195.054 224.323 194.351 224.323ZM198.763 223.328H199.577C200.28 223.328 200.815 223.145 201.181 222.778C201.547 222.408 201.731 221.871 201.731 221.166C201.731 220.41 201.542 219.862 201.164 219.521C200.787 219.177 200.217 219.004 199.456 219.004H198.763V223.328ZM197.626 224.239V218.089H199.405C199.943 218.089 200.424 218.151 200.85 218.274C201.275 218.397 201.64 218.583 201.945 218.832C202.253 219.078 202.488 219.397 202.65 219.789C202.816 220.178 202.898 220.629 202.898 221.141C202.898 222.134 202.598 222.9 202 223.437C201.401 223.972 200.571 224.239 199.51 224.239H197.626ZM206.659 224.327C205.761 224.327 205.049 224.045 204.522 223.479C203.996 222.913 203.733 222.133 203.733 221.137C203.733 220.191 204.008 219.432 204.556 218.861C205.107 218.288 205.828 218.001 206.718 218.001C207.437 218.001 208.045 218.167 208.544 218.5L208.187 219.361C207.709 219.067 207.227 218.92 206.743 218.92C206.178 218.92 205.73 219.124 205.4 219.533C205.072 219.939 204.909 220.485 204.909 221.17C204.909 221.881 205.067 222.431 205.383 222.82C205.702 223.209 206.155 223.404 206.743 223.404C207.258 223.404 207.769 223.275 208.275 223.017L208.427 223.907C207.956 224.187 207.367 224.327 206.659 224.327ZM211.612 226.157V219.626H212.557L212.674 220.272C212.825 220.028 213.026 219.841 213.275 219.71C213.527 219.575 213.806 219.508 214.114 219.508C214.492 219.508 214.823 219.613 215.109 219.823C215.397 220.033 215.616 220.319 215.764 220.683C215.912 221.044 215.986 221.453 215.986 221.909C215.986 222.623 215.813 223.205 215.466 223.656C215.121 224.103 214.654 224.327 214.064 224.327C213.773 224.327 213.508 224.27 213.27 224.155C213.035 224.038 212.838 223.879 212.678 223.681C212.701 224.083 212.712 224.311 212.712 224.361V226.103L211.612 226.157ZM213.829 223.487C214.156 223.487 214.414 223.351 214.601 223.076C214.791 222.802 214.886 222.41 214.886 221.9C214.886 221.383 214.791 220.994 214.601 220.733C214.411 220.473 214.146 220.343 213.808 220.343C213.08 220.343 212.712 220.839 212.704 221.83C212.704 222.401 212.797 222.82 212.985 223.089C213.176 223.355 213.457 223.487 213.829 223.487ZM219.017 224.327C218.276 224.327 217.698 224.114 217.284 223.689C216.872 223.261 216.667 222.671 216.667 221.918C216.667 221.184 216.861 220.601 217.25 220.167C217.639 219.733 218.169 219.515 218.841 219.512C219.477 219.512 219.969 219.711 220.318 220.108C220.672 220.506 220.848 221.033 220.848 221.691C220.848 221.739 220.846 221.815 220.843 221.922C220.843 222.028 220.843 222.106 220.843 222.157H217.775C217.786 222.588 217.903 222.922 218.128 223.16C218.354 223.395 218.665 223.512 219.06 223.512C219.563 223.512 220.047 223.381 220.512 223.118L220.667 223.899C220.205 224.184 219.656 224.327 219.017 224.327ZM217.796 221.464H219.81C219.81 221.089 219.725 220.801 219.555 220.599C219.384 220.398 219.148 220.297 218.845 220.297C218.562 220.297 218.323 220.395 218.128 220.591C217.934 220.787 217.824 221.078 217.796 221.464ZM221.75 224.239V219.626H222.673L222.816 220.331C223.119 219.846 223.557 219.604 224.13 219.604C224.251 219.604 224.348 219.61 224.424 219.622L224.407 220.541C224.295 220.524 224.179 220.516 224.059 220.516C223.653 220.516 223.35 220.623 223.148 220.839C222.949 221.054 222.85 221.354 222.85 221.737V224.239H221.75ZM227.476 224.239V218.089H231.204L231.157 218.992H228.613V220.579H231.031V221.481H228.613V223.332H231.249L231.211 224.239H227.476ZM233.5 224.239V219H231.707V218.089H236.426V219H234.642V224.239H233.5ZM237.089 224.239V218.089H238.226V220.604H241.005V218.089H242.143V224.239H241.005V221.502H238.226V224.239H237.089Z" fill="#E4E4E4"/>
<path d="M37.8279 224.239V218.073H39.8763C40.3605 218.073 40.7747 218.135 41.1189 218.261C41.4631 218.384 41.7346 218.586 41.9332 218.866C42.1348 219.146 42.2355 219.497 42.2355 219.92C42.2355 220.213 42.1977 220.475 42.1222 220.704C42.0466 220.931 41.9221 221.138 41.7486 221.326C41.575 221.51 41.3302 221.653 41.0139 221.754C40.7005 221.855 40.3213 221.905 39.8763 221.905C39.4958 221.905 39.1865 221.894 38.9486 221.871V224.239H37.8279ZM39.7546 221.082C39.9869 221.082 40.1884 221.059 40.3591 221.015C40.5326 220.971 40.667 220.913 40.7621 220.843C40.86 220.773 40.937 220.686 40.9929 220.582C41.0518 220.479 41.0895 220.38 41.1063 220.284C41.1259 220.187 41.1357 220.077 41.1357 219.957C41.1357 219.619 41.0265 219.361 40.8083 219.185C40.59 219.008 40.2821 218.92 39.8848 218.92H38.9486V221.074C38.9822 221.079 39.2509 221.082 39.7546 221.082ZM42.9869 224.239V219.626H43.9104L44.0531 220.331C44.3554 219.847 44.7933 219.604 45.367 219.604C45.4874 219.604 45.5853 219.61 45.6609 219.622L45.6441 220.541C45.5322 220.524 45.416 220.516 45.2957 220.516C44.8899 220.516 44.5863 220.623 44.3848 220.839C44.1861 221.054 44.0867 221.354 44.0867 221.737V224.239H42.9869ZM46.3577 224.239V219.626H47.4575V224.239H46.3577ZM46.3577 218.954V218.014H47.4617V218.954H46.3577ZM50.6268 224.327C49.9216 224.327 49.3717 224.117 48.9771 223.697C48.5853 223.277 48.3895 222.677 48.3895 221.896C48.3895 221.141 48.5951 220.554 49.0065 220.137C49.4207 219.72 49.965 219.512 50.6394 219.512C51.1796 219.512 51.6357 219.628 52.0079 219.861L51.7477 220.645C51.367 220.447 51.0131 220.347 50.6856 220.347C50.3134 220.347 50.0195 220.481 49.8041 220.746C49.5914 221.012 49.485 221.4 49.485 221.909C49.485 222.424 49.59 222.816 49.7999 223.085C50.0126 223.353 50.312 223.487 50.6982 223.487C51.1012 223.487 51.4888 223.368 51.861 223.131L51.9659 223.966C51.7728 224.095 51.5727 224.187 51.3656 224.243C51.1586 224.299 50.9123 224.327 50.6268 224.327ZM54.938 224.327C54.1963 224.327 53.6185 224.114 53.2043 223.689C52.7929 223.261 52.5872 222.671 52.5872 221.918C52.5872 221.184 52.7817 220.601 53.1707 220.167C53.5597 219.733 54.09 219.515 54.7616 219.512C55.3969 219.512 55.8894 219.711 56.2393 220.108C56.5919 220.506 56.7682 221.033 56.7682 221.691C56.7682 221.739 56.7668 221.815 56.764 221.922C56.764 222.028 56.764 222.106 56.764 222.157H53.6954C53.7066 222.588 53.8241 222.922 54.048 223.16C54.2747 223.395 54.5853 223.512 54.9799 223.512C55.4836 223.512 55.9678 223.381 56.4323 223.118L56.5876 223.899C56.1259 224.184 55.576 224.327 54.938 224.327ZM53.7164 221.464H55.7313C55.7313 221.09 55.646 220.801 55.4753 220.599C55.3045 220.398 55.0681 220.297 54.7658 220.297C54.4832 220.297 54.2439 220.395 54.048 220.591C53.8549 220.787 53.7444 221.078 53.7164 221.464Z" fill="#E4E4E4"/>
<g filter="url(#filter1_i)">
<path d="M239.94 149.015H40.0597C36.8944 149.015 34.3284 151.581 34.3284 154.746V200.597C34.3284 203.762 36.8944 206.328 40.0597 206.328H239.94C243.106 206.328 245.672 203.762 245.672 200.597V154.746C245.672 151.581 243.106 149.015 239.94 149.015Z" fill="#1F1F1F"/>
</g>
<path d="M239.94 149.373H40.0597C37.0922 149.373 34.6866 151.779 34.6866 154.746V200.597C34.6866 203.565 37.0922 205.97 40.0597 205.97H239.94C242.908 205.97 245.313 203.565 245.313 200.597V154.746C245.313 151.779 242.908 149.373 239.94 149.373Z" stroke="#3D3D3D"/>
<path d="M192.953 166.925V160.776H194.872C195.686 160.776 196.293 160.895 196.694 161.132C197.093 161.37 197.294 161.766 197.294 162.32C197.294 162.41 197.288 162.498 197.277 162.585C197.266 162.671 197.24 162.771 197.202 162.883C197.162 162.992 197.111 163.091 197.046 163.181C196.982 163.27 196.892 163.358 196.777 163.446C196.663 163.53 196.528 163.595 196.374 163.643C196.755 163.735 197.046 163.913 197.247 164.176C197.449 164.436 197.55 164.758 197.55 165.141C197.55 165.72 197.344 166.163 196.933 166.468C196.524 166.773 195.957 166.925 195.233 166.925H192.953ZM194.091 166.103H195.077C195.951 166.103 196.387 165.761 196.387 165.078C196.387 164.734 196.278 164.487 196.06 164.336C195.841 164.184 195.504 164.108 195.048 164.108H194.091V166.103ZM194.091 163.315H195.065C195.817 163.315 196.194 163.029 196.194 162.455C196.194 162.133 196.085 161.912 195.866 161.792C195.651 161.671 195.307 161.611 194.834 161.611H194.091V163.315ZM199.665 167.013C199.238 167.013 198.89 166.896 198.624 166.661C198.361 166.423 198.23 166.081 198.23 165.637C198.23 165.158 198.387 164.804 198.7 164.575C199.013 164.343 199.486 164.195 200.119 164.134C200.206 164.123 200.299 164.111 200.4 164.101C200.501 164.089 200.614 164.078 200.74 164.067C200.866 164.055 200.966 164.045 201.038 164.037V163.794C201.038 163.514 200.974 163.311 200.845 163.185C200.716 163.057 200.521 162.992 200.257 162.992C199.882 162.992 199.419 163.097 198.868 163.307C198.865 163.299 198.819 163.171 198.73 162.925C198.64 162.678 198.594 162.552 198.591 162.547C199.134 162.315 199.721 162.198 200.354 162.198C200.975 162.198 201.427 162.335 201.71 162.606C201.992 162.875 202.134 163.311 202.134 163.916V166.925H201.32C201.317 166.914 201.286 166.821 201.227 166.644C201.168 166.468 201.139 166.374 201.139 166.363C200.91 166.587 200.684 166.752 200.463 166.858C200.245 166.962 199.979 167.013 199.665 167.013ZM199.963 166.233C200.218 166.233 200.439 166.172 200.627 166.052C200.817 165.929 200.953 165.781 201.034 165.607V164.717C201.026 164.717 200.951 164.723 200.812 164.734C200.674 164.745 200.6 164.751 200.589 164.751C200.144 164.79 199.818 164.874 199.611 165.002C199.404 165.131 199.3 165.339 199.3 165.624C199.3 165.82 199.358 165.971 199.473 166.077C199.587 166.181 199.751 166.233 199.963 166.233ZM204.858 166.988C204.542 166.988 204.279 166.952 204.069 166.88C203.862 166.804 203.698 166.685 203.578 166.523C203.457 166.36 203.374 166.167 203.326 165.943C203.278 165.719 203.255 165.441 203.255 165.108V160.612L204.354 160.541V165.087C204.354 165.501 204.403 165.782 204.501 165.93C204.599 166.076 204.79 166.149 205.072 166.149C205.212 166.149 205.39 166.134 205.605 166.103L205.635 166.887C205.632 166.887 205.597 166.895 205.53 166.909C205.465 166.923 205.402 166.934 205.341 166.942C205.282 166.953 205.207 166.963 205.114 166.971C205.022 166.983 204.937 166.988 204.858 166.988ZM207.398 167.013C206.97 167.013 206.622 166.896 206.357 166.661C206.094 166.423 205.962 166.081 205.962 165.637C205.962 165.158 206.119 164.804 206.433 164.575C206.746 164.343 207.219 164.195 207.851 164.134C207.938 164.123 208.032 164.111 208.133 164.101C208.233 164.089 208.346 164.078 208.472 164.067C208.598 164.055 208.698 164.045 208.77 164.037V163.794C208.77 163.514 208.706 163.311 208.578 163.185C208.449 163.057 208.253 162.992 207.989 162.992C207.615 162.992 207.151 163.097 206.6 163.307C206.597 163.299 206.552 163.171 206.462 162.925C206.372 162.678 206.326 162.552 206.323 162.547C206.866 162.315 207.454 162.198 208.086 162.198C208.707 162.198 209.159 162.335 209.442 162.606C209.725 162.875 209.866 163.311 209.866 163.916V166.925H209.052C209.049 166.914 209.018 166.821 208.959 166.644C208.901 166.468 208.871 166.374 208.871 166.363C208.641 166.587 208.416 166.752 208.195 166.858C207.977 166.962 207.711 167.013 207.398 167.013ZM207.696 166.233C207.951 166.233 208.171 166.172 208.359 166.052C208.55 165.929 208.685 165.781 208.766 165.607V164.717C208.758 164.717 208.684 164.723 208.544 164.734C208.406 164.745 208.333 164.751 208.321 164.751C207.876 164.79 207.55 164.874 207.343 165.002C207.136 165.131 207.032 165.339 207.032 165.624C207.032 165.82 207.09 165.971 207.205 166.077C207.32 166.181 207.483 166.233 207.696 166.233ZM210.974 166.925V162.312H211.86L211.982 162.896C212.452 162.431 212.974 162.198 213.547 162.198C214.085 162.198 214.487 162.354 214.752 162.665C215.021 162.972 215.155 163.42 215.155 164.008V166.925H214.051V164.142C214.048 163.77 213.988 163.492 213.87 163.307C213.753 163.122 213.542 163.029 213.237 163.029C212.999 163.029 212.781 163.091 212.582 163.214C212.386 163.335 212.244 163.487 212.154 163.672C212.101 163.891 212.074 164.226 212.074 164.679V166.925H210.974ZM218.257 167.013C217.552 167.013 217.002 166.804 216.608 166.384C216.216 165.964 216.02 165.364 216.02 164.583C216.02 163.828 216.225 163.241 216.637 162.824C217.051 162.407 217.596 162.198 218.27 162.198C218.81 162.198 219.267 162.315 219.638 162.547L219.378 163.332C218.998 163.133 218.643 163.034 218.316 163.034C217.944 163.034 217.65 163.167 217.435 163.433C217.222 163.699 217.116 164.086 217.116 164.596C217.116 165.111 217.22 165.503 217.43 165.771C217.643 166.04 217.943 166.174 218.329 166.174C218.731 166.174 219.12 166.055 219.492 165.817L219.597 166.652C219.403 166.781 219.204 166.874 218.996 166.93C218.789 166.986 218.543 167.013 218.257 167.013ZM222.569 167.013C221.827 167.013 221.249 166.801 220.835 166.375C220.424 165.947 220.218 165.357 220.218 164.604C220.218 163.871 220.412 163.287 220.801 162.853C221.19 162.42 221.72 162.201 222.392 162.198C223.028 162.198 223.52 162.398 223.87 162.794C224.223 163.192 224.399 163.719 224.399 164.377C224.399 164.425 224.398 164.502 224.395 164.608C224.395 164.715 224.395 164.793 224.395 164.843H221.326C221.337 165.274 221.455 165.609 221.679 165.846C221.905 166.081 222.216 166.199 222.611 166.199C223.114 166.199 223.598 166.068 224.063 165.805L224.218 166.585C223.756 166.871 223.207 167.013 222.569 167.013ZM221.347 164.151H223.362C223.362 163.776 223.276 163.487 223.106 163.286C222.935 163.085 222.699 162.984 222.397 162.984C222.114 162.984 221.874 163.082 221.679 163.277C221.485 163.474 221.375 163.765 221.347 164.151ZM225.158 166.95V165.838H226.271V166.95H225.158ZM225.158 163.395V162.283H226.271V163.395H225.158ZM232.105 166.925V165.561H229.331V164.814L231.82 160.805H233.218V164.73H233.974L233.919 165.561H233.218V166.925H232.105ZM230.423 164.734H232.105V161.88L230.423 164.734Z" fill="#666666"/>
<path d="M47.9109 190.56V182.032C47.8456 182.074 47.5425 182.209 47.0014 182.437C46.465 182.661 46.1619 182.783 46.0919 182.801V181.402C46.2038 181.35 46.5583 181.176 47.1553 180.878C47.7523 180.574 48.0811 180.402 48.1417 180.36H49.681V190.56H47.9109Z" fill="#E4E4E4"/>
<path d="M47.6423 166.925V161.687H45.8498V160.776H50.5681V161.687H48.784V166.925H47.6423ZM53.0028 166.178C53.375 166.178 53.6549 166.043 53.8424 165.771C54.0299 165.5 54.1236 165.111 54.1236 164.604C54.1236 164.092 54.0299 163.701 53.8424 163.433C53.6549 163.164 53.3722 163.029 52.9944 163.029C52.6222 163.029 52.341 163.166 52.1507 163.437C51.9631 163.706 51.8694 164.096 51.8694 164.608C51.8694 165.112 51.9646 165.5 52.1548 165.771C52.3451 166.043 52.6278 166.178 53.0028 166.178ZM52.9734 167.013C52.2906 167.013 51.7533 166.792 51.3615 166.35C50.9697 165.908 50.7738 165.326 50.7738 164.604C50.7738 163.86 50.9697 163.273 51.3615 162.845C51.7533 162.414 52.306 162.198 53.0196 162.198C53.708 162.198 54.2467 162.418 54.6357 162.858C55.0275 163.295 55.2234 163.876 55.2234 164.604C55.2234 165.34 55.0261 165.926 54.6315 166.363C54.237 166.796 53.6842 167.013 52.9734 167.013Z" fill="#666666"/>
<path d="M190.675 189.134V180.935H195.646L195.584 182.138H192.192V184.254H195.416V185.457H192.192V187.925H195.707L195.657 189.134H190.675ZM198.707 189.134V182.149H196.317V180.935H202.608V182.149H200.229V189.134H198.707ZM203.492 189.134V180.935H205.009V184.287H208.714V180.935H210.231V189.134H208.714V185.485H205.009V189.134H203.492Z" fill="#E4E4E4"/>
<path d="M228.478 183.403L231.343 186.269L234.209 183.403" stroke="#E4E4E4"/>
<path d="M176.895 177.672L176.799 177.998V187.472L176.895 187.568L181.292 184.968L176.895 177.672Z" fill="#343434"/>
<path d="M176.894 177.672L172.497 184.968L176.894 187.568V182.97V177.672Z" fill="#8C8C8C"/>
<path d="M176.895 188.401L176.84 188.467V191.842L176.895 192L181.295 185.803L176.895 188.401Z" fill="#3C3C3B"/>
<path d="M176.894 192V188.401L172.497 185.803L176.894 192Z" fill="#8C8C8C"/>
<path d="M176.895 187.568L181.292 184.968L176.895 182.969V187.568Z" fill="#141414"/>
<path d="M172.497 184.968L176.894 187.568V182.969L172.497 184.968Z" fill="#393939"/>
<g filter="url(#filter2_d)">
<path d="M34.3284 249.313C34.3284 246.148 36.8944 243.582 40.0597 243.582H237.075C240.24 243.582 242.806 246.148 242.806 249.313V275.104C242.806 278.27 240.24 280.836 237.075 280.836H40.0597C36.8944 280.836 34.3284 278.27 34.3284 275.104V249.313Z" fill="url(#paint1_linear)"/>
<path d="M126.707 266.619C125.718 266.619 124.832 266.392 124.048 265.936L124.418 264.733C124.769 264.927 125.149 265.084 125.56 265.204C125.974 265.322 126.377 265.383 126.768 265.383C127.25 265.383 127.614 265.28 127.86 265.075C128.106 264.865 128.229 264.567 128.229 264.179C128.229 263.664 127.886 263.308 127.2 263.11C127.151 263.095 127.015 263.056 126.791 262.993C126.567 262.925 126.357 262.862 126.159 262.802C125.965 262.739 125.825 262.69 125.739 262.657C124.638 262.268 124.088 261.545 124.088 260.485C124.088 259.742 124.351 259.17 124.877 258.767C125.407 258.364 126.108 258.163 126.981 258.163C127.97 258.163 128.822 258.365 129.539 258.772L129.08 259.881C128.349 259.552 127.67 259.388 127.043 259.388C126.592 259.388 126.25 259.468 126.018 259.628C125.791 259.785 125.669 260.048 125.655 260.418C125.655 260.873 125.881 261.169 126.332 261.308C126.422 261.341 126.642 261.414 126.993 261.526C127.343 261.638 127.571 261.711 127.675 261.745C128.426 261.99 128.961 262.296 129.282 262.662C129.606 263.028 129.769 263.537 129.769 264.191C129.769 264.97 129.492 265.571 128.94 265.992C128.388 266.411 127.644 266.619 126.707 266.619ZM132.119 266.507L130.255 260.356H131.75L132.931 264.868C132.957 264.782 133.17 264.049 133.569 262.668C133.968 261.288 134.194 260.517 134.246 260.356H135.752C135.8 260.513 136.015 261.276 136.396 262.645C136.776 264.015 136.981 264.75 137.011 264.851L138.225 260.356H139.698L137.773 266.507H136.312C136.263 266.347 136.035 265.535 135.628 264.073C135.226 262.61 135.007 261.821 134.974 261.705C134.899 261.978 134.661 262.799 134.257 264.168C133.858 265.537 133.627 266.317 133.564 266.507H132.119ZM142.11 266.625C141.539 266.625 141.077 266.468 140.722 266.155C140.371 265.838 140.196 265.383 140.196 264.789C140.196 264.151 140.405 263.679 140.822 263.373C141.241 263.064 141.871 262.867 142.714 262.786C142.831 262.771 142.955 262.756 143.089 262.741C143.224 262.725 143.375 262.711 143.543 262.696C143.711 262.681 143.844 262.668 143.94 262.657V262.332C143.94 261.959 143.854 261.688 143.683 261.52C143.511 261.349 143.25 261.263 142.899 261.263C142.399 261.263 141.782 261.403 141.047 261.683C141.043 261.672 140.981 261.502 140.862 261.174C140.742 260.845 140.681 260.677 140.677 260.67C141.401 260.36 142.184 260.205 143.028 260.205C143.856 260.205 144.459 260.386 144.836 260.748C145.213 261.106 145.401 261.688 145.401 262.494V266.507H144.315C144.311 266.492 144.271 266.368 144.192 266.133C144.114 265.897 144.075 265.772 144.075 265.757C143.768 266.056 143.468 266.276 143.174 266.418C142.882 266.556 142.528 266.625 142.11 266.625ZM142.507 265.584C142.847 265.584 143.141 265.504 143.391 265.343C143.646 265.179 143.826 264.981 143.935 264.75V263.564C143.924 263.564 143.825 263.571 143.638 263.586C143.455 263.601 143.356 263.608 143.341 263.608C142.748 263.66 142.313 263.772 142.037 263.944C141.761 264.115 141.623 264.392 141.623 264.772C141.623 265.034 141.699 265.235 141.853 265.377C142.005 265.515 142.224 265.584 142.507 265.584ZM146.879 269.065V260.356H148.138L148.295 261.218C148.496 260.894 148.763 260.644 149.095 260.468C149.431 260.289 149.804 260.199 150.215 260.199C150.718 260.199 151.16 260.34 151.541 260.619C151.925 260.899 152.216 261.282 152.414 261.767C152.612 262.248 152.711 262.793 152.711 263.401C152.711 264.352 152.479 265.129 152.016 265.729C151.558 266.326 150.935 266.625 150.147 266.625C149.759 266.625 149.407 266.548 149.09 266.396C148.776 266.239 148.513 266.028 148.3 265.763C148.33 266.3 148.345 266.603 148.345 266.67V268.993L146.879 269.065ZM149.834 265.506C150.271 265.506 150.614 265.322 150.864 264.957C151.117 264.592 151.244 264.069 151.244 263.39C151.244 262.7 151.117 262.181 150.864 261.834C150.61 261.487 150.258 261.313 149.806 261.313C148.836 261.313 148.345 261.974 148.334 263.295C148.334 264.056 148.459 264.615 148.709 264.974C148.962 265.328 149.338 265.506 149.834 265.506Z" fill="#E6E6E6"/>
</g>
<path d="M104.926 34.3881V24.1386H106.941C107.305 24.7075 108.044 25.855 109.159 27.5807C110.274 29.3064 110.952 30.3559 111.195 30.729C111.265 30.8363 111.384 31.0182 111.552 31.2747C111.724 31.5266 111.845 31.7062 111.916 31.8134C111.883 30.2136 111.866 29.3834 111.866 29.3228V24.1386H113.595V34.3881H111.552L106.927 27.1819L106.591 26.6292C106.629 27.8606 106.647 28.7258 106.647 29.2248V34.3881H104.926ZM119.178 34.535C117.941 34.535 116.979 34.1805 116.288 33.4716C115.602 32.7579 115.26 31.7738 115.26 30.5191C115.26 29.2971 115.584 28.3247 116.232 27.6017C116.88 26.8787 117.765 26.5149 118.884 26.5103C119.942 26.5103 120.763 26.8414 121.347 27.5037C121.934 28.166 122.228 29.0452 122.228 30.1414C122.228 30.2206 122.226 30.3489 122.221 30.5261C122.221 30.7034 122.221 30.834 122.221 30.9179H117.107C117.125 31.6362 117.321 32.1935 117.694 32.59C118.073 32.9818 118.59 33.1777 119.248 33.1777C120.087 33.1777 120.894 32.9585 121.668 32.5201L121.927 33.8214C121.157 34.2971 120.241 34.535 119.178 34.535ZM117.142 29.7635H120.5C120.5 29.1385 120.358 28.6582 120.074 28.3223C119.788 27.9865 119.394 27.8186 118.891 27.8186C118.42 27.8186 118.021 27.9818 117.694 28.3083C117.373 28.6348 117.189 29.1199 117.142 29.7635ZM125.215 34.3881L122.885 26.6992H124.754L126.23 32.3382C126.263 32.2309 126.528 31.3143 127.028 29.5886C127.526 27.8629 127.809 26.8997 127.874 26.6992H129.756C129.817 26.8951 130.085 27.8489 130.56 29.5606C131.036 31.2724 131.293 32.1912 131.33 32.3172L132.849 26.6992H134.688L132.282 34.3881H130.456C130.395 34.1875 130.111 33.173 129.602 31.3447C129.098 29.5164 128.825 28.5298 128.784 28.3853C128.691 28.7258 128.392 29.7518 127.888 31.4637C127.389 33.1754 127.099 34.1502 127.021 34.3881H125.215ZM142.559 34.528C141.323 34.528 140.216 34.2435 139.236 33.6744L139.698 32.1703C140.136 32.4128 140.612 32.6087 141.125 32.7579C141.643 32.9072 142.146 32.9818 142.636 32.9818C143.238 32.9818 143.692 32.8536 144 32.597C144.309 32.3358 144.463 31.9627 144.463 31.4776C144.463 30.834 144.033 30.3885 143.175 30.1414C143.114 30.1227 142.944 30.0737 142.664 29.9944C142.384 29.9105 142.121 29.8311 141.873 29.7566C141.631 29.6773 141.456 29.6166 141.349 29.5746C139.973 29.0896 139.285 28.1847 139.285 26.8601C139.285 25.9319 139.614 25.216 140.272 24.7122C140.933 24.2085 141.81 23.9567 142.902 23.9567C144.138 23.9567 145.204 24.2108 146.1 24.7192L145.526 26.1045C144.612 25.6941 143.763 25.4888 142.979 25.4888C142.414 25.4888 141.988 25.5891 141.699 25.7896C141.414 25.9856 141.262 26.3144 141.244 26.7761C141.244 27.3452 141.526 27.7159 142.091 27.8885C142.202 27.9305 142.477 28.0215 142.916 28.1614C143.354 28.3013 143.639 28.3923 143.77 28.4343C144.707 28.7421 145.377 29.1245 145.777 29.5816C146.183 30.0387 146.386 30.6754 146.386 31.4916C146.386 32.4664 146.041 33.2174 145.351 33.7444C144.66 34.2668 143.73 34.528 142.559 34.528ZM149.325 34.3881L146.995 26.6992H148.863L150.339 32.3382C150.372 32.2309 150.637 31.3143 151.137 29.5886C151.636 27.8629 151.918 26.8997 151.984 26.6992H153.866C153.926 26.8951 154.194 27.8489 154.67 29.5606C155.146 31.2724 155.402 32.1912 155.44 32.3172L156.958 26.6992H158.797L156.391 34.3881H154.565C154.504 34.1875 154.219 33.173 153.712 31.3447C153.208 29.5164 152.935 28.5298 152.893 28.3853C152.8 28.7258 152.501 29.7518 151.997 31.4637C151.498 33.1754 151.209 34.1502 151.13 34.3881H149.325ZM161.813 34.535C161.099 34.535 160.521 34.3391 160.078 33.9473C159.639 33.5509 159.42 32.9818 159.42 32.2402C159.42 31.4427 159.681 30.8526 160.204 30.4701C160.726 30.083 161.515 29.8382 162.569 29.7356C162.713 29.7169 162.869 29.6983 163.037 29.6796C163.205 29.6609 163.394 29.6423 163.604 29.6236C163.814 29.605 163.979 29.5886 164.101 29.5746V29.1688C164.101 28.7024 163.994 28.3643 163.779 28.1544C163.564 27.9398 163.238 27.8326 162.799 27.8326C162.175 27.8326 161.402 28.0075 160.484 28.3573C160.479 28.3433 160.402 28.1311 160.253 27.7207C160.103 27.3101 160.027 27.1003 160.022 27.091C160.927 26.7038 161.906 26.5103 162.96 26.5103C163.996 26.5103 164.749 26.7365 165.22 27.1889C165.691 27.6367 165.926 28.3643 165.926 29.3717V34.3881H164.57C164.565 34.3694 164.514 34.2132 164.416 33.9193C164.317 33.6254 164.269 33.4692 164.269 33.4506C163.886 33.8237 163.511 34.0989 163.142 34.2762C162.779 34.4487 162.335 34.535 161.813 34.535ZM162.31 33.2337C162.734 33.2337 163.102 33.1334 163.415 32.9329C163.732 32.7276 163.958 32.4804 164.094 32.1912V30.708C164.08 30.708 163.956 30.7174 163.723 30.736C163.494 30.7547 163.371 30.764 163.352 30.764C162.611 30.8293 162.067 30.9693 161.722 31.1837C161.377 31.3983 161.205 31.7435 161.205 32.2193C161.205 32.5457 161.3 32.7976 161.491 32.9748C161.682 33.1474 161.955 33.2337 162.31 33.2337ZM167.774 37.5854V26.6992H169.348L169.544 27.7766C169.796 27.3708 170.129 27.0583 170.544 26.8391C170.964 26.6152 171.431 26.5032 171.944 26.5032C172.573 26.5032 173.126 26.6782 173.601 27.028C174.082 27.3778 174.446 27.8559 174.693 28.4622C174.94 29.0639 175.064 29.7449 175.064 30.5052C175.064 31.6945 174.775 32.6647 174.196 33.4156C173.623 34.1618 172.843 34.535 171.86 34.535C171.375 34.535 170.933 34.4394 170.537 34.2482C170.145 34.0522 169.817 33.7887 169.551 33.4576C169.588 34.1292 169.607 34.507 169.607 34.591V37.4944L167.774 37.5854ZM171.468 33.1358C172.014 33.1358 172.443 32.9072 172.755 32.4501C173.072 31.993 173.231 31.34 173.231 30.4911C173.231 29.6283 173.072 28.98 172.755 28.5462C172.438 28.1124 171.997 27.8955 171.433 27.8955C170.22 27.8955 169.607 28.7211 169.593 30.3722C169.593 31.3237 169.749 32.0233 170.062 32.4711C170.379 32.9142 170.848 33.1358 171.468 33.1358Z" fill="#E6E6E6"/>
</g>
<defs>
<filter id="filter0_i" x="34.3284" y="57.3135" width="211.343" height="57.3134" filterUnits="userSpaceOnUse" color-interpolation-filters="sRGB">
<feFlood flood-opacity="0" result="BackgroundImageFix"/>
<feBlend mode="normal" in="SourceGraphic" in2="BackgroundImageFix" result="shape"/>
<feColorMatrix in="SourceAlpha" type="matrix" values="0 0 0 0 0 0 0 0 0 0 0 0 0 0 0 0 0 0 127 0" result="hardAlpha"/>
<feOffset/>
<feGaussianBlur stdDeviation="8"/>
<feComposite in2="hardAlpha" operator="arithmetic" k2="-1" k3="1"/>
<feColorMatrix type="matrix" values="0 0 0 0 0.04 0 0 0 0 0.04 0 0 0 0 0.04 0 0 0 0.36 0"/>
<feBlend mode="normal" in2="shape" result="effect1_innerShadow"/>
</filter>
<filter id="filter1_i" x="34.3284" y="149.015" width="211.343" height="57.3134" filterUnits="userSpaceOnUse" color-interpolation-filters="sRGB">
<feFlood flood-opacity="0" result="BackgroundImageFix"/>
<feBlend mode="normal" in="SourceGraphic" in2="BackgroundImageFix" result="shape"/>
<feColorMatrix in="SourceAlpha" type="matrix" values="0 0 0 0 0 0 0 0 0 0 0 0 0 0 0 0 0 0 127 0" result="hardAlpha"/>
<feOffset/>
<feGaussianBlur stdDeviation="8"/>
<feComposite in2="hardAlpha" operator="arithmetic" k2="-1" k3="1"/>
<feColorMatrix type="matrix" values="0 0 0 0 0.04 0 0 0 0 0.04 0 0 0 0 0.04 0 0 0 0.36 0"/>
<feBlend mode="normal" in2="shape" result="effect1_innerShadow"/>
</filter>
<filter id="filter2_d" x="26.3284" y="243.582" width="224.478" height="57.2537" filterUnits="userSpaceOnUse" color-interpolation-filters="sRGB">
<feFlood flood-opacity="0" result="BackgroundImageFix"/>
<feColorMatrix in="SourceAlpha" type="matrix" values="0 0 0 0 0 0 0 0 0 0 0 0 0 0 0 0 0 0 127 0"/>
<feOffset dy="12"/>
<feGaussianBlur stdDeviation="4"/>
<feColorMatrix type="matrix" values="0 0 0 0 0 0 0 0 0 0 0 0 0 0 0 0 0 0 0.16 0"/>
<feBlend mode="normal" in2="BackgroundImageFix" result="effect1_dropShadow"/>
<feBlend mode="normal" in="SourceGraphic" in2="effect1_dropShadow" result="shape"/>
</filter>
<linearGradient id="paint0_linear" x1="139.642" y1="298.03" x2="-7.41722" y2="173.079" gradientUnits="userSpaceOnUse">
<stop stop-color="#1F1F1F"/>
<stop offset="1" stop-color="#262626"/>
</linearGradient>
<linearGradient id="paint1_linear" x1="242.806" y1="280.836" x2="36.3349" y2="234.618" gradientUnits="userSpaceOnUse">
<stop stop-color="#1455B2"/>
<stop offset="1" stop-color="#1166E1"/>
</linearGradient>
<clipPath id="clip0">
<rect width="240" height="298.03" fill="white" transform="translate(20)"/>
</clipPath>
</defs>
</svg>
