<svg width="160" height="24" viewBox="0 0 160 24" fill="none" xmlns="http://www.w3.org/2000/svg">
<path d="M159.283 5.68122C158.319 3.87105 155.545 2.39001 152.317 3.2523C150.775 3.66024 149.429 4.53507 148.5 5.73387C147.571 4.53507 146.225 3.66024 144.683 3.2523C141.448 2.40317 138.68 3.87105 137.717 5.68122C136.366 8.21545 136.926 11.0656 139.385 14.1528C141.311 16.5685 144.065 19.0172 148.061 21.8608C148.188 21.951 148.343 22 148.503 22C148.664 22 148.819 21.951 148.946 21.8608C152.935 19.0238 155.696 16.5949 157.622 14.1528C160.073 11.0656 160.634 8.21545 159.283 5.68122Z" fill="white"/>
<path d="M4.79524 20.9306L0.117188 3.82948H3.29074L6.62885 17.1369L10.5547 3.91119H13.5989L17.3249 17.1836L20.7335 3.82948H23.9071L19.088 20.9306H15.7851L12.1062 8.40535L8.07458 20.9306H4.79524Z" fill="white"/>
<path d="M25.6819 20.9306V3.37422L28.7614 3.17578V6.87617C28.7614 7.05516 28.7497 7.55321 28.7262 8.37033C28.7027 9.17967 28.6909 9.59212 28.6909 9.60769C29.7174 8.39368 31.0966 7.78668 32.8283 7.78668C34.2701 7.78668 35.3867 8.19913 36.1782 9.02403C36.9774 9.84115 37.3771 11.1019 37.3771 12.8061V20.9306H34.2975V13.1447C34.2975 12.0941 34.1291 11.3236 33.7921 10.8334C33.4552 10.3431 32.8831 10.098 32.076 10.098C31.3865 10.098 30.7753 10.2731 30.2424 10.6233C29.7096 10.9657 29.31 11.4092 29.0435 11.954C28.8555 12.6699 28.7614 13.6038 28.7614 14.7555V20.9306H25.6819Z" fill="white"/>
<path d="M40.4918 20.9306V8.10185H43.5714V20.9306H40.4918ZM40.4918 6.23415V3.61936H43.5831V6.23415H40.4918Z" fill="white"/>
<path d="M51.9519 21.1057C51.0743 21.1057 50.3416 21.0046 49.7539 20.8022C49.1741 20.5921 48.7196 20.2653 48.3905 19.8217C48.0614 19.3781 47.8263 18.8567 47.6852 18.2575C47.552 17.6505 47.4854 16.9034 47.4854 16.0162V9.95788H45.3697L45.4873 8.30029L47.697 8.10185L48.6843 4.62325L50.5649 4.61158V8.10185H53.7738V9.95788H50.5649V16.0746C50.5649 17.0474 50.706 17.74 50.9881 18.1524C51.2702 18.5649 51.7913 18.7711 52.5513 18.7711C52.998 18.7711 53.476 18.7322 53.9853 18.6544L54.0676 20.8489C54.0519 20.8489 53.954 20.8684 53.7738 20.9073C53.6014 20.9384 53.4329 20.9657 53.2683 20.989C53.1116 21.0201 52.9079 21.0474 52.6571 21.0707C52.4064 21.0941 52.1713 21.1057 51.9519 21.1057Z" fill="white"/>
<path d="M62.0955 21.1758C60.019 21.1758 58.4009 20.5843 57.2412 19.4015C56.0893 18.2108 55.5133 16.5688 55.5133 14.4754C55.5133 12.4365 56.0579 10.8139 57.1471 9.60769C58.2363 8.40146 59.7212 7.79446 61.6018 7.78668C63.3806 7.78668 64.7597 8.33921 65.7392 9.44426C66.7266 10.5493 67.2202 12.0162 67.2202 13.845C67.2202 13.9773 67.2163 14.1913 67.2085 14.4871C67.2085 14.7828 67.2085 15.0007 67.2085 15.1408H58.6164C58.6477 16.3392 58.9768 17.2692 59.6037 17.9306C60.2384 18.5843 61.1082 18.9112 62.2131 18.9112C63.6235 18.9112 64.9791 18.5454 66.2799 17.8139L66.7148 19.9851C65.4219 20.7789 63.8821 21.1758 62.0955 21.1758ZM58.6751 13.2147H64.317C64.317 12.1719 64.078 11.3703 63.6 10.81C63.122 10.2497 62.4599 9.96956 61.6136 9.96956C60.8222 9.96956 60.1522 10.2419 59.6037 10.7867C59.063 11.3314 58.7535 12.1408 58.6751 13.2147Z" fill="white"/>
<path d="M69.7355 20.9306V3.37422L72.8151 3.17578V6.87617C72.8151 7.05516 72.8033 7.55321 72.7798 8.37033C72.7563 9.17967 72.7446 9.59212 72.7446 9.60769C73.7711 8.39368 75.1502 7.78668 76.8819 7.78668C78.3237 7.78668 79.4404 8.19913 80.2318 9.02403C81.0311 9.84115 81.4307 11.1019 81.4307 12.8061V20.9306H78.3512V13.1447C78.3512 12.0941 78.1827 11.3236 77.8457 10.8334C77.5088 10.3431 76.9368 10.098 76.1297 10.098C75.4401 10.098 74.8289 10.2731 74.2961 10.6233C73.7632 10.9657 73.3636 11.4092 73.0972 11.954C72.9091 12.6699 72.8151 13.6038 72.8151 14.7555V20.9306H69.7355Z" fill="white"/>
<path d="M90.4459 21.1758C88.3694 21.1758 86.7513 20.5843 85.5916 19.4015C84.4397 18.2108 83.8637 16.5688 83.8637 14.4754C83.8637 12.4365 84.4083 10.8139 85.4975 9.60769C86.5867 8.40146 88.0716 7.79446 89.9523 7.78668C91.731 7.78668 93.1101 8.33921 94.0896 9.44426C95.077 10.5493 95.5706 12.0162 95.5706 13.845C95.5706 13.9773 95.5667 14.1913 95.5589 14.4871C95.5589 14.7828 95.5589 15.0007 95.5589 15.1408H86.9668C86.9981 16.3392 87.3272 17.2692 87.9541 17.9306C88.5888 18.5843 89.4586 18.9112 90.5635 18.9112C91.9739 18.9112 93.3296 18.5454 94.6303 17.8139L95.0652 19.9851C93.7723 20.7789 92.2325 21.1758 90.4459 21.1758ZM87.0255 13.2147H92.6674C92.6674 12.1719 92.4284 11.3703 91.9504 10.81C91.4724 10.2497 90.8103 9.96956 89.964 9.96956C89.1726 9.96956 88.5026 10.2419 87.9541 10.7867C87.4134 11.3314 87.1039 12.1408 87.0255 13.2147Z" fill="white"/>
<path d="M101.448 21.1758C100.249 21.1758 99.277 20.8489 98.5326 20.1952C97.796 19.5338 97.4277 18.5843 97.4277 17.347C97.4277 16.0162 97.8666 15.0318 98.7442 14.3937C99.6218 13.7478 100.946 13.3392 102.717 13.168C102.96 13.1369 103.222 13.1057 103.505 13.0746C103.787 13.0435 104.104 13.0124 104.457 12.9812C104.809 12.9501 105.087 12.9229 105.291 12.8995V12.2225C105.291 11.4443 105.111 10.8801 104.75 10.5299C104.39 10.1719 103.841 9.9929 103.105 9.9929C102.055 9.9929 100.758 10.2847 99.2143 10.8684C99.2065 10.845 99.0772 10.491 98.8265 9.80613C98.5757 9.12131 98.4464 8.77111 98.4386 8.75555C99.9587 8.10963 101.604 7.78668 103.375 7.78668C105.115 7.78668 106.38 8.16411 107.172 8.91897C107.963 9.66605 108.359 10.8801 108.359 12.561V20.9306H106.079C106.071 20.8995 105.985 20.6388 105.82 20.1485C105.655 19.6583 105.573 19.3976 105.573 19.3664C104.931 19.989 104.3 20.4482 103.681 20.7439C103.07 21.0318 102.325 21.1758 101.448 21.1758ZM102.282 19.0046C102.995 19.0046 103.614 18.8373 104.139 18.5026C104.672 18.1602 105.052 17.7478 105.279 17.2653V14.7906C105.256 14.7906 105.048 14.8061 104.656 14.8373C104.272 14.8684 104.065 14.884 104.033 14.884C102.788 14.9929 101.875 15.2264 101.295 15.5843C100.715 15.9423 100.425 16.5182 100.425 17.312C100.425 17.8567 100.586 18.2769 100.907 18.5727C101.228 18.8606 101.687 19.0046 102.282 19.0046Z" fill="white"/>
<path d="M111.474 20.9306V8.10185H114.06L114.459 10.0629C115.305 8.71664 116.532 8.04349 118.138 8.04349C118.475 8.04349 118.749 8.05905 118.961 8.09018L118.914 10.6466C118.6 10.5999 118.275 10.5766 117.938 10.5766C116.802 10.5766 115.952 10.8762 115.388 11.4754C114.831 12.0746 114.553 12.9073 114.553 13.9734V20.9306H111.474Z" fill="white"/>
<path d="M126.001 21.1057C125.124 21.1057 124.391 21.0046 123.804 20.8022C123.224 20.5921 122.769 20.2653 122.44 19.8217C122.111 19.3781 121.876 18.8567 121.735 18.2575C121.602 17.6505 121.535 16.9034 121.535 16.0162V9.95788H119.419L119.537 8.30029L121.747 8.10185L122.734 4.62325L124.615 4.61158V8.10185H127.823V9.95788H124.615V16.0746C124.615 17.0474 124.756 17.74 125.038 18.1524C125.32 18.5649 125.841 18.7711 126.601 18.7711C127.048 18.7711 127.526 18.7322 128.035 18.6544L128.117 20.8489C128.102 20.8489 128.004 20.8684 127.823 20.9073C127.651 20.9384 127.482 20.9657 127.318 20.989C127.161 21.0201 126.957 21.0474 126.707 21.0707C126.456 21.0941 126.221 21.1057 126.001 21.1057Z" fill="white"/>
</svg>
