<svg width="360" height="416" viewBox="0 0 360 416" fill="none" xmlns="http://www.w3.org/2000/svg">
<circle cx="180" cy="208" r="180" fill="#2F80ED"/>
<path d="M332 0H29C20.1634 0 13 7.16344 13 16V400C13 408.837 20.1634 416 29 416H332C340.837 416 348 408.837 348 400V16C348 7.16344 340.837 0 332 0Z" fill="#1A1A1A"/>
<path d="M332 0H29C20.1634 0 13 7.16344 13 16V400C13 408.837 20.1634 416 29 416H332C340.837 416 348 408.837 348 400V16C348 7.16344 340.837 0 332 0Z" fill="url(#paint0_linear)"/>
<path d="M187.822 182.962H186.012C185.909 182.962 185.81 183.006 185.741 183.084L180.849 188.691V176.178C180.849 176.08 180.769 176 180.67 176H179.33C179.231 176 179.151 176.08 179.151 176.178V188.691L174.259 183.084C174.192 183.006 174.093 182.962 173.988 182.962H172.178C172.026 182.962 171.944 183.142 172.044 183.255L179.461 191.755C179.528 191.832 179.611 191.894 179.704 191.936C179.798 191.978 179.899 192 180.001 192C180.103 192 180.205 191.978 180.298 191.936C180.391 191.894 180.474 191.832 180.541 191.755L187.956 183.255C188.056 183.14 187.974 182.962 187.822 182.962Z" fill="#666666"/>
<g filter="url(#filter0_i)">
<path d="M320 80H41C36.5817 80 33 83.5817 33 88V152C33 156.418 36.5817 160 41 160H320C324.418 160 328 156.418 328 152V88C328 83.5817 324.418 80 320 80Z" fill="#1F1F1F"/>
</g>
<path d="M320 80.5H41C36.8579 80.5 33.5 83.8579 33.5 88V152C33.5 156.142 36.8579 159.5 41 159.5H320C324.142 159.5 327.5 156.142 327.5 152V88C327.5 83.8579 324.142 80.5 320 80.5Z" stroke="#3D3D3D"/>
<path d="M213.316 105V96.416H215.994C217.131 96.416 217.979 96.582 218.537 96.9141C219.096 97.2461 219.375 97.7988 219.375 98.5723C219.375 98.6973 219.367 98.8203 219.352 98.9414C219.336 99.0625 219.301 99.2012 219.246 99.3574C219.191 99.5098 219.119 99.6484 219.029 99.7734C218.939 99.8984 218.814 100.021 218.654 100.143C218.494 100.26 218.307 100.352 218.092 100.418C218.623 100.547 219.029 100.795 219.311 101.162C219.592 101.525 219.732 101.975 219.732 102.51C219.732 103.318 219.445 103.936 218.871 104.361C218.301 104.787 217.51 105 216.498 105H213.316ZM214.904 103.852H216.281C217.5 103.852 218.109 103.375 218.109 102.422C218.109 101.941 217.957 101.596 217.652 101.385C217.348 101.174 216.877 101.068 216.24 101.068H214.904V103.852ZM214.904 99.9609H216.264C217.314 99.9609 217.84 99.5605 217.84 98.7598C217.84 98.3105 217.688 98.002 217.383 97.834C217.082 97.666 216.602 97.582 215.941 97.582H214.904V99.9609ZM222.686 105.123C222.088 105.123 221.604 104.959 221.232 104.631C220.865 104.299 220.682 103.822 220.682 103.201C220.682 102.533 220.9 102.039 221.338 101.719C221.775 101.395 222.436 101.189 223.318 101.104C223.439 101.088 223.57 101.072 223.711 101.057C223.852 101.041 224.01 101.025 224.186 101.01C224.361 100.994 224.5 100.98 224.602 100.969V100.629C224.602 100.238 224.512 99.9551 224.332 99.7793C224.152 99.5996 223.879 99.5098 223.512 99.5098C222.988 99.5098 222.342 99.6562 221.572 99.9492C221.568 99.9375 221.504 99.7598 221.379 99.416C221.254 99.0723 221.189 98.8965 221.186 98.8887C221.943 98.5645 222.764 98.4023 223.646 98.4023C224.514 98.4023 225.145 98.5918 225.539 98.9707C225.934 99.3457 226.131 99.9551 226.131 100.799V105H224.994C224.99 104.984 224.947 104.854 224.865 104.607C224.783 104.361 224.742 104.23 224.742 104.215C224.422 104.527 224.107 104.758 223.799 104.906C223.494 105.051 223.123 105.123 222.686 105.123ZM223.102 104.033C223.457 104.033 223.766 103.949 224.027 103.781C224.293 103.609 224.482 103.402 224.596 103.16V101.918C224.584 101.918 224.48 101.926 224.285 101.941C224.094 101.957 223.99 101.965 223.975 101.965C223.354 102.02 222.898 102.137 222.609 102.316C222.32 102.496 222.176 102.785 222.176 103.184C222.176 103.457 222.256 103.668 222.416 103.816C222.576 103.961 222.805 104.033 223.102 104.033ZM229.934 105.088C229.492 105.088 229.125 105.037 228.832 104.936C228.543 104.83 228.314 104.664 228.146 104.438C227.979 104.211 227.861 103.941 227.795 103.629C227.729 103.316 227.695 102.928 227.695 102.463V96.1875L229.23 96.0879V102.434C229.23 103.012 229.299 103.404 229.436 103.611C229.572 103.814 229.838 103.916 230.232 103.916C230.428 103.916 230.676 103.895 230.977 103.852L231.018 104.947C231.014 104.947 230.965 104.957 230.871 104.977C230.781 104.996 230.693 105.012 230.607 105.023C230.525 105.039 230.42 105.053 230.291 105.064C230.162 105.08 230.043 105.088 229.934 105.088ZM233.479 105.123C232.881 105.123 232.396 104.959 232.025 104.631C231.658 104.299 231.475 103.822 231.475 103.201C231.475 102.533 231.693 102.039 232.131 101.719C232.568 101.395 233.229 101.189 234.111 101.104C234.232 101.088 234.363 101.072 234.504 101.057C234.645 101.041 234.803 101.025 234.979 101.01C235.154 100.994 235.293 100.98 235.395 100.969V100.629C235.395 100.238 235.305 99.9551 235.125 99.7793C234.945 99.5996 234.672 99.5098 234.305 99.5098C233.781 99.5098 233.135 99.6562 232.365 99.9492C232.361 99.9375 232.297 99.7598 232.172 99.416C232.047 99.0723 231.982 98.8965 231.979 98.8887C232.736 98.5645 233.557 98.4023 234.439 98.4023C235.307 98.4023 235.938 98.5918 236.332 98.9707C236.727 99.3457 236.924 99.9551 236.924 100.799V105H235.787C235.783 104.984 235.74 104.854 235.658 104.607C235.576 104.361 235.535 104.23 235.535 104.215C235.215 104.527 234.9 104.758 234.592 104.906C234.287 105.051 233.916 105.123 233.479 105.123ZM233.895 104.033C234.25 104.033 234.559 103.949 234.82 103.781C235.086 103.609 235.275 103.402 235.389 103.16V101.918C235.377 101.918 235.273 101.926 235.078 101.941C234.887 101.957 234.783 101.965 234.768 101.965C234.146 102.02 233.691 102.137 233.402 102.316C233.113 102.496 232.969 102.785 232.969 103.184C232.969 103.457 233.049 103.668 233.209 103.816C233.369 103.961 233.598 104.033 233.895 104.033ZM238.471 105V98.5605H239.707L239.877 99.375C240.533 98.7266 241.262 98.4023 242.062 98.4023C242.812 98.4023 243.373 98.6191 243.744 99.0527C244.119 99.4824 244.307 100.107 244.307 100.928V105H242.766V101.115C242.762 100.596 242.678 100.207 242.514 99.9492C242.35 99.6914 242.055 99.5625 241.629 99.5625C241.297 99.5625 240.992 99.6484 240.715 99.8203C240.441 99.9883 240.242 100.201 240.117 100.459C240.043 100.764 240.006 101.232 240.006 101.865V105H238.471ZM248.637 105.123C247.652 105.123 246.885 104.83 246.334 104.244C245.787 103.658 245.514 102.82 245.514 101.73C245.514 100.676 245.801 99.8574 246.375 99.2754C246.953 98.6934 247.713 98.4023 248.654 98.4023C249.408 98.4023 250.045 98.5645 250.564 98.8887L250.201 99.9844C249.67 99.707 249.176 99.5684 248.719 99.5684C248.199 99.5684 247.789 99.7539 247.488 100.125C247.191 100.496 247.043 101.037 247.043 101.748C247.043 102.467 247.189 103.014 247.482 103.389C247.779 103.764 248.197 103.951 248.736 103.951C249.299 103.951 249.84 103.785 250.359 103.453L250.506 104.619C250.236 104.799 249.957 104.928 249.668 105.006C249.379 105.084 249.035 105.123 248.637 105.123ZM254.654 105.123C253.619 105.123 252.812 104.826 252.234 104.232C251.66 103.635 251.373 102.811 251.373 101.76C251.373 100.736 251.645 99.9219 252.188 99.3164C252.73 98.7109 253.471 98.4062 254.408 98.4023C255.295 98.4023 255.982 98.6797 256.471 99.2344C256.963 99.7891 257.209 100.525 257.209 101.443C257.209 101.51 257.207 101.617 257.203 101.766C257.203 101.914 257.203 102.023 257.203 102.094H252.92C252.936 102.695 253.1 103.162 253.412 103.494C253.729 103.822 254.162 103.986 254.713 103.986C255.416 103.986 256.092 103.803 256.74 103.436L256.957 104.525C256.312 104.924 255.545 105.123 254.654 105.123ZM252.949 101.127H255.762C255.762 100.604 255.643 100.201 255.404 99.9199C255.166 99.6387 254.836 99.498 254.414 99.498C254.02 99.498 253.686 99.6348 253.412 99.9082C253.143 100.182 252.988 100.588 252.949 101.127ZM258.27 105.035V103.482H259.822V105.035H258.27ZM258.27 100.072V98.5195H259.822V100.072H258.27ZM264.053 105L264.018 103.734L266.73 100.664C267.066 100.305 267.311 99.9746 267.463 99.6738C267.619 99.3691 267.697 99.0488 267.697 98.7129C267.697 98.3418 267.576 98.0469 267.334 97.8281C267.092 97.6055 266.773 97.4941 266.379 97.4941C266.016 97.4941 265.656 97.5625 265.301 97.6992C264.949 97.832 264.66 98 264.434 98.2031L263.994 97.043C264.58 96.5273 265.404 96.2695 266.467 96.2695C267.311 96.2695 267.988 96.4824 268.5 96.9082C269.016 97.3301 269.273 97.9277 269.273 98.7012C269.273 99.248 269.127 99.7695 268.834 100.266C268.545 100.762 268.148 101.271 267.645 101.795L265.711 103.846H269.174L269.068 105H264.053ZM273.117 105.123C272.559 105.123 272.055 105.035 271.605 104.859C271.16 104.68 270.799 104.406 270.521 104.039C270.244 103.668 270.105 103.229 270.105 102.721C270.105 101.693 270.611 100.955 271.623 100.506C270.721 100.076 270.27 99.4043 270.27 98.4902C270.27 98.1309 270.344 97.8086 270.492 97.5234C270.641 97.2383 270.844 97.0059 271.102 96.8262C271.363 96.6426 271.664 96.5039 272.004 96.4102C272.348 96.3164 272.719 96.2695 273.117 96.2695C273.945 96.2695 274.625 96.4629 275.156 96.8496C275.691 97.2363 275.959 97.7832 275.959 98.4902C275.959 99.3926 275.541 100.064 274.705 100.506C275.646 100.963 276.117 101.703 276.117 102.727C276.117 103.234 275.979 103.674 275.701 104.045C275.428 104.412 275.066 104.684 274.617 104.859C274.172 105.035 273.672 105.123 273.117 105.123ZM271.957 103.699C272.238 103.938 272.625 104.057 273.117 104.057C273.609 104.057 273.994 103.938 274.271 103.699C274.549 103.461 274.688 103.125 274.688 102.691C274.688 102.262 274.543 101.906 274.254 101.625C273.965 101.344 273.586 101.143 273.117 101.021C272.637 101.143 272.252 101.344 271.963 101.625C271.678 101.906 271.535 102.264 271.535 102.697C271.535 103.127 271.676 103.461 271.957 103.699ZM273.117 100.107C273.598 99.998 273.967 99.8086 274.225 99.5391C274.482 99.2656 274.611 98.918 274.611 98.4961C274.611 98.1445 274.471 97.8613 274.189 97.6465C273.908 97.4316 273.551 97.3242 273.117 97.3242C272.688 97.3242 272.33 97.4316 272.045 97.6465C271.76 97.8613 271.617 98.1445 271.617 98.4961C271.617 98.918 271.75 99.2656 272.016 99.5391C272.281 99.8125 272.648 100.002 273.117 100.107ZM279.867 105.123C279.309 105.123 278.805 105.035 278.355 104.859C277.91 104.68 277.549 104.406 277.271 104.039C276.994 103.668 276.855 103.229 276.855 102.721C276.855 101.693 277.361 100.955 278.373 100.506C277.471 100.076 277.02 99.4043 277.02 98.4902C277.02 98.1309 277.094 97.8086 277.242 97.5234C277.391 97.2383 277.594 97.0059 277.852 96.8262C278.113 96.6426 278.414 96.5039 278.754 96.4102C279.098 96.3164 279.469 96.2695 279.867 96.2695C280.695 96.2695 281.375 96.4629 281.906 96.8496C282.441 97.2363 282.709 97.7832 282.709 98.4902C282.709 99.3926 282.291 100.064 281.455 100.506C282.396 100.963 282.867 101.703 282.867 102.727C282.867 103.234 282.729 103.674 282.451 104.045C282.178 104.412 281.816 104.684 281.367 104.859C280.922 105.035 280.422 105.123 279.867 105.123ZM278.707 103.699C278.988 103.938 279.375 104.057 279.867 104.057C280.359 104.057 280.744 103.938 281.021 103.699C281.299 103.461 281.438 103.125 281.438 102.691C281.438 102.262 281.293 101.906 281.004 101.625C280.715 101.344 280.336 101.143 279.867 101.021C279.387 101.143 279.002 101.344 278.713 101.625C278.428 101.906 278.285 102.264 278.285 102.697C278.285 103.127 278.426 103.461 278.707 103.699ZM279.867 100.107C280.348 99.998 280.717 99.8086 280.975 99.5391C281.232 99.2656 281.361 98.918 281.361 98.4961C281.361 98.1445 281.221 97.8613 280.939 97.6465C280.658 97.4316 280.301 97.3242 279.867 97.3242C279.438 97.3242 279.08 97.4316 278.795 97.6465C278.51 97.8613 278.367 98.1445 278.367 98.4961C278.367 98.918 278.5 99.2656 278.766 99.5391C279.031 99.8125 279.398 100.002 279.867 100.107ZM286.617 105.123C286.059 105.123 285.555 105.035 285.105 104.859C284.66 104.68 284.299 104.406 284.021 104.039C283.744 103.668 283.605 103.229 283.605 102.721C283.605 101.693 284.111 100.955 285.123 100.506C284.221 100.076 283.77 99.4043 283.77 98.4902C283.77 98.1309 283.844 97.8086 283.992 97.5234C284.141 97.2383 284.344 97.0059 284.602 96.8262C284.863 96.6426 285.164 96.5039 285.504 96.4102C285.848 96.3164 286.219 96.2695 286.617 96.2695C287.445 96.2695 288.125 96.4629 288.656 96.8496C289.191 97.2363 289.459 97.7832 289.459 98.4902C289.459 99.3926 289.041 100.064 288.205 100.506C289.146 100.963 289.617 101.703 289.617 102.727C289.617 103.234 289.479 103.674 289.201 104.045C288.928 104.412 288.566 104.684 288.117 104.859C287.672 105.035 287.172 105.123 286.617 105.123ZM285.457 103.699C285.738 103.938 286.125 104.057 286.617 104.057C287.109 104.057 287.494 103.938 287.771 103.699C288.049 103.461 288.188 103.125 288.188 102.691C288.188 102.262 288.043 101.906 287.754 101.625C287.465 101.344 287.086 101.143 286.617 101.021C286.137 101.143 285.752 101.344 285.463 101.625C285.178 101.906 285.035 102.264 285.035 102.697C285.035 103.127 285.176 103.461 285.457 103.699ZM286.617 100.107C287.098 99.998 287.467 99.8086 287.725 99.5391C287.982 99.2656 288.111 98.918 288.111 98.4961C288.111 98.1445 287.971 97.8613 287.689 97.6465C287.408 97.4316 287.051 97.3242 286.617 97.3242C286.188 97.3242 285.83 97.4316 285.545 97.6465C285.26 97.8613 285.117 98.1445 285.117 98.4961C285.117 98.918 285.25 99.2656 285.516 99.5391C285.781 99.8125 286.148 100.002 286.617 100.107ZM293.367 105.123C292.809 105.123 292.305 105.035 291.855 104.859C291.41 104.68 291.049 104.406 290.771 104.039C290.494 103.668 290.355 103.229 290.355 102.721C290.355 101.693 290.861 100.955 291.873 100.506C290.971 100.076 290.52 99.4043 290.52 98.4902C290.52 98.1309 290.594 97.8086 290.742 97.5234C290.891 97.2383 291.094 97.0059 291.352 96.8262C291.613 96.6426 291.914 96.5039 292.254 96.4102C292.598 96.3164 292.969 96.2695 293.367 96.2695C294.195 96.2695 294.875 96.4629 295.406 96.8496C295.941 97.2363 296.209 97.7832 296.209 98.4902C296.209 99.3926 295.791 100.064 294.955 100.506C295.896 100.963 296.367 101.703 296.367 102.727C296.367 103.234 296.229 103.674 295.951 104.045C295.678 104.412 295.316 104.684 294.867 104.859C294.422 105.035 293.922 105.123 293.367 105.123ZM292.207 103.699C292.488 103.938 292.875 104.057 293.367 104.057C293.859 104.057 294.244 103.938 294.521 103.699C294.799 103.461 294.938 103.125 294.938 102.691C294.938 102.262 294.793 101.906 294.504 101.625C294.215 101.344 293.836 101.143 293.367 101.021C292.887 101.143 292.502 101.344 292.213 101.625C291.928 101.906 291.785 102.264 291.785 102.697C291.785 103.127 291.926 103.461 292.207 103.699ZM293.367 100.107C293.848 99.998 294.217 99.8086 294.475 99.5391C294.732 99.2656 294.861 98.918 294.861 98.4961C294.861 98.1445 294.721 97.8613 294.439 97.6465C294.158 97.4316 293.801 97.3242 293.367 97.3242C292.938 97.3242 292.58 97.4316 292.295 97.6465C292.01 97.8613 291.867 98.1445 291.867 98.4961C291.867 98.918 292 99.2656 292.266 99.5391C292.531 99.8125 292.898 100.002 293.367 100.107ZM298.166 105.105C297.912 105.105 297.697 105.018 297.521 104.842C297.346 104.666 297.258 104.457 297.258 104.215C297.258 103.969 297.344 103.756 297.516 103.576C297.691 103.396 297.908 103.307 298.166 103.307C298.416 103.307 298.627 103.396 298.799 103.576C298.971 103.756 299.057 103.969 299.057 104.215C299.057 104.457 298.971 104.666 298.799 104.842C298.627 105.018 298.416 105.105 298.166 105.105ZM300.006 105L299.971 103.734L302.684 100.664C303.02 100.305 303.264 99.9746 303.416 99.6738C303.572 99.3691 303.65 99.0488 303.65 98.7129C303.65 98.3418 303.529 98.0469 303.287 97.8281C303.045 97.6055 302.727 97.4941 302.332 97.4941C301.969 97.4941 301.609 97.5625 301.254 97.6992C300.902 97.832 300.613 98 300.387 98.2031L299.947 97.043C300.533 96.5273 301.357 96.2695 302.42 96.2695C303.264 96.2695 303.941 96.4824 304.453 96.9082C304.969 97.3301 305.227 97.9277 305.227 98.7012C305.227 99.248 305.08 99.7695 304.787 100.266C304.498 100.762 304.102 101.271 303.598 101.795L301.664 103.846H305.127L305.021 105H300.006ZM308.525 105.123C308.021 105.123 307.547 105.059 307.102 104.93C306.66 104.797 306.311 104.619 306.053 104.396L306.475 103.289C306.689 103.469 306.986 103.617 307.365 103.734C307.744 103.848 308.133 103.904 308.531 103.904C308.98 103.904 309.342 103.783 309.615 103.541C309.893 103.299 310.031 102.982 310.031 102.592C310.031 102.35 309.992 102.141 309.914 101.965C309.84 101.789 309.74 101.648 309.615 101.543C309.49 101.438 309.322 101.354 309.111 101.291C308.904 101.225 308.691 101.18 308.473 101.156C308.254 101.133 307.99 101.119 307.682 101.115C307.67 101.115 307.613 101.115 307.512 101.115C307.41 101.111 307.354 101.109 307.342 101.109V99.9258H307.67C308.01 99.9258 308.301 99.9082 308.543 99.873C308.789 99.8379 309.016 99.7773 309.223 99.6914C309.434 99.6055 309.592 99.4785 309.697 99.3105C309.807 99.1426 309.861 98.9355 309.861 98.6895C309.861 98.3574 309.736 98.0742 309.486 97.8398C309.236 97.6055 308.885 97.4883 308.432 97.4883C307.697 97.4883 307.043 97.6719 306.469 98.0391L306.047 96.9258C306.758 96.4883 307.602 96.2695 308.578 96.2695C309.395 96.2695 310.061 96.4844 310.576 96.9141C311.096 97.3438 311.355 97.8945 311.355 98.5664C311.355 99.0352 311.234 99.4355 310.992 99.7676C310.754 100.096 310.406 100.336 309.949 100.488C310.473 100.59 310.877 100.842 311.162 101.244C311.451 101.646 311.596 102.121 311.596 102.668C311.596 103.188 311.457 103.637 311.18 104.016C310.902 104.391 310.535 104.67 310.078 104.854C309.621 105.033 309.104 105.123 308.525 105.123Z" fill="#666666"/>
<path d="M54.293 138.205C53.6484 138.205 52.9844 138.101 52.3008 137.893C51.6172 137.678 51.0964 137.476 50.7383 137.287C50.3802 137.092 50.1426 136.942 50.0254 136.838L50.8066 135.002C50.9303 135.1 51.1094 135.223 51.3438 135.373C51.5846 135.516 51.9688 135.682 52.4961 135.871C53.0299 136.06 53.541 136.154 54.0293 136.154C54.9408 136.154 55.6309 135.9 56.0996 135.393C56.5684 134.885 56.8027 134.221 56.8027 133.4C56.8027 132.626 56.5879 132.004 56.1582 131.535C55.735 131.066 55.1849 130.832 54.5078 130.832C53.7005 130.832 52.9779 131.184 52.3398 131.887L50.6309 131.555L51.002 123.762H58.7754L58.6289 125.773H53.2676C53.2676 125.891 53.2448 126.48 53.1992 127.541C53.1602 128.596 53.1374 129.185 53.1309 129.309C53.7038 129.003 54.306 128.85 54.9375 128.85C56.2526 128.85 57.3105 129.273 58.1113 130.119C58.9186 130.965 59.3223 132.069 59.3223 133.43C59.3223 134.875 58.8796 136.034 57.9941 136.906C57.1152 137.772 55.8815 138.205 54.293 138.205ZM60.9434 138L60.8848 135.891L65.4062 130.773C65.9661 130.174 66.373 129.624 66.627 129.123C66.8874 128.615 67.0176 128.081 67.0176 127.521C67.0176 126.903 66.8158 126.411 66.4121 126.047C66.0085 125.676 65.4779 125.49 64.8203 125.49C64.2148 125.49 63.6159 125.604 63.0234 125.832C62.4375 126.053 61.9557 126.333 61.5781 126.672L60.8457 124.738C61.8223 123.879 63.196 123.449 64.9668 123.449C66.373 123.449 67.5026 123.804 68.3555 124.514C69.2148 125.217 69.6445 126.213 69.6445 127.502C69.6445 128.413 69.4004 129.283 68.9121 130.109C68.4303 130.936 67.7695 131.786 66.9297 132.658L63.707 136.076H69.4785L69.3027 138H60.9434ZM71.2363 138L71.1777 135.891L75.6992 130.773C76.2591 130.174 76.666 129.624 76.9199 129.123C77.1803 128.615 77.3105 128.081 77.3105 127.521C77.3105 126.903 77.1087 126.411 76.7051 126.047C76.3014 125.676 75.7708 125.49 75.1133 125.49C74.5078 125.49 73.9089 125.604 73.3164 125.832C72.7305 126.053 72.2487 126.333 71.8711 126.672L71.1387 124.738C72.1152 123.879 73.4889 123.449 75.2598 123.449C76.666 123.449 77.7956 123.804 78.6484 124.514C79.5078 125.217 79.9375 126.213 79.9375 127.502C79.9375 128.413 79.6934 129.283 79.2051 130.109C78.7233 130.936 78.0625 131.786 77.2227 132.658L74 136.076H79.7715L79.5957 138H71.2363ZM83.0918 138.176C82.6686 138.176 82.3105 138.029 82.0176 137.736C81.7246 137.443 81.5781 137.095 81.5781 136.691C81.5781 136.281 81.7214 135.926 82.0078 135.627C82.3008 135.327 82.6621 135.178 83.0918 135.178C83.5085 135.178 83.86 135.327 84.1465 135.627C84.4329 135.926 84.5762 136.281 84.5762 136.691C84.5762 137.095 84.4329 137.443 84.1465 137.736C83.86 138.029 83.5085 138.176 83.0918 138.176ZM91.334 138.205C89.7454 138.205 88.4531 137.772 87.457 136.906C86.4609 136.04 85.9629 134.898 85.9629 133.479C85.9629 133.023 86.0117 132.587 86.1094 132.17C86.207 131.753 86.3568 131.346 86.5586 130.949C86.7604 130.552 86.9622 130.201 87.1641 129.895C87.3659 129.589 87.6263 129.224 87.9453 128.801L92.0078 123.674H95.0352L90.6016 129.27C91.0768 129.107 91.474 129.025 91.793 129.025C93.1927 129.025 94.3385 129.445 95.2305 130.285C96.1224 131.118 96.5684 132.206 96.5684 133.547C96.5684 134.94 96.0801 136.066 95.1035 136.926C94.127 137.779 92.8704 138.205 91.334 138.205ZM91.2168 136.252C92.0762 136.252 92.7467 136.008 93.2285 135.52C93.7168 135.025 93.9609 134.377 93.9609 133.576C93.9609 132.736 93.7331 132.076 93.2773 131.594C92.8216 131.105 92.1445 130.861 91.2461 130.861C90.3346 130.861 89.6641 131.105 89.2344 131.594C88.8047 132.082 88.5898 132.749 88.5898 133.596C88.5898 134.396 88.8177 135.041 89.2734 135.529C89.7292 136.011 90.377 136.252 91.2168 136.252ZM103.111 138.205C101.523 138.205 100.23 137.772 99.2344 136.906C98.2383 136.04 97.7402 134.898 97.7402 133.479C97.7402 133.023 97.7891 132.587 97.8867 132.17C97.9844 131.753 98.1341 131.346 98.3359 130.949C98.5378 130.552 98.7396 130.201 98.9414 129.895C99.1432 129.589 99.4036 129.224 99.7227 128.801L103.785 123.674H106.812L102.379 129.27C102.854 129.107 103.251 129.025 103.57 129.025C104.97 129.025 106.116 129.445 107.008 130.285C107.9 131.118 108.346 132.206 108.346 133.547C108.346 134.94 107.857 136.066 106.881 136.926C105.904 137.779 104.648 138.205 103.111 138.205ZM102.994 136.252C103.853 136.252 104.524 136.008 105.006 135.52C105.494 135.025 105.738 134.377 105.738 133.576C105.738 132.736 105.51 132.076 105.055 131.594C104.599 131.105 103.922 130.861 103.023 130.861C102.112 130.861 101.441 131.105 101.012 131.594C100.582 132.082 100.367 132.749 100.367 133.596C100.367 134.396 100.595 135.041 101.051 135.529C101.506 136.011 102.154 136.252 102.994 136.252Z" fill="#E4E4E4"/>
<path d="M49.9258 105V96.416H55.0059L54.9473 97.6758H51.502V100.113H54.7773V101.361H51.502V105H49.9258ZM56.2539 105V98.5605H57.543L57.7422 99.5449C58.1641 98.8691 58.7754 98.5312 59.5762 98.5312C59.7441 98.5312 59.8809 98.5391 59.9863 98.5547L59.9629 99.8379C59.8066 99.8145 59.6445 99.8027 59.4766 99.8027C58.9102 99.8027 58.4863 99.9531 58.2051 100.254C57.9277 100.555 57.7891 100.973 57.7891 101.508V105H56.2539ZM63.6719 103.957C64.1914 103.957 64.582 103.768 64.8438 103.389C65.1055 103.01 65.2363 102.467 65.2363 101.76C65.2363 101.045 65.1055 100.5 64.8438 100.125C64.582 99.75 64.1875 99.5625 63.6602 99.5625C63.1406 99.5625 62.748 99.752 62.4824 100.131C62.2207 100.506 62.0898 101.051 62.0898 101.766C62.0898 102.469 62.2227 103.01 62.4883 103.389C62.7539 103.768 63.1484 103.957 63.6719 103.957ZM63.6309 105.123C62.6777 105.123 61.9277 104.814 61.3809 104.197C60.834 103.58 60.5605 102.768 60.5605 101.76C60.5605 100.721 60.834 99.9023 61.3809 99.3047C61.9277 98.7031 62.6992 98.4023 63.6953 98.4023C64.6562 98.4023 65.4082 98.709 65.9512 99.3223C66.498 99.9316 66.7715 100.744 66.7715 101.76C66.7715 102.787 66.4961 103.605 65.9453 104.215C65.3945 104.82 64.623 105.123 63.6309 105.123ZM68.0254 105V98.5605H69.2676L69.4434 99.3809C69.5215 99.2832 69.5957 99.1973 69.666 99.123C69.7402 99.0449 69.8398 98.959 69.9648 98.8652C70.0938 98.7676 70.2285 98.6875 70.3691 98.625C70.5137 98.5625 70.6895 98.5098 70.8965 98.4668C71.1074 98.4238 71.332 98.4023 71.5703 98.4023C72.082 98.4023 72.4902 98.5059 72.7949 98.7129C73.1035 98.9199 73.3203 99.1621 73.4453 99.4395C73.6758 99.1074 73.9746 98.8516 74.3418 98.6719C74.709 98.4922 75.1172 98.4023 75.5664 98.4023C76.3047 98.4023 76.8457 98.6113 77.1895 99.0293C77.5371 99.4473 77.7109 100.066 77.7109 100.887V105H76.1699V101.344C76.1699 100.715 76.0996 100.262 75.959 99.9844C75.8223 99.7031 75.5586 99.5625 75.168 99.5625C74.5703 99.5625 74.1406 99.832 73.8789 100.371C73.7695 100.609 73.6953 100.896 73.6562 101.232V105H72.1211V101.273C72.1211 100.699 72.0449 100.271 71.8926 99.9902C71.7402 99.709 71.4648 99.5684 71.0664 99.5684C70.7422 99.5684 70.4629 99.6504 70.2285 99.8145C69.9941 99.9785 69.8164 100.193 69.6953 100.459C69.6055 100.854 69.5605 101.326 69.5605 101.877V105H68.0254ZM83.8281 106.617C82.7227 105.105 82.1699 103.4 82.1699 101.502C82.1699 99.5645 82.7207 97.8242 83.8223 96.2812H85.2051C84.8145 96.8398 84.4531 97.6094 84.1211 98.5898C83.7891 99.5664 83.623 100.533 83.623 101.49C83.623 102.428 83.7891 103.381 84.1211 104.35C84.457 105.318 84.8164 106.074 85.1992 106.617H83.8281ZM89.1895 105.123C88.1543 105.123 87.3477 104.826 86.7695 104.232C86.1953 103.635 85.9082 102.811 85.9082 101.76C85.9082 100.736 86.1797 99.9219 86.7227 99.3164C87.2656 98.7109 88.0059 98.4062 88.9434 98.4023C89.8301 98.4023 90.5176 98.6797 91.0059 99.2344C91.498 99.7891 91.7441 100.525 91.7441 101.443C91.7441 101.51 91.7422 101.617 91.7383 101.766C91.7383 101.914 91.7383 102.023 91.7383 102.094H87.4551C87.4707 102.695 87.6348 103.162 87.9473 103.494C88.2637 103.822 88.6973 103.986 89.248 103.986C89.9512 103.986 90.627 103.803 91.2754 103.436L91.4922 104.525C90.8477 104.924 90.0801 105.123 89.1895 105.123ZM87.4844 101.127H90.2969C90.2969 100.604 90.1777 100.201 89.9395 99.9199C89.7012 99.6387 89.3711 99.498 88.9492 99.498C88.5547 99.498 88.2207 99.6348 87.9473 99.9082C87.6777 100.182 87.5234 100.588 87.4844 101.127ZM95.0547 105.117C94.1055 105.117 93.3457 104.955 92.7754 104.631L92.9336 103.477C93.1914 103.617 93.5195 103.744 93.918 103.857C94.3164 103.967 94.6797 104.021 95.0078 104.021C95.3477 104.021 95.6113 103.959 95.7988 103.834C95.9902 103.705 96.0879 103.518 96.0918 103.271C96.0918 103.049 96.002 102.873 95.8223 102.744C95.6465 102.615 95.3086 102.455 94.8086 102.264C94.6367 102.201 94.5254 102.16 94.4746 102.141C93.8809 101.91 93.4531 101.654 93.1914 101.373C92.9297 101.088 92.7988 100.703 92.7988 100.219C92.7988 99.6328 93.0098 99.1836 93.4316 98.8711C93.8574 98.5586 94.4492 98.4023 95.207 98.4023C96.0273 98.4023 96.748 98.5566 97.3691 98.8652L96.9883 99.9258C96.375 99.6406 95.791 99.498 95.2363 99.498C94.9277 99.498 94.6855 99.5508 94.5098 99.6562C94.3379 99.7578 94.252 99.9141 94.252 100.125C94.252 100.324 94.3359 100.48 94.5039 100.594C94.6719 100.703 95 100.848 95.4883 101.027C95.5039 101.031 95.5547 101.049 95.6406 101.08C95.7266 101.111 95.793 101.137 95.8398 101.156C96.4297 101.371 96.8633 101.629 97.1406 101.93C97.418 102.227 97.5566 102.615 97.5566 103.096C97.5527 103.74 97.334 104.238 96.9004 104.59C96.4668 104.941 95.8516 105.117 95.0547 105.117ZM101.348 105.088C100.91 105.088 100.545 105.037 100.252 104.936C99.9629 104.83 99.7363 104.666 99.5723 104.443C99.4082 104.221 99.291 103.959 99.2207 103.658C99.1543 103.354 99.1211 102.979 99.1211 102.533V99.4922H98.0664L98.125 98.6602L99.2266 98.5605L99.7188 96.8145L100.656 96.8086V98.5605H102.256V99.4922H100.656V102.562C100.656 103.051 100.727 103.398 100.867 103.605C101.008 103.812 101.268 103.916 101.646 103.916C101.869 103.916 102.107 103.896 102.361 103.857L102.402 104.959C102.394 104.959 102.346 104.969 102.256 104.988C102.17 105.004 102.086 105.018 102.004 105.029C101.926 105.045 101.824 105.059 101.699 105.07C101.574 105.082 101.457 105.088 101.348 105.088ZM103.521 105V98.5605H105.057V105H103.521ZM103.521 97.623V96.3105H105.062V97.623H103.521ZM106.662 105V98.5605H107.904L108.08 99.3809C108.158 99.2832 108.232 99.1973 108.303 99.123C108.377 99.0449 108.477 98.959 108.602 98.8652C108.73 98.7676 108.865 98.6875 109.006 98.625C109.15 98.5625 109.326 98.5098 109.533 98.4668C109.744 98.4238 109.969 98.4023 110.207 98.4023C110.719 98.4023 111.127 98.5059 111.432 98.7129C111.74 98.9199 111.957 99.1621 112.082 99.4395C112.312 99.1074 112.611 98.8516 112.978 98.6719C113.346 98.4922 113.754 98.4023 114.203 98.4023C114.941 98.4023 115.482 98.6113 115.826 99.0293C116.174 99.4473 116.348 100.066 116.348 100.887V105H114.807V101.344C114.807 100.715 114.736 100.262 114.596 99.9844C114.459 99.7031 114.195 99.5625 113.805 99.5625C113.207 99.5625 112.777 99.832 112.516 100.371C112.406 100.609 112.332 100.896 112.293 101.232V105H110.758V101.273C110.758 100.699 110.682 100.271 110.529 99.9902C110.377 99.709 110.102 99.5684 109.703 99.5684C109.379 99.5684 109.1 99.6504 108.865 99.8145C108.631 99.9785 108.453 100.193 108.332 100.459C108.242 100.854 108.197 101.326 108.197 101.877V105H106.662ZM119.564 105.123C118.967 105.123 118.482 104.959 118.111 104.631C117.744 104.299 117.561 103.822 117.561 103.201C117.561 102.533 117.779 102.039 118.217 101.719C118.654 101.395 119.314 101.189 120.197 101.104C120.318 101.088 120.449 101.072 120.59 101.057C120.73 101.041 120.889 101.025 121.064 101.01C121.24 100.994 121.379 100.98 121.48 100.969V100.629C121.48 100.238 121.391 99.9551 121.211 99.7793C121.031 99.5996 120.758 99.5098 120.391 99.5098C119.867 99.5098 119.221 99.6562 118.451 99.9492C118.447 99.9375 118.383 99.7598 118.258 99.416C118.133 99.0723 118.068 98.8965 118.064 98.8887C118.822 98.5645 119.643 98.4023 120.525 98.4023C121.393 98.4023 122.023 98.5918 122.418 98.9707C122.812 99.3457 123.01 99.9551 123.01 100.799V105H121.873C121.869 104.984 121.826 104.854 121.744 104.607C121.662 104.361 121.621 104.23 121.621 104.215C121.301 104.527 120.986 104.758 120.678 104.906C120.373 105.051 120.002 105.123 119.564 105.123ZM119.98 104.033C120.336 104.033 120.645 103.949 120.906 103.781C121.172 103.609 121.361 103.402 121.475 103.16V101.918C121.463 101.918 121.359 101.926 121.164 101.941C120.973 101.957 120.869 101.965 120.854 101.965C120.232 102.02 119.777 102.137 119.488 102.316C119.199 102.496 119.055 102.785 119.055 103.184C119.055 103.457 119.135 103.668 119.295 103.816C119.455 103.961 119.684 104.033 119.98 104.033ZM127.129 105.088C126.691 105.088 126.326 105.037 126.033 104.936C125.744 104.83 125.518 104.666 125.354 104.443C125.189 104.221 125.072 103.959 125.002 103.658C124.936 103.354 124.902 102.979 124.902 102.533V99.4922H123.848L123.906 98.6602L125.008 98.5605L125.5 96.8145L126.438 96.8086V98.5605H128.037V99.4922H126.438V102.562C126.438 103.051 126.508 103.398 126.648 103.605C126.789 103.812 127.049 103.916 127.428 103.916C127.65 103.916 127.889 103.896 128.143 103.857L128.184 104.959C128.176 104.959 128.127 104.969 128.037 104.988C127.951 105.004 127.867 105.018 127.785 105.029C127.707 105.045 127.605 105.059 127.48 105.07C127.355 105.082 127.238 105.088 127.129 105.088ZM132.186 105.123C131.15 105.123 130.344 104.826 129.766 104.232C129.191 103.635 128.904 102.811 128.904 101.76C128.904 100.736 129.176 99.9219 129.719 99.3164C130.262 98.7109 131.002 98.4062 131.939 98.4023C132.826 98.4023 133.514 98.6797 134.002 99.2344C134.494 99.7891 134.74 100.525 134.74 101.443C134.74 101.51 134.738 101.617 134.734 101.766C134.734 101.914 134.734 102.023 134.734 102.094H130.451C130.467 102.695 130.631 103.162 130.943 103.494C131.26 103.822 131.693 103.986 132.244 103.986C132.947 103.986 133.623 103.803 134.271 103.436L134.488 104.525C133.844 104.924 133.076 105.123 132.186 105.123ZM130.48 101.127H133.293C133.293 100.604 133.174 100.201 132.936 99.9199C132.697 99.6387 132.367 99.498 131.945 99.498C131.551 99.498 131.217 99.6348 130.943 99.9082C130.674 100.182 130.52 100.588 130.48 101.127ZM138.391 105.123C137.551 105.123 136.891 104.814 136.41 104.197C135.93 103.58 135.689 102.756 135.689 101.725C135.689 100.725 135.928 99.9219 136.404 99.3164C136.885 98.707 137.545 98.4023 138.385 98.4023C139.299 98.4023 139.945 98.7266 140.324 99.375C140.285 98.9922 140.266 98.623 140.266 98.2676V96.1875L141.801 96.0879V105H140.471L140.301 104.121C140.234 104.227 140.172 104.318 140.113 104.396C140.059 104.471 139.977 104.559 139.867 104.66C139.758 104.758 139.639 104.838 139.51 104.9C139.385 104.959 139.225 105.01 139.029 105.053C138.838 105.1 138.625 105.123 138.391 105.123ZM138.754 103.957C139.785 103.957 140.309 103.256 140.324 101.854C140.324 101.061 140.191 100.482 139.926 100.119C139.66 99.7559 139.264 99.5742 138.736 99.5742C138.275 99.5742 137.906 99.7598 137.629 100.131C137.355 100.498 137.219 101.041 137.219 101.76C137.219 102.475 137.355 103.02 137.629 103.395C137.906 103.77 138.281 103.957 138.754 103.957ZM142.838 106.617C143.072 106.281 143.303 105.859 143.529 105.352C143.756 104.848 143.959 104.24 144.139 103.529C144.318 102.814 144.408 102.135 144.408 101.49C144.408 100.537 144.242 99.5723 143.91 98.5957C143.582 97.6152 143.223 96.8438 142.832 96.2812H144.209C145.314 97.8398 145.867 99.5801 145.867 101.502C145.867 103.393 145.312 105.098 144.203 106.617H142.838Z" fill="#666666"/>
<path d="M255.703 136.164C254.203 136.164 253.065 135.792 252.289 135.047C251.513 134.297 251.125 133.242 251.125 131.883V124.555H253.25V131.703C253.25 132.656 253.443 133.352 253.828 133.789C254.219 134.227 254.857 134.445 255.742 134.445C256.612 134.445 257.242 134.227 257.633 133.789C258.023 133.346 258.219 132.648 258.219 131.695V124.555H260.336V131.898C260.336 133.247 259.94 134.297 259.148 135.047C258.357 135.792 257.208 136.164 255.703 136.164ZM265.914 136.156C264.534 136.156 263.297 135.839 262.203 135.203L262.719 133.523C263.208 133.794 263.74 134.013 264.312 134.18C264.891 134.346 265.453 134.43 266 134.43C266.672 134.43 267.18 134.286 267.523 134C267.867 133.708 268.039 133.292 268.039 132.75C268.039 132.031 267.56 131.534 266.602 131.258C266.534 131.237 266.344 131.182 266.031 131.094C265.719 131 265.424 130.911 265.148 130.828C264.878 130.74 264.682 130.672 264.562 130.625C263.026 130.083 262.258 129.073 262.258 127.594C262.258 126.557 262.625 125.758 263.359 125.195C264.099 124.633 265.078 124.352 266.297 124.352C267.677 124.352 268.867 124.635 269.867 125.203L269.227 126.75C268.206 126.292 267.258 126.062 266.383 126.062C265.753 126.062 265.276 126.174 264.953 126.398C264.635 126.617 264.466 126.984 264.445 127.5C264.445 128.135 264.76 128.549 265.391 128.742C265.516 128.789 265.823 128.891 266.312 129.047C266.802 129.203 267.12 129.305 267.266 129.352C268.312 129.695 269.06 130.122 269.508 130.633C269.961 131.143 270.188 131.854 270.188 132.766C270.188 133.854 269.802 134.693 269.031 135.281C268.26 135.865 267.221 136.156 265.914 136.156ZM274.125 134.305H275.641C276.948 134.305 277.943 133.964 278.625 133.281C279.307 132.594 279.648 131.594 279.648 130.281C279.648 128.875 279.297 127.854 278.594 127.219C277.891 126.578 276.831 126.258 275.414 126.258H274.125V134.305ZM272.008 136V124.555H275.32C276.32 124.555 277.216 124.669 278.008 124.898C278.799 125.128 279.479 125.474 280.047 125.938C280.62 126.396 281.057 126.99 281.359 127.719C281.667 128.443 281.82 129.281 281.82 130.234C281.82 132.083 281.263 133.508 280.148 134.508C279.034 135.503 277.49 136 275.516 136H272.008ZM288.82 136.164C287.148 136.164 285.823 135.638 284.844 134.586C283.865 133.534 283.375 132.081 283.375 130.227C283.375 128.466 283.885 127.055 284.906 125.992C285.932 124.924 287.273 124.391 288.93 124.391C290.268 124.391 291.401 124.701 292.328 125.32L291.664 126.922C290.773 126.375 289.878 126.102 288.977 126.102C287.924 126.102 287.091 126.482 286.477 127.242C285.867 127.997 285.562 129.013 285.562 130.289C285.562 131.612 285.857 132.635 286.445 133.359C287.039 134.083 287.883 134.445 288.977 134.445C289.935 134.445 290.885 134.206 291.828 133.727L292.109 135.383C291.234 135.904 290.138 136.164 288.82 136.164Z" fill="#E4E4E4"/>
<path d="M304 128L308 132L312 128" stroke="#E4E4E4"/>
<path d="M232 140C237.542 140 242 135.542 242 130C242 124.458 237.542 120 232 120C226.458 120 222 124.458 222 130C222 135.542 226.458 140 232 140Z" fill="#2775CA"/>
<path d="M234.75 131.583C234.75 130.125 233.875 129.625 232.125 129.417C230.875 129.25 230.625 128.917 230.625 128.333C230.625 127.75 231.042 127.375 231.875 127.375C232.625 127.375 233.042 127.625 233.25 128.25C233.292 128.375 233.417 128.458 233.542 128.458H234.208C234.375 128.458 234.5 128.333 234.5 128.167V128.125C234.333 127.208 233.583 126.5 232.625 126.417V125.417C232.625 125.25 232.5 125.125 232.292 125.083H231.667C231.5 125.083 231.375 125.208 231.333 125.417V126.375C230.083 126.542 229.292 127.375 229.292 128.417C229.292 129.792 230.125 130.333 231.875 130.542C233.042 130.75 233.417 131 233.417 131.667C233.417 132.333 232.833 132.792 232.042 132.792C230.958 132.792 230.583 132.333 230.458 131.708C230.417 131.542 230.292 131.458 230.167 131.458H229.458C229.292 131.458 229.167 131.583 229.167 131.75V131.792C229.333 132.833 230 133.583 231.375 133.792V134.792C231.375 134.958 231.5 135.083 231.708 135.125H232.333C232.5 135.125 232.625 135 232.667 134.792V133.792C233.917 133.583 234.75 132.708 234.75 131.583Z" fill="white"/>
<path d="M229.875 135.958C226.625 134.792 224.958 131.167 226.167 127.958C226.792 126.208 228.167 124.875 229.875 124.25C230.042 124.167 230.125 124.042 230.125 123.833V123.25C230.125 123.083 230.042 122.958 229.875 122.917C229.833 122.917 229.75 122.917 229.708 122.958C225.75 124.208 223.583 128.417 224.833 132.375C225.583 134.708 227.375 136.5 229.708 137.25C229.875 137.333 230.042 137.25 230.083 137.083C230.125 137.042 230.125 137 230.125 136.917V136.333C230.125 136.208 230 136.042 229.875 135.958ZM234.292 122.958C234.125 122.875 233.958 122.958 233.917 123.125C233.875 123.167 233.875 123.208 233.875 123.292V123.875C233.875 124.042 234 124.208 234.125 124.292C237.375 125.458 239.042 129.083 237.833 132.292C237.208 134.042 235.833 135.375 234.125 136C233.958 136.083 233.875 136.208 233.875 136.417V137C233.875 137.167 233.958 137.292 234.125 137.333C234.167 137.333 234.25 137.333 234.292 137.292C238.25 136.042 240.417 131.833 239.167 127.875C238.417 125.5 236.583 123.708 234.292 122.958Z" fill="white"/>
<path d="M163 120H136C131.582 120 128 123.582 128 128V132C128 136.418 131.582 140 136 140H163C167.418 140 171 136.418 171 132V128C171 123.582 167.418 120 163 120Z" fill="#273953"/>
<path d="M136.926 135V126.416H138.801L141.396 132.615L144.01 126.416H145.861V135H144.396V130.758L144.443 128.326L144.227 128.971L142.029 134.414H140.67L138.52 128.941L138.303 128.297L138.355 130.781V135H136.926ZM146.775 135L149.934 126.41H151.662L154.773 135H153.145L152.295 132.574H149.289L148.434 135H146.775ZM149.688 131.391H151.891C151.188 129.137 150.826 127.973 150.807 127.898L149.688 131.391ZM154.697 135L157.703 130.605L154.92 126.416H156.707L158.729 129.615L160.809 126.416H162.502L159.66 130.629L162.654 135H160.82L158.652 131.66L156.438 135H154.697Z" fill="white"/>
<path d="M208.5 313.123C208.113 313.123 207.715 313.061 207.305 312.936C206.895 312.807 206.582 312.686 206.367 312.572C206.152 312.455 206.01 312.365 205.939 312.303L206.408 311.201C206.482 311.26 206.59 311.334 206.73 311.424C206.875 311.51 207.105 311.609 207.422 311.723C207.742 311.836 208.049 311.893 208.342 311.893C208.889 311.893 209.303 311.74 209.584 311.436C209.865 311.131 210.006 310.732 210.006 310.24C210.006 309.775 209.877 309.402 209.619 309.121C209.365 308.84 209.035 308.699 208.629 308.699C208.145 308.699 207.711 308.91 207.328 309.332L206.303 309.133L206.525 304.457H211.189L211.102 305.664H207.885C207.885 305.734 207.871 306.088 207.844 306.725C207.82 307.357 207.807 307.711 207.803 307.785C208.146 307.602 208.508 307.51 208.887 307.51C209.676 307.51 210.311 307.764 210.791 308.271C211.275 308.779 211.518 309.441 211.518 310.258C211.518 311.125 211.252 311.82 210.721 312.344C210.193 312.863 209.453 313.123 208.5 313.123ZM212.49 313L212.455 311.734L215.168 308.664C215.504 308.305 215.748 307.975 215.9 307.674C216.057 307.369 216.135 307.049 216.135 306.713C216.135 306.342 216.014 306.047 215.771 305.828C215.529 305.605 215.211 305.494 214.816 305.494C214.453 305.494 214.094 305.562 213.738 305.699C213.387 305.832 213.098 306 212.871 306.203L212.432 305.043C213.018 304.527 213.842 304.27 214.904 304.27C215.748 304.27 216.426 304.482 216.938 304.908C217.453 305.33 217.711 305.928 217.711 306.701C217.711 307.248 217.564 307.77 217.271 308.266C216.982 308.762 216.586 309.271 216.082 309.795L214.148 311.846H217.611L217.506 313H212.49ZM218.666 313L218.631 311.734L221.344 308.664C221.68 308.305 221.924 307.975 222.076 307.674C222.232 307.369 222.311 307.049 222.311 306.713C222.311 306.342 222.189 306.047 221.947 305.828C221.705 305.605 221.387 305.494 220.992 305.494C220.629 305.494 220.27 305.562 219.914 305.699C219.562 305.832 219.273 306 219.047 306.203L218.607 305.043C219.193 304.527 220.018 304.27 221.08 304.27C221.924 304.27 222.602 304.482 223.113 304.908C223.629 305.33 223.887 305.928 223.887 306.701C223.887 307.248 223.74 307.77 223.447 308.266C223.158 308.762 222.762 309.271 222.258 309.795L220.324 311.846H223.787L223.682 313H218.666ZM225.779 313.105C225.525 313.105 225.311 313.018 225.135 312.842C224.959 312.666 224.871 312.457 224.871 312.215C224.871 311.969 224.957 311.756 225.129 311.576C225.305 311.396 225.521 311.307 225.779 311.307C226.029 311.307 226.24 311.396 226.412 311.576C226.584 311.756 226.67 311.969 226.67 312.215C226.67 312.457 226.584 312.666 226.412 312.842C226.24 313.018 226.029 313.105 225.779 313.105ZM230.725 313.123C229.771 313.123 228.996 312.863 228.398 312.344C227.801 311.824 227.502 311.139 227.502 310.287C227.502 310.014 227.531 309.752 227.59 309.502C227.648 309.252 227.738 309.008 227.859 308.77C227.98 308.531 228.102 308.32 228.223 308.137C228.344 307.953 228.5 307.734 228.691 307.48L231.129 304.404H232.945L230.285 307.762C230.57 307.664 230.809 307.615 231 307.615C231.84 307.615 232.527 307.867 233.062 308.371C233.598 308.871 233.865 309.523 233.865 310.328C233.865 311.164 233.572 311.84 232.986 312.355C232.4 312.867 231.646 313.123 230.725 313.123ZM230.654 311.951C231.17 311.951 231.572 311.805 231.861 311.512C232.154 311.215 232.301 310.826 232.301 310.346C232.301 309.842 232.164 309.445 231.891 309.156C231.617 308.863 231.211 308.717 230.672 308.717C230.125 308.717 229.723 308.863 229.465 309.156C229.207 309.449 229.078 309.85 229.078 310.357C229.078 310.838 229.215 311.225 229.488 311.518C229.762 311.807 230.15 311.951 230.654 311.951ZM237.791 313.123C236.838 313.123 236.062 312.863 235.465 312.344C234.867 311.824 234.568 311.139 234.568 310.287C234.568 310.014 234.598 309.752 234.656 309.502C234.715 309.252 234.805 309.008 234.926 308.77C235.047 308.531 235.168 308.32 235.289 308.137C235.41 307.953 235.566 307.734 235.758 307.48L238.195 304.404H240.012L237.352 307.762C237.637 307.664 237.875 307.615 238.066 307.615C238.906 307.615 239.594 307.867 240.129 308.371C240.664 308.871 240.932 309.523 240.932 310.328C240.932 311.164 240.639 311.84 240.053 312.355C239.467 312.867 238.713 313.123 237.791 313.123ZM237.721 311.951C238.236 311.951 238.639 311.805 238.928 311.512C239.221 311.215 239.367 310.826 239.367 310.346C239.367 309.842 239.23 309.445 238.957 309.156C238.684 308.863 238.277 308.717 237.738 308.717C237.191 308.717 236.789 308.863 236.531 309.156C236.273 309.449 236.145 309.85 236.145 310.357C236.145 310.838 236.281 311.225 236.555 311.518C236.828 311.807 237.217 311.951 237.721 311.951ZM248.707 313.123C247.582 313.123 246.729 312.844 246.146 312.285C245.564 311.723 245.273 310.932 245.273 309.912V304.416H246.867V309.777C246.867 310.492 247.012 311.014 247.301 311.342C247.594 311.67 248.072 311.834 248.736 311.834C249.389 311.834 249.861 311.67 250.154 311.342C250.447 311.01 250.594 310.486 250.594 309.771V304.416H252.182V309.924C252.182 310.936 251.885 311.723 251.291 312.285C250.697 312.844 249.836 313.123 248.707 313.123ZM256.365 313.117C255.33 313.117 254.402 312.879 253.582 312.402L253.969 311.143C254.336 311.346 254.734 311.51 255.164 311.635C255.598 311.76 256.02 311.822 256.43 311.822C256.934 311.822 257.314 311.715 257.572 311.5C257.83 311.281 257.959 310.969 257.959 310.562C257.959 310.023 257.6 309.65 256.881 309.443C256.83 309.428 256.688 309.387 256.453 309.32C256.219 309.25 255.998 309.184 255.791 309.121C255.588 309.055 255.441 309.004 255.352 308.969C254.199 308.562 253.623 307.805 253.623 306.695C253.623 305.918 253.898 305.318 254.449 304.896C255.004 304.475 255.738 304.264 256.652 304.264C257.688 304.264 258.58 304.477 259.33 304.902L258.85 306.062C258.084 305.719 257.373 305.547 256.717 305.547C256.244 305.547 255.887 305.631 255.645 305.799C255.406 305.963 255.279 306.238 255.264 306.625C255.264 307.102 255.5 307.412 255.973 307.557C256.066 307.592 256.297 307.668 256.664 307.785C257.031 307.902 257.27 307.979 257.379 308.014C258.164 308.271 258.725 308.592 259.061 308.975C259.4 309.357 259.57 309.891 259.57 310.574C259.57 311.391 259.281 312.02 258.703 312.461C258.125 312.898 257.346 313.117 256.365 313.117ZM262.523 311.729H263.66C264.641 311.729 265.387 311.473 265.898 310.961C266.41 310.445 266.666 309.695 266.666 308.711C266.666 307.656 266.402 306.891 265.875 306.414C265.348 305.934 264.553 305.693 263.49 305.693H262.523V311.729ZM260.936 313V304.416H263.42C264.17 304.416 264.842 304.502 265.436 304.674C266.029 304.846 266.539 305.105 266.965 305.453C267.395 305.797 267.723 306.242 267.949 306.789C268.18 307.332 268.295 307.961 268.295 308.676C268.295 310.062 267.877 311.131 267.041 311.881C266.205 312.627 265.047 313 263.566 313H260.936ZM273.545 313.123C272.291 313.123 271.297 312.729 270.562 311.939C269.828 311.15 269.461 310.061 269.461 308.67C269.461 307.35 269.844 306.291 270.609 305.494C271.379 304.693 272.385 304.293 273.627 304.293C274.631 304.293 275.48 304.525 276.176 304.99L275.678 306.191C275.01 305.781 274.338 305.576 273.662 305.576C272.873 305.576 272.248 305.861 271.787 306.432C271.33 306.998 271.102 307.76 271.102 308.717C271.102 309.709 271.322 310.477 271.764 311.02C272.209 311.562 272.842 311.834 273.662 311.834C274.381 311.834 275.094 311.654 275.801 311.295L276.012 312.537C275.355 312.928 274.533 313.123 273.545 313.123ZM280.459 315.678V306.561H281.777L281.941 307.463C282.152 307.123 282.432 306.861 282.779 306.678C283.131 306.49 283.521 306.396 283.951 306.396C284.479 306.396 284.941 306.543 285.34 306.836C285.742 307.129 286.047 307.529 286.254 308.037C286.461 308.541 286.564 309.111 286.564 309.748C286.564 310.744 286.322 311.557 285.838 312.186C285.357 312.811 284.705 313.123 283.881 313.123C283.475 313.123 283.105 313.043 282.773 312.883C282.445 312.719 282.17 312.498 281.947 312.221C281.979 312.783 281.994 313.1 281.994 313.17V315.602L280.459 315.678ZM283.553 311.951C284.01 311.951 284.369 311.76 284.631 311.377C284.896 310.994 285.029 310.447 285.029 309.736C285.029 309.014 284.896 308.471 284.631 308.107C284.365 307.744 283.996 307.562 283.523 307.562C282.508 307.562 281.994 308.254 281.982 309.637C281.982 310.434 282.113 311.02 282.375 311.395C282.641 311.766 283.033 311.951 283.553 311.951ZM290.795 313.123C289.76 313.123 288.953 312.826 288.375 312.232C287.801 311.635 287.514 310.811 287.514 309.76C287.514 308.736 287.785 307.922 288.328 307.316C288.871 306.711 289.611 306.406 290.549 306.402C291.436 306.402 292.123 306.68 292.611 307.234C293.104 307.789 293.35 308.525 293.35 309.443C293.35 309.51 293.348 309.617 293.344 309.766C293.344 309.914 293.344 310.023 293.344 310.094H289.061C289.076 310.695 289.24 311.162 289.553 311.494C289.869 311.822 290.303 311.986 290.854 311.986C291.557 311.986 292.232 311.803 292.881 311.436L293.098 312.525C292.453 312.924 291.686 313.123 290.795 313.123ZM289.09 309.127H291.902C291.902 308.604 291.783 308.201 291.545 307.92C291.307 307.639 290.977 307.498 290.555 307.498C290.16 307.498 289.826 307.635 289.553 307.908C289.283 308.182 289.129 308.588 289.09 309.127ZM294.609 313V306.561H295.898L296.098 307.545C296.52 306.869 297.131 306.531 297.932 306.531C298.1 306.531 298.236 306.539 298.342 306.555L298.318 307.838C298.162 307.814 298 307.803 297.832 307.803C297.266 307.803 296.842 307.953 296.561 308.254C296.283 308.555 296.145 308.973 296.145 309.508V313H294.609ZM302.602 313V304.416H307.805L307.74 305.676H304.189V307.891H307.564V309.15H304.189V311.734H307.869L307.816 313H302.602ZM311.01 313V305.688H308.508V304.416H315.094V305.688H312.604V313H311.01ZM316.02 313V304.416H317.607V307.926H321.486V304.416H323.074V313H321.486V309.18H317.607V313H316.02Z" fill="#E4E4E4"/>
<path d="M37.8848 313V304.393H40.7441C41.4199 304.393 41.998 304.48 42.4785 304.656C42.959 304.828 43.3379 305.109 43.6152 305.5C43.8965 305.891 44.0371 306.381 44.0371 306.971C44.0371 307.381 43.9844 307.746 43.8789 308.066C43.7734 308.383 43.5996 308.672 43.3574 308.934C43.1152 309.191 42.7734 309.391 42.332 309.531C41.8945 309.672 41.3652 309.742 40.7441 309.742C40.2129 309.742 39.7812 309.727 39.4492 309.695V313H37.8848ZM40.5742 308.594C40.8984 308.594 41.1797 308.562 41.418 308.5C41.6602 308.438 41.8477 308.357 41.9805 308.26C42.1172 308.162 42.2246 308.041 42.3027 307.896C42.3848 307.752 42.4375 307.613 42.4609 307.48C42.4883 307.344 42.502 307.191 42.502 307.023C42.502 306.551 42.3496 306.191 42.0449 305.945C41.7402 305.699 41.3105 305.576 40.7559 305.576H39.4492V308.582C39.4961 308.59 39.8711 308.594 40.5742 308.594ZM45.0859 313V306.561H46.375L46.5742 307.545C46.9961 306.869 47.6074 306.531 48.4082 306.531C48.5762 306.531 48.7129 306.539 48.8184 306.555L48.7949 307.838C48.6387 307.814 48.4766 307.803 48.3086 307.803C47.7422 307.803 47.3184 307.953 47.0371 308.254C46.7598 308.555 46.6211 308.973 46.6211 309.508V313H45.0859ZM49.791 313V306.561H51.3262V313H49.791ZM49.791 305.623V304.311H51.332V305.623H49.791ZM55.75 313.123C54.7656 313.123 53.998 312.83 53.4473 312.244C52.9004 311.658 52.627 310.82 52.627 309.73C52.627 308.676 52.9141 307.857 53.4883 307.275C54.0664 306.693 54.8262 306.402 55.7676 306.402C56.5215 306.402 57.1582 306.564 57.6777 306.889L57.3145 307.984C56.7832 307.707 56.2891 307.568 55.832 307.568C55.3125 307.568 54.9023 307.754 54.6016 308.125C54.3047 308.496 54.1562 309.037 54.1562 309.748C54.1562 310.467 54.3027 311.014 54.5957 311.389C54.8926 311.764 55.3105 311.951 55.8496 311.951C56.4121 311.951 56.9531 311.785 57.4727 311.453L57.6191 312.619C57.3496 312.799 57.0703 312.928 56.7812 313.006C56.4922 313.084 56.1484 313.123 55.75 313.123ZM61.7676 313.123C60.7324 313.123 59.9258 312.826 59.3477 312.232C58.7734 311.635 58.4863 310.811 58.4863 309.76C58.4863 308.736 58.7578 307.922 59.3008 307.316C59.8438 306.711 60.584 306.406 61.5215 306.402C62.4082 306.402 63.0957 306.68 63.584 307.234C64.0762 307.789 64.3223 308.525 64.3223 309.443C64.3223 309.51 64.3203 309.617 64.3164 309.766C64.3164 309.914 64.3164 310.023 64.3164 310.094H60.0332C60.0488 310.695 60.2129 311.162 60.5254 311.494C60.8418 311.822 61.2754 311.986 61.8262 311.986C62.5293 311.986 63.2051 311.803 63.8535 311.436L64.0703 312.525C63.4258 312.924 62.6582 313.123 61.7676 313.123ZM60.0625 309.127H62.875C62.875 308.604 62.7559 308.201 62.5176 307.92C62.2793 307.639 61.9492 307.498 61.5273 307.498C61.1328 307.498 60.7988 307.635 60.5254 307.908C60.2559 308.182 60.1016 308.588 60.0625 309.127Z" fill="#E4E4E4"/>
<g filter="url(#filter1_i)">
<path d="M320 208H41C36.5817 208 33 211.582 33 216V280C33 284.418 36.5817 288 41 288H320C324.418 288 328 284.418 328 280V216C328 211.582 324.418 208 320 208Z" fill="#1F1F1F"/>
</g>
<path d="M320 208.5H41C36.8579 208.5 33.5 211.858 33.5 216V280C33.5 284.142 36.8579 287.5 41 287.5H320C324.142 287.5 327.5 284.142 327.5 280V216C327.5 211.858 324.142 208.5 320 208.5Z" stroke="#3D3D3D"/>
<path d="M254.414 233V224.416H257.092C258.229 224.416 259.076 224.582 259.635 224.914C260.193 225.246 260.473 225.799 260.473 226.572C260.473 226.697 260.465 226.82 260.449 226.941C260.434 227.062 260.398 227.201 260.344 227.357C260.289 227.51 260.217 227.648 260.127 227.773C260.037 227.898 259.912 228.021 259.752 228.143C259.592 228.26 259.404 228.352 259.189 228.418C259.721 228.547 260.127 228.795 260.408 229.162C260.689 229.525 260.83 229.975 260.83 230.51C260.83 231.318 260.543 231.936 259.969 232.361C259.398 232.787 258.607 233 257.596 233H254.414ZM256.002 231.852H257.379C258.598 231.852 259.207 231.375 259.207 230.422C259.207 229.941 259.055 229.596 258.75 229.385C258.445 229.174 257.975 229.068 257.338 229.068H256.002V231.852ZM256.002 227.961H257.361C258.412 227.961 258.938 227.561 258.938 226.76C258.938 226.311 258.785 226.002 258.48 225.834C258.18 225.666 257.699 225.582 257.039 225.582H256.002V227.961ZM263.783 233.123C263.186 233.123 262.701 232.959 262.33 232.631C261.963 232.299 261.779 231.822 261.779 231.201C261.779 230.533 261.998 230.039 262.436 229.719C262.873 229.395 263.533 229.189 264.416 229.104C264.537 229.088 264.668 229.072 264.809 229.057C264.949 229.041 265.107 229.025 265.283 229.01C265.459 228.994 265.598 228.98 265.699 228.969V228.629C265.699 228.238 265.609 227.955 265.43 227.779C265.25 227.6 264.977 227.51 264.609 227.51C264.086 227.51 263.439 227.656 262.67 227.949C262.666 227.938 262.602 227.76 262.477 227.416C262.352 227.072 262.287 226.896 262.283 226.889C263.041 226.564 263.861 226.402 264.744 226.402C265.611 226.402 266.242 226.592 266.637 226.971C267.031 227.346 267.229 227.955 267.229 228.799V233H266.092C266.088 232.984 266.045 232.854 265.963 232.607C265.881 232.361 265.84 232.23 265.84 232.215C265.52 232.527 265.205 232.758 264.896 232.906C264.592 233.051 264.221 233.123 263.783 233.123ZM264.199 232.033C264.555 232.033 264.863 231.949 265.125 231.781C265.391 231.609 265.58 231.402 265.693 231.16V229.918C265.682 229.918 265.578 229.926 265.383 229.941C265.191 229.957 265.088 229.965 265.072 229.965C264.451 230.02 263.996 230.137 263.707 230.316C263.418 230.496 263.273 230.785 263.273 231.184C263.273 231.457 263.354 231.668 263.514 231.816C263.674 231.961 263.902 232.033 264.199 232.033ZM271.031 233.088C270.59 233.088 270.223 233.037 269.93 232.936C269.641 232.83 269.412 232.664 269.244 232.438C269.076 232.211 268.959 231.941 268.893 231.629C268.826 231.316 268.793 230.928 268.793 230.463V224.188L270.328 224.088V230.434C270.328 231.012 270.396 231.404 270.533 231.611C270.67 231.814 270.936 231.916 271.33 231.916C271.525 231.916 271.773 231.895 272.074 231.852L272.115 232.947C272.111 232.947 272.062 232.957 271.969 232.977C271.879 232.996 271.791 233.012 271.705 233.023C271.623 233.039 271.518 233.053 271.389 233.064C271.26 233.08 271.141 233.088 271.031 233.088ZM274.576 233.123C273.979 233.123 273.494 232.959 273.123 232.631C272.756 232.299 272.572 231.822 272.572 231.201C272.572 230.533 272.791 230.039 273.229 229.719C273.666 229.395 274.326 229.189 275.209 229.104C275.33 229.088 275.461 229.072 275.602 229.057C275.742 229.041 275.9 229.025 276.076 229.01C276.252 228.994 276.391 228.98 276.492 228.969V228.629C276.492 228.238 276.402 227.955 276.223 227.779C276.043 227.6 275.77 227.51 275.402 227.51C274.879 227.51 274.232 227.656 273.463 227.949C273.459 227.938 273.395 227.76 273.27 227.416C273.145 227.072 273.08 226.896 273.076 226.889C273.834 226.564 274.654 226.402 275.537 226.402C276.404 226.402 277.035 226.592 277.43 226.971C277.824 227.346 278.021 227.955 278.021 228.799V233H276.885C276.881 232.984 276.838 232.854 276.756 232.607C276.674 232.361 276.633 232.23 276.633 232.215C276.312 232.527 275.998 232.758 275.689 232.906C275.385 233.051 275.014 233.123 274.576 233.123ZM274.992 232.033C275.348 232.033 275.656 231.949 275.918 231.781C276.184 231.609 276.373 231.402 276.486 231.16V229.918C276.475 229.918 276.371 229.926 276.176 229.941C275.984 229.957 275.881 229.965 275.865 229.965C275.244 230.02 274.789 230.137 274.5 230.316C274.211 230.496 274.066 230.785 274.066 231.184C274.066 231.457 274.146 231.668 274.307 231.816C274.467 231.961 274.695 232.033 274.992 232.033ZM279.568 233V226.561H280.805L280.975 227.375C281.631 226.727 282.359 226.402 283.16 226.402C283.91 226.402 284.471 226.619 284.842 227.053C285.217 227.482 285.404 228.107 285.404 228.928V233H283.863V229.115C283.859 228.596 283.775 228.207 283.611 227.949C283.447 227.691 283.152 227.562 282.727 227.562C282.395 227.562 282.09 227.648 281.812 227.82C281.539 227.988 281.34 228.201 281.215 228.459C281.141 228.764 281.104 229.232 281.104 229.865V233H279.568ZM289.734 233.123C288.75 233.123 287.982 232.83 287.432 232.244C286.885 231.658 286.611 230.82 286.611 229.73C286.611 228.676 286.898 227.857 287.473 227.275C288.051 226.693 288.811 226.402 289.752 226.402C290.506 226.402 291.143 226.564 291.662 226.889L291.299 227.984C290.768 227.707 290.273 227.568 289.816 227.568C289.297 227.568 288.887 227.754 288.586 228.125C288.289 228.496 288.141 229.037 288.141 229.748C288.141 230.467 288.287 231.014 288.58 231.389C288.877 231.764 289.295 231.951 289.834 231.951C290.396 231.951 290.938 231.785 291.457 231.453L291.604 232.619C291.334 232.799 291.055 232.928 290.766 233.006C290.477 233.084 290.133 233.123 289.734 233.123ZM295.752 233.123C294.717 233.123 293.91 232.826 293.332 232.232C292.758 231.635 292.471 230.811 292.471 229.76C292.471 228.736 292.742 227.922 293.285 227.316C293.828 226.711 294.568 226.406 295.506 226.402C296.393 226.402 297.08 226.68 297.568 227.234C298.061 227.789 298.307 228.525 298.307 229.443C298.307 229.51 298.305 229.617 298.301 229.766C298.301 229.914 298.301 230.023 298.301 230.094H294.018C294.033 230.695 294.197 231.162 294.51 231.494C294.826 231.822 295.26 231.986 295.811 231.986C296.514 231.986 297.189 231.803 297.838 231.436L298.055 232.525C297.41 232.924 296.643 233.123 295.752 233.123ZM294.047 229.127H296.859C296.859 228.604 296.74 228.201 296.502 227.92C296.264 227.639 295.934 227.498 295.512 227.498C295.117 227.498 294.783 227.635 294.51 227.908C294.24 228.182 294.086 228.588 294.047 229.127ZM299.367 233.035V231.482H300.92V233.035H299.367ZM299.367 228.072V226.52H300.92V228.072H299.367ZM309.064 233V231.096H305.191V230.053L308.666 224.457H310.617V229.936H311.672L311.596 231.096H310.617V233H309.064ZM306.715 229.941H309.064V225.957L306.715 229.941Z" fill="#666666"/>
<path d="M51.959 265.99V254.086C51.8678 254.145 51.4447 254.333 50.6895 254.652C49.9408 254.965 49.5176 255.134 49.4199 255.16V253.207C49.5762 253.135 50.071 252.891 50.9043 252.475C51.7376 252.051 52.1966 251.811 52.2812 251.752H54.4297V265.99H51.959Z" fill="#E4E4E4"/>
<path d="M51.584 233V225.688H49.082V224.416H55.668V225.688H53.1777V233H51.584ZM59.0664 231.957C59.5859 231.957 59.9766 231.768 60.2383 231.389C60.5 231.01 60.6309 230.467 60.6309 229.76C60.6309 229.045 60.5 228.5 60.2383 228.125C59.9766 227.75 59.582 227.562 59.0547 227.562C58.5352 227.562 58.1426 227.752 57.877 228.131C57.6152 228.506 57.4844 229.051 57.4844 229.766C57.4844 230.469 57.6172 231.01 57.8828 231.389C58.1484 231.768 58.543 231.957 59.0664 231.957ZM59.0254 233.123C58.0723 233.123 57.3223 232.814 56.7754 232.197C56.2285 231.58 55.9551 230.768 55.9551 229.76C55.9551 228.721 56.2285 227.902 56.7754 227.305C57.3223 226.703 58.0938 226.402 59.0898 226.402C60.0508 226.402 60.8027 226.709 61.3457 227.322C61.8926 227.932 62.166 228.744 62.166 229.76C62.166 230.787 61.8906 231.605 61.3398 232.215C60.7891 232.82 60.0176 233.123 59.0254 233.123Z" fill="#666666"/>
<path d="M251.234 264V252.555H258.172L258.086 254.234H253.352V257.188H257.852V258.867H253.352V262.312H258.258L258.188 264H251.234ZM262.445 264V254.25H259.109V252.555H267.891V254.25H264.57V264H262.445ZM269.125 264V252.555H271.242V257.234H276.414V252.555H278.531V264H276.414V258.906H271.242V264H269.125Z" fill="#E4E4E4"/>
<path d="M304 256L308 260L312 256" stroke="#E4E4E4"/>
<path d="M231.999 248L231.865 248.456V261.68L231.999 261.814L238.137 258.185L231.999 248Z" fill="#343434"/>
<path d="M231.998 248L225.86 258.185L231.998 261.814V255.395V248Z" fill="#8C8C8C"/>
<path d="M231.999 262.977L231.923 263.069V267.78L231.999 268L238.141 259.35L231.999 262.977Z" fill="#3C3C3B"/>
<path d="M231.998 268V262.977L225.86 259.35L231.998 268Z" fill="#8C8C8C"/>
<path d="M231.999 261.814L238.137 258.185L231.999 255.395V261.814Z" fill="#141414"/>
<path d="M225.86 258.185L231.998 261.814V255.395L225.86 258.185Z" fill="#393939"/>
<g filter="url(#filter2_d)">
<path d="M33 348C33 343.582 36.5817 340 41 340H316C320.418 340 324 343.582 324 348V384C324 388.418 320.418 392 316 392H41C36.5817 392 33 388.418 33 384V348Z" fill="url(#paint1_linear)"/>
<path d="M161.945 372.156C160.565 372.156 159.328 371.839 158.234 371.203L158.75 369.523C159.24 369.794 159.771 370.013 160.344 370.18C160.922 370.346 161.484 370.43 162.031 370.43C162.703 370.43 163.211 370.286 163.555 370C163.898 369.708 164.07 369.292 164.07 368.75C164.07 368.031 163.591 367.534 162.633 367.258C162.565 367.237 162.375 367.182 162.062 367.094C161.75 367 161.456 366.911 161.18 366.828C160.909 366.74 160.714 366.672 160.594 366.625C159.057 366.083 158.289 365.073 158.289 363.594C158.289 362.557 158.656 361.758 159.391 361.195C160.13 360.633 161.109 360.352 162.328 360.352C163.708 360.352 164.898 360.635 165.898 361.203L165.258 362.75C164.237 362.292 163.289 362.062 162.414 362.062C161.784 362.062 161.307 362.174 160.984 362.398C160.667 362.617 160.497 362.984 160.477 363.5C160.477 364.135 160.792 364.549 161.422 364.742C161.547 364.789 161.854 364.891 162.344 365.047C162.833 365.203 163.151 365.305 163.297 365.352C164.344 365.695 165.091 366.122 165.539 366.633C165.992 367.143 166.219 367.854 166.219 368.766C166.219 369.854 165.833 370.693 165.062 371.281C164.292 371.865 163.253 372.156 161.945 372.156ZM169.5 372L166.898 363.414H168.984L170.633 369.711C170.669 369.591 170.966 368.568 171.523 366.641C172.081 364.714 172.396 363.638 172.469 363.414H174.57C174.638 363.633 174.938 364.698 175.469 366.609C176 368.521 176.286 369.547 176.328 369.688L178.023 363.414H180.078L177.391 372H175.352C175.284 371.776 174.966 370.643 174.398 368.602C173.836 366.56 173.531 365.458 173.484 365.297C173.38 365.677 173.047 366.823 172.484 368.734C171.927 370.646 171.604 371.734 171.516 372H169.5ZM183.445 372.164C182.648 372.164 182.003 371.945 181.508 371.508C181.018 371.065 180.773 370.43 180.773 369.602C180.773 368.711 181.065 368.052 181.648 367.625C182.232 367.193 183.112 366.919 184.289 366.805C184.451 366.784 184.625 366.763 184.812 366.742C185 366.721 185.211 366.701 185.445 366.68C185.68 366.659 185.865 366.641 186 366.625V366.172C186 365.651 185.88 365.273 185.641 365.039C185.401 364.799 185.036 364.68 184.547 364.68C183.849 364.68 182.987 364.875 181.961 365.266C181.956 365.25 181.87 365.013 181.703 364.555C181.536 364.096 181.451 363.862 181.445 363.852C182.456 363.419 183.549 363.203 184.727 363.203C185.883 363.203 186.724 363.456 187.25 363.961C187.776 364.461 188.039 365.273 188.039 366.398V372H186.523C186.518 371.979 186.461 371.805 186.352 371.477C186.242 371.148 186.188 370.974 186.188 370.953C185.76 371.37 185.341 371.677 184.93 371.875C184.523 372.068 184.029 372.164 183.445 372.164ZM184 370.711C184.474 370.711 184.885 370.599 185.234 370.375C185.589 370.146 185.841 369.87 185.992 369.547V367.891C185.977 367.891 185.839 367.901 185.578 367.922C185.323 367.943 185.185 367.953 185.164 367.953C184.336 368.026 183.729 368.182 183.344 368.422C182.958 368.661 182.766 369.047 182.766 369.578C182.766 369.943 182.872 370.224 183.086 370.422C183.299 370.615 183.604 370.711 184 370.711ZM190.102 375.57V363.414H191.859L192.078 364.617C192.359 364.164 192.732 363.815 193.195 363.57C193.664 363.32 194.185 363.195 194.758 363.195C195.461 363.195 196.078 363.391 196.609 363.781C197.146 364.172 197.552 364.706 197.828 365.383C198.104 366.055 198.242 366.815 198.242 367.664C198.242 368.992 197.919 370.076 197.273 370.914C196.633 371.747 195.763 372.164 194.664 372.164C194.122 372.164 193.63 372.057 193.188 371.844C192.75 371.625 192.383 371.331 192.086 370.961C192.128 371.711 192.148 372.133 192.148 372.227V375.469L190.102 375.57ZM194.227 370.602C194.836 370.602 195.315 370.346 195.664 369.836C196.018 369.326 196.195 368.596 196.195 367.648C196.195 366.685 196.018 365.961 195.664 365.477C195.31 364.992 194.818 364.75 194.188 364.75C192.833 364.75 192.148 365.672 192.133 367.516C192.133 368.578 192.307 369.359 192.656 369.859C193.01 370.354 193.534 370.602 194.227 370.602Z" fill="#E6E6E6"/>
</g>
<path d="M131.543 48V33.6934H134.355C134.863 34.4876 135.895 36.0892 137.451 38.498C139.007 40.9069 139.954 42.3717 140.293 42.8926C140.391 43.0423 140.557 43.2962 140.791 43.6543C141.032 44.0059 141.201 44.2565 141.299 44.4062C141.253 42.1732 141.23 41.0143 141.23 40.9297V33.6934H143.643V48H140.791L134.336 37.9414L133.867 37.1699C133.919 38.8887 133.945 40.0964 133.945 40.793V48H131.543ZM151.436 48.2051C149.71 48.2051 148.366 47.7103 147.402 46.7207C146.445 45.7246 145.967 44.3509 145.967 42.5996C145.967 40.8939 146.419 39.5365 147.324 38.5273C148.229 37.5182 149.463 37.0104 151.025 37.0039C152.503 37.0039 153.649 37.4661 154.463 38.3906C155.283 39.3151 155.693 40.5423 155.693 42.0723C155.693 42.1829 155.69 42.362 155.684 42.6094C155.684 42.8568 155.684 43.0391 155.684 43.1562H148.545C148.571 44.1589 148.844 44.9368 149.365 45.4902C149.893 46.0371 150.615 46.3105 151.533 46.3105C152.705 46.3105 153.831 46.0046 154.912 45.3926L155.273 47.209C154.199 47.873 152.92 48.2051 151.436 48.2051ZM148.594 41.5449H153.281C153.281 40.6725 153.083 40.002 152.686 39.5332C152.288 39.0645 151.738 38.8301 151.035 38.8301C150.378 38.8301 149.821 39.0579 149.365 39.5137C148.916 39.9694 148.659 40.6465 148.594 41.5449ZM159.863 48L156.611 37.2676H159.219L161.279 45.1387C161.325 44.9889 161.696 43.7096 162.393 41.3008C163.089 38.8919 163.483 37.5475 163.574 37.2676H166.201C166.286 37.541 166.66 38.8724 167.324 41.2617C167.988 43.651 168.346 44.9336 168.398 45.1094L170.518 37.2676H173.086L169.727 48H167.178C167.093 47.7201 166.696 46.304 165.986 43.752C165.283 41.1999 164.902 39.8229 164.844 39.6211C164.714 40.0964 164.297 41.5286 163.594 43.918C162.897 46.3073 162.493 47.668 162.383 48H159.863ZM184.072 48.1953C182.347 48.1953 180.801 47.7982 179.434 47.0039L180.078 44.9043C180.69 45.2428 181.354 45.5163 182.07 45.7246C182.793 45.9329 183.496 46.0371 184.18 46.0371C185.02 46.0371 185.654 45.8581 186.084 45.5C186.514 45.1354 186.729 44.6146 186.729 43.9375C186.729 43.0391 186.13 42.4173 184.932 42.0723C184.847 42.0462 184.609 41.9779 184.219 41.8672C183.828 41.75 183.46 41.6393 183.115 41.5352C182.777 41.4245 182.533 41.3398 182.383 41.2812C180.462 40.6042 179.502 39.3411 179.502 37.4922C179.502 36.1966 179.961 35.1973 180.879 34.4941C181.803 33.791 183.027 33.4395 184.551 33.4395C186.276 33.4395 187.764 33.7943 189.014 34.5039L188.213 36.4375C186.937 35.8646 185.752 35.5781 184.658 35.5781C183.87 35.5781 183.275 35.7181 182.871 35.998C182.474 36.2715 182.262 36.7305 182.236 37.375C182.236 38.1693 182.63 38.6868 183.418 38.9277C183.574 38.9863 183.958 39.1133 184.57 39.3086C185.182 39.5039 185.579 39.6309 185.762 39.6895C187.07 40.1191 188.005 40.653 188.564 41.291C189.131 41.929 189.414 42.8177 189.414 43.957C189.414 45.3177 188.932 46.3659 187.969 47.1016C187.005 47.8307 185.706 48.1953 184.072 48.1953ZM193.516 48L190.264 37.2676H192.871L194.932 45.1387C194.977 44.9889 195.348 43.7096 196.045 41.3008C196.742 38.8919 197.135 37.5475 197.227 37.2676H199.854C199.938 37.541 200.312 38.8724 200.977 41.2617C201.641 43.651 201.999 44.9336 202.051 45.1094L204.17 37.2676H206.738L203.379 48H200.83C200.745 47.7201 200.348 46.304 199.639 43.752C198.936 41.1999 198.555 39.8229 198.496 39.6211C198.366 40.0964 197.949 41.5286 197.246 43.918C196.549 46.3073 196.146 47.668 196.035 48H193.516ZM210.947 48.2051C209.951 48.2051 209.144 47.9316 208.525 47.3848C207.913 46.8314 207.607 46.0371 207.607 45.002C207.607 43.8887 207.972 43.0651 208.701 42.5312C209.43 41.9909 210.531 41.6491 212.002 41.5059C212.204 41.4798 212.422 41.4538 212.656 41.4277C212.891 41.4017 213.154 41.3757 213.447 41.3496C213.74 41.3236 213.971 41.3008 214.141 41.2812V40.7148C214.141 40.0638 213.991 39.5918 213.691 39.2988C213.392 38.9993 212.936 38.8496 212.324 38.8496C211.452 38.8496 210.374 39.0938 209.092 39.582C209.085 39.5625 208.978 39.2663 208.77 38.6934C208.561 38.1204 208.454 37.8275 208.447 37.8145C209.71 37.2741 211.077 37.0039 212.549 37.0039C213.994 37.0039 215.046 37.3197 215.703 37.9512C216.361 38.5762 216.689 39.5918 216.689 40.998V48H214.795C214.788 47.974 214.717 47.7559 214.58 47.3457C214.443 46.9355 214.375 46.7174 214.375 46.6914C213.841 47.2122 213.317 47.5964 212.803 47.8438C212.295 48.0846 211.676 48.2051 210.947 48.2051ZM211.641 46.3887C212.233 46.3887 212.747 46.2487 213.184 45.9688C213.626 45.6823 213.942 45.3372 214.131 44.9336V42.8633C214.111 42.8633 213.939 42.8763 213.613 42.9023C213.294 42.9284 213.122 42.9414 213.096 42.9414C212.061 43.0326 211.302 43.2279 210.82 43.5273C210.339 43.8268 210.098 44.3086 210.098 44.9727C210.098 45.4284 210.231 45.7799 210.498 46.0273C210.765 46.2682 211.146 46.3887 211.641 46.3887ZM219.268 52.4629V37.2676H221.465L221.738 38.7715C222.09 38.2051 222.555 37.7689 223.135 37.4629C223.721 37.1504 224.372 36.9941 225.088 36.9941C225.967 36.9941 226.738 37.2383 227.402 37.7266C228.073 38.2148 228.581 38.8822 228.926 39.7285C229.271 40.5684 229.443 41.5189 229.443 42.5801C229.443 44.2402 229.04 45.5944 228.232 46.6426C227.432 47.6842 226.344 48.2051 224.971 48.2051C224.294 48.2051 223.678 48.0716 223.125 47.8047C222.578 47.5312 222.119 47.1634 221.748 46.7012C221.8 47.6387 221.826 48.166 221.826 48.2832V52.3359L219.268 52.4629ZM224.424 46.252C225.186 46.252 225.785 45.9329 226.221 45.2949C226.663 44.6569 226.885 43.7454 226.885 42.5605C226.885 41.3561 226.663 40.4512 226.221 39.8457C225.778 39.2402 225.163 38.9375 224.375 38.9375C222.682 38.9375 221.826 40.0898 221.807 42.3945C221.807 43.7227 222.025 44.6992 222.461 45.3242C222.904 45.9427 223.558 46.252 224.424 46.252Z" fill="#E6E6E6"/>
<defs>
<filter id="filter0_i" x="33" y="80" width="295" height="80" filterUnits="userSpaceOnUse" color-interpolation-filters="sRGB">
<feFlood flood-opacity="0" result="BackgroundImageFix"/>
<feBlend mode="normal" in="SourceGraphic" in2="BackgroundImageFix" result="shape"/>
<feColorMatrix in="SourceAlpha" type="matrix" values="0 0 0 0 0 0 0 0 0 0 0 0 0 0 0 0 0 0 127 0" result="hardAlpha"/>
<feOffset/>
<feGaussianBlur stdDeviation="8"/>
<feComposite in2="hardAlpha" operator="arithmetic" k2="-1" k3="1"/>
<feColorMatrix type="matrix" values="0 0 0 0 0.04 0 0 0 0 0.04 0 0 0 0 0.04 0 0 0 0.36 0"/>
<feBlend mode="normal" in2="shape" result="effect1_innerShadow"/>
</filter>
<filter id="filter1_i" x="33" y="208" width="295" height="80" filterUnits="userSpaceOnUse" color-interpolation-filters="sRGB">
<feFlood flood-opacity="0" result="BackgroundImageFix"/>
<feBlend mode="normal" in="SourceGraphic" in2="BackgroundImageFix" result="shape"/>
<feColorMatrix in="SourceAlpha" type="matrix" values="0 0 0 0 0 0 0 0 0 0 0 0 0 0 0 0 0 0 127 0" result="hardAlpha"/>
<feOffset/>
<feGaussianBlur stdDeviation="8"/>
<feComposite in2="hardAlpha" operator="arithmetic" k2="-1" k3="1"/>
<feColorMatrix type="matrix" values="0 0 0 0 0.04 0 0 0 0 0.04 0 0 0 0 0.04 0 0 0 0.36 0"/>
<feBlend mode="normal" in2="shape" result="effect1_innerShadow"/>
</filter>
<filter id="filter2_d" x="25" y="340" width="307" height="72" filterUnits="userSpaceOnUse" color-interpolation-filters="sRGB">
<feFlood flood-opacity="0" result="BackgroundImageFix"/>
<feColorMatrix in="SourceAlpha" type="matrix" values="0 0 0 0 0 0 0 0 0 0 0 0 0 0 0 0 0 0 127 0"/>
<feOffset dy="12"/>
<feGaussianBlur stdDeviation="4"/>
<feColorMatrix type="matrix" values="0 0 0 0 0 0 0 0 0 0 0 0 0 0 0 0 0 0 0.16 0"/>
<feBlend mode="normal" in2="BackgroundImageFix" result="effect1_dropShadow"/>
<feBlend mode="normal" in="SourceGraphic" in2="effect1_dropShadow" result="shape"/>
</filter>
<linearGradient id="paint0_linear" x1="180" y1="416" x2="-25.2699" y2="241.59" gradientUnits="userSpaceOnUse">
<stop stop-color="#1F1F1F"/>
<stop offset="1" stop-color="#262626"/>
</linearGradient>
<linearGradient id="paint1_linear" x1="324" y1="392" x2="35.8008" y2="327.488" gradientUnits="userSpaceOnUse">
<stop stop-color="#1455B2"/>
<stop offset="1" stop-color="#1166E1"/>
</linearGradient>
</defs>
</svg>
