<svg width="20" height="20" viewBox="0 0 20 20" fill="none" xmlns="http://www.w3.org/2000/svg">
<g clip-path="url(#clip0)">
<path fill-rule="evenodd" clip-rule="evenodd" d="M16.3636 1.81818H3.63636C3.15415 1.81818 2.69169 2.00974 2.35071 2.35071C2.00974 2.69169 1.81818 3.15415 1.81818 3.63636V16.3636C1.81818 16.8458 2.00974 17.3083 2.35071 17.6493C2.69169 17.9903 3.15415 18.1818 3.63636 18.1818H16.3636C16.8458 18.1818 17.3083 17.9903 17.6493 17.6493C17.9903 17.3083 18.1818 16.8458 18.1818 16.3636V3.63636C18.1818 3.15415 17.9903 2.69169 17.6493 2.35071C17.3083 2.00974 16.8458 1.81818 16.3636 1.81818ZM3.63636 0C2.67194 0 1.74702 0.383116 1.06507 1.06507C0.383116 1.74702 0 2.67194 0 3.63636V16.3636C0 17.3281 0.383116 18.253 1.06507 18.9349C1.74702 19.6169 2.67194 20 3.63636 20H16.3636C17.3281 20 18.253 19.6169 18.9349 18.9349C19.6169 18.253 20 17.3281 20 16.3636V3.63636C20 2.67194 19.6169 1.74702 18.9349 1.06507C18.253 0.383116 17.3281 0 16.3636 0H3.63636Z" fill="white"/>
<path d="M14 10L8 14V6L14 10Z" fill="white"/>
</g>
<defs>
<clipPath id="clip0">
<rect width="20" height="20" fill="white"/>
</clipPath>
</defs>
</svg>
