<svg width="23" height="19" viewBox="0 0 23 19" fill="none" xmlns="http://www.w3.org/2000/svg">
<path d="M22.2827 2.68122C21.3194 0.87105 18.5446 -0.609994 15.317 0.252303C13.7746 0.660241 12.429 1.53507 11.4998 2.73387C10.5707 1.53507 9.22505 0.660241 7.68272 0.252303C4.44787 -0.596829 1.68027 0.87105 0.717005 2.68122C-0.634444 5.21545 -0.0737362 8.06563 2.38475 11.1528C4.31128 13.5685 7.0645 16.0172 11.0613 18.8608C11.1877 18.951 11.3432 19 11.5034 19C11.6636 19 11.8192 18.951 11.9455 18.8608C15.9352 16.0238 18.6956 13.5949 20.6221 11.1528C23.0734 8.06563 23.6341 5.21545 22.2827 2.68122Z" fill="white"/>
</svg>
